<svg width="30" height="31" viewBox="0 0 30 31" fill="none" xmlns="http://www.w3.org/2000/svg">
<rect y="0.5" width="30" height="30" rx="15" fill="white"/>
<path d="M20.3033 19.4698L15 24.7731L9.69667 19.4698C8.64779 18.4209 7.93349 17.0845 7.64411 15.6296C7.35473 14.1748 7.50326 12.6668 8.07092 11.2964C8.63858 9.92592 9.59987 8.75458 10.8332 7.93048C12.0666 7.10637 13.5166 6.6665 15 6.6665C16.4834 6.6665 17.9334 7.10637 19.1668 7.93048C20.4001 8.75458 21.3614 9.92592 21.9291 11.2964C22.4968 12.6668 22.6453 14.1748 22.3559 15.6296C22.0665 17.0845 21.3522 18.4209 20.3033 19.4698ZM15 15.8331C15.442 15.8331 15.866 15.6575 16.1785 15.3449C16.4911 15.0324 16.6667 14.6085 16.6667 14.1664C16.6667 13.7244 16.4911 13.3005 16.1785 12.9879C15.866 12.6754 15.442 12.4998 15 12.4998C14.558 12.4998 14.1341 12.6754 13.8215 12.9879C13.5089 13.3005 13.3333 13.7244 13.3333 14.1664C13.3333 14.6085 13.5089 15.0324 13.8215 15.3449C14.1341 15.6575 14.558 15.8331 15 15.8331Z" fill="#F96E00"/>
</svg>
