<svg width="30" height="30" viewBox="0 0 30 30" fill="none" xmlns="http://www.w3.org/2000/svg">
<path opacity="0.2" d="M15 30C23.284 30 30 23.284 30 15C30 6.716 23.284 3.22757e-06 15 2.50336e-06C6.716 1.77915e-06 3.9429e-06 6.716 3.21869e-06 15C2.49448e-06 23.284 6.716 30 15 30ZM5.808 5.808C7.00895 4.60754 8.43489 3.65574 10.0042 3.00711C11.5735 2.35849 13.2553 2.02577 14.9533 2.028C22.1067 2.028 27.9067 7.82667 27.9067 14.9813C27.9067 22.136 22.108 27.9347 14.9533 27.9347C7.8 27.9347 2 22.136 2 14.9813C1.99797 13.2194 2.35643 11.4756 3.05334 9.85733L3.02134 9.94134C3.67558 8.39746 4.62179 6.99444 5.808 5.80934L5.808 5.808Z" fill="#220F00"/>
<path opacity="0.2" d="M16.0385 20.6913L11.3478 16.0006L23.0078 16.0006L23.0078 14.0006L11.3478 14.0006L16.0385 9.30996L14.6238 7.89529L7.51848 15.0006L14.6238 22.106L16.0385 20.6913Z" fill="#220F00"/>
</svg>
