<svg width="42" height="40" viewBox="0 0 42 40" fill="none" xmlns="http://www.w3.org/2000/svg">
<g filter="url(#filter0_ii_21_2278)">
<path d="M6.88882 36.1789H35.1126C39.3427 32.3764 42 26.8883 42 20.7859C42 9.30599 32.5988 0 21.0014 0C9.40399 0 0 9.30599 0 20.7859C0 26.8883 2.65803 32.3764 6.88882 36.1789Z" fill="#F96E00"/>
</g>
<g style="mix-blend-mode:multiply" opacity="0.6">
<path d="M20.896 36.0223C29.3742 36.0223 36.2471 29.219 36.2471 20.8267C36.2471 12.4344 29.3742 5.6311 20.896 5.6311C12.4178 5.6311 5.54492 12.4344 5.54492 20.8267C5.54492 29.219 12.4178 36.0223 20.896 36.0223Z" fill="#F96E00"/>
</g>
<g style="mix-blend-mode:multiply" opacity="0.6">
<path d="M27.3632 27.2283C30.935 23.6927 30.935 17.9604 27.3632 14.4249C23.7915 10.8893 18.0006 10.8893 14.4288 14.4249C10.8571 17.9604 10.8571 23.6927 14.4288 27.2283C18.0006 30.7638 23.7915 30.7638 27.3632 27.2283Z" fill="#F96E00"/>
</g>
<path d="M15.1427 32.6138C15.287 32.3474 15.3598 32.1772 15.5009 31.914C15.6999 31.5429 15.6531 31.7928 16.3542 30.6441C16.7703 29.9621 16.8396 29.3625 17.2401 26.7513C17.289 26.4307 16.2838 24.2317 16.0196 22.9666C15.8195 22.0056 15.9471 21.1781 15.7855 20.9561C15.5515 20.6338 15.5082 20.1323 15.0921 19.2966C14.8053 18.7169 13.821 17.3423 12.9843 15.1904C12.7437 14.5726 12.0419 13.0078 12.2936 12.5819C12.613 12.0407 16.6562 9.19505 18.8298 7.39213C18.8707 7.02523 18.7698 7.052 18.7556 6.89378C18.6048 5.21408 18.816 5.4025 18.8805 5.12861C18.9872 4.67454 18.8111 5.2659 19.2723 3.7705C19.3953 3.37203 19.3732 3.33462 19.6259 3.18463C19.7823 2.74223 19.7698 2.76831 19.7885 2.73536C19.9966 2.36709 20.1862 2.6324 20.3291 3.0295C20.404 3.23783 20.4858 3.15237 20.6696 3.29412C21.0205 3.56492 21.2791 4.2208 21.3929 4.61722C21.4064 4.66458 21.4795 4.8132 21.5132 4.91513C21.5655 5.07336 21.5624 5.18113 21.603 5.17975C21.7392 5.17426 21.7607 5.18696 21.8134 5.30194C21.8423 5.36589 21.8485 5.43758 21.8311 5.50547C21.4688 7.16115 21.5028 6.91952 21.7642 7.11653C24.4014 9.10341 28.7425 11.1596 28.5948 12.3726C28.393 14.0361 27.6333 15.8552 25.2194 20.2092C24.7932 20.978 24.4465 22.2802 24.2582 23.1341C24.0578 24.0412 23.7773 24.774 23.6584 25.5336C23.4909 26.6054 24.8158 28.9657 25.1528 30.0297C25.4531 30.978 25.6788 31.2759 25.9849 31.7667C26.1035 31.9582 26.2207 32.159 26.2387 32.1786C26.3143 32.2534 26.5855 32.5019 26.6916 32.5218C27.0133 32.273 27.6277 31.9277 27.8011 32.2946C27.8913 32.4868 28.0438 32.3574 28.6475 32.702C29.0153 32.912 28.8676 33.2312 28.7862 33.5549C28.7927 33.5549 33.3675 32.7933 36.4142 33.64C37.9568 34.069 38.4599 35.3115 37.427 36.6692C35.9902 38.5604 28.29 39.4719 26.8691 39.3909C26.5373 39.3721 26.6871 39.4163 25.4447 39.3391C25.2422 39.3268 24.6639 39.2386 24.0869 39.2928C23.4923 39.3487 21.8242 39.9449 21.3908 39.9792C19.8305 40.099 17.9762 39.6806 14.0453 39.2331C10.6657 38.848 8.7303 38.8614 6.35902 37.877C3.54705 36.7101 3.57617 34.4857 4.94853 33.9942C5.75294 33.7059 9.31732 33.2611 10.8564 33.3627C11.7538 33.4217 11.7014 33.4461 11.8023 33.3946C12.4476 33.0637 12.9597 33.1471 13.3973 33.1564C13.8889 33.167 14.0561 32.9762 14.7107 32.6567C14.813 32.6042 14.866 32.6138 15.1427 32.6138ZM26.1687 12.7837C25.3754 12.1694 26.1957 12.8644 24.5391 10.9606C24.2236 10.5981 24.1754 10.6805 23.0502 9.72498C20.2701 7.3633 21.594 8.46606 20.8069 7.8795C20.3939 7.5706 20.4203 7.50539 20.3149 7.59188C17.8021 9.65118 15.8833 12.3681 15.0196 12.8476C14.9336 12.8949 14.7804 12.9986 14.7457 13.0964C14.8747 13.5168 14.996 13.938 15.2225 14.3539C17.117 17.8328 17.6208 19.6137 17.9824 19.2897C18.1558 19.135 18.3576 19.1868 18.6644 19.2554C18.9182 19.31 19.0947 18.9304 19.1152 18.6335C19.1426 18.2083 18.9377 17.561 18.792 17.1845C18.6828 16.9023 18.5927 17.0842 18.0403 16.1397C17.8833 16.1634 17.8274 16.1376 17.7685 16.0165C17.6808 15.8366 17.7453 15.7309 17.8184 15.515C17.5833 15.2439 17.384 14.4758 17.6898 14.2393C17.7002 14.1219 17.7092 14.01 17.721 13.8985C17.7369 13.7478 17.7948 13.8185 17.7557 13.6538C17.5476 12.8139 17.8912 11.6288 18.9345 10.9056C18.9734 10.8789 19.0094 10.8476 19.0448 10.8202C19.0143 10.6276 19.0753 10.4862 19.2407 10.3925C19.3759 10.3157 18.9321 10.0219 19.3364 9.59043C19.8218 9.07355 21.0846 8.8786 21.3294 9.61C21.5208 10.1818 21.3353 10.2031 21.4504 10.271C21.5503 10.3297 21.5371 10.4221 21.5257 10.5295C21.5149 10.6252 21.5139 10.6245 21.6425 10.6884C22.3783 11.0525 22.9535 11.8454 22.9684 12.8925C22.9767 13.4664 22.8415 13.5446 22.9105 13.7468C22.9954 13.9932 22.8848 14.0801 22.7749 14.2167C22.8196 14.2884 22.9965 14.3745 22.9452 14.6851C22.9192 14.8437 22.7891 15.2823 22.6504 15.3675C22.3249 15.5669 23.0076 15.7539 22.6102 16.1809C22.5284 16.2691 22.4577 16.2152 22.3571 16.1624C22.285 16.2629 22.3637 16.1304 22.1369 16.5581C21.4462 17.8596 21.4903 16.9699 21.5728 18.2515C21.594 18.5786 21.5451 18.6146 21.6952 18.8892C21.7902 19.0608 21.9757 19.0608 22.2056 19.0358C22.751 18.9767 22.5378 19.4964 23.2284 19.0193C24.1608 18.3696 26.1212 12.9632 26.1687 12.7837Z" fill="white"/>
<defs>
<filter id="filter0_ii_21_2278" x="0" y="-1.22033" width="42" height="38.6195" filterUnits="userSpaceOnUse" color-interpolation-filters="sRGB">
<feFlood flood-opacity="0" result="BackgroundImageFix"/>
<feBlend mode="normal" in="SourceGraphic" in2="BackgroundImageFix" result="shape"/>
<feColorMatrix in="SourceAlpha" type="matrix" values="0 0 0 0 0 0 0 0 0 0 0 0 0 0 0 0 0 0 127 0" result="hardAlpha"/>
<feOffset dy="1.22033"/>
<feGaussianBlur stdDeviation="3.05083"/>
<feComposite in2="hardAlpha" operator="arithmetic" k2="-1" k3="1"/>
<feColorMatrix type="matrix" values="0 0 0 0 0.262745 0 0 0 0 0 0 0 0 0 0.360784 0 0 0 0.2 0"/>
<feBlend mode="normal" in2="shape" result="effect1_innerShadow_21_2278"/>
<feColorMatrix in="SourceAlpha" type="matrix" values="0 0 0 0 0 0 0 0 0 0 0 0 0 0 0 0 0 0 127 0" result="hardAlpha"/>
<feOffset dy="-1.22033"/>
<feGaussianBlur stdDeviation="3.05083"/>
<feComposite in2="hardAlpha" operator="arithmetic" k2="-1" k3="1"/>
<feColorMatrix type="matrix" values="0 0 0 0 0.264527 0 0 0 0 0 0 0 0 0 0.3625 0 0 0 0.3 0"/>
<feBlend mode="normal" in2="effect1_innerShadow_21_2278" result="effect2_innerShadow_21_2278"/>
</filter>
</defs>
</svg>
