<svg width="30" height="30" viewBox="0 0 30 30" fill="none" xmlns="http://www.w3.org/2000/svg">
<rect width="30" height="30" rx="15" fill="#F96E00"/>
<path d="M15.0003 6.66663C17.2645 6.66663 17.547 6.67496 18.4353 6.71663C19.3228 6.75829 19.927 6.89746 20.4587 7.10413C21.0087 7.31579 21.472 7.60246 21.9353 8.06496C22.3591 8.48154 22.687 8.98545 22.8962 9.54163C23.102 10.0725 23.242 10.6775 23.2837 11.565C23.3228 12.4533 23.3337 12.7358 23.3337 15C23.3337 17.2641 23.3253 17.5466 23.2837 18.435C23.242 19.3225 23.102 19.9266 22.8962 20.4583C22.6876 21.0148 22.3596 21.5188 21.9353 21.935C21.5186 22.3586 21.0147 22.6864 20.4587 22.8958C19.9278 23.1016 19.3228 23.2416 18.4353 23.2833C17.547 23.3225 17.2645 23.3333 15.0003 23.3333C12.7362 23.3333 12.4537 23.325 11.5653 23.2833C10.6778 23.2416 10.0737 23.1016 9.54199 22.8958C8.9856 22.687 8.4816 22.3591 8.06533 21.935C7.6415 21.5184 7.3136 21.0145 7.10449 20.4583C6.89783 19.9275 6.75866 19.3225 6.71699 18.435C6.67783 17.5466 6.66699 17.2641 6.66699 15C6.66699 12.7358 6.67533 12.4533 6.71699 11.565C6.75866 10.6766 6.89783 10.0733 7.10449 9.54163C7.31302 8.98511 7.641 8.48106 8.06533 8.06496C8.48172 7.64099 8.98568 7.31307 9.54199 7.10413C10.0737 6.89746 10.677 6.75829 11.5653 6.71663C12.4537 6.67746 12.7362 6.66663 15.0003 6.66663ZM15.0003 10.8333C13.8953 10.8333 12.8354 11.2723 12.054 12.0537C11.2726 12.8351 10.8337 13.8949 10.8337 15C10.8337 16.105 11.2726 17.1648 12.054 17.9462C12.8354 18.7276 13.8953 19.1666 15.0003 19.1666C16.1054 19.1666 17.1652 18.7276 17.9466 17.9462C18.728 17.1648 19.167 16.105 19.167 15C19.167 13.8949 18.728 12.8351 17.9466 12.0537C17.1652 11.2723 16.1054 10.8333 15.0003 10.8333ZM20.417 10.625C20.417 10.3487 20.3072 10.0837 20.1119 9.88839C19.9165 9.69304 19.6516 9.58329 19.3753 9.58329C19.0991 9.58329 18.8341 9.69304 18.6388 9.88839C18.4434 10.0837 18.3337 10.3487 18.3337 10.625C18.3337 10.9012 18.4434 11.1662 18.6388 11.3615C18.8341 11.5569 19.0991 11.6666 19.3753 11.6666C19.6516 11.6666 19.9165 11.5569 20.1119 11.3615C20.3072 11.1662 20.417 10.9012 20.417 10.625ZM15.0003 12.5C15.6634 12.5 16.2993 12.7634 16.7681 13.2322C17.2369 13.701 17.5003 14.3369 17.5003 15C17.5003 15.663 17.2369 16.2989 16.7681 16.7677C16.2993 17.2366 15.6634 17.5 15.0003 17.5C14.3373 17.5 13.7014 17.2366 13.2326 16.7677C12.7637 16.2989 12.5003 15.663 12.5003 15C12.5003 14.3369 12.7637 13.701 13.2326 13.2322C13.7014 12.7634 14.3373 12.5 15.0003 12.5Z" fill="white"/>
</svg>
