<svg width="60" height="60" viewBox="0 0 60 60" fill="none" xmlns="http://www.w3.org/2000/svg">
<rect width="60" height="60" rx="12" fill="#FA882D"/>
<path fill-rule="evenodd" clip-rule="evenodd" d="M21.6777 10.657C21.6008 11.9422 21.4871 12.5538 21.3499 12.4214C21.2714 12.3456 21.1854 11.6108 21.1834 10.9971C21.1814 10.3895 21.155 10.2796 21.0109 10.2796C20.9177 10.2796 20.9125 10.3803 20.938 11.7037C20.9624 12.9646 20.9545 13.144 20.8694 13.2693C20.7351 13.4669 20.5024 13.4531 19.9941 13.2172C19.5313 13.0024 19.1699 12.928 19.0373 13.0199C18.9628 13.0717 18.9698 13.0939 19.0871 13.1757C19.1622 13.2281 19.3839 13.3355 19.5797 13.4142C19.921 13.5514 19.9455 13.575 20.1755 13.9863C20.3445 14.2884 20.5459 14.5356 20.8565 14.822C21.2136 15.1512 21.2976 15.2605 21.2978 15.3961C21.2979 15.4882 21.3242 15.9033 21.3563 16.3185C21.3884 16.7336 21.4391 17.715 21.469 18.4992C21.4995 19.3001 21.5636 20.1456 21.6152 20.4283C21.6657 20.705 21.7736 21.2811 21.8549 21.7083C21.99 22.4183 22.0009 22.5867 21.9808 23.6654L21.9588 24.8456L21.7445 25.3798C21.2977 26.4929 21.2197 26.8045 21.2203 27.4736C21.2208 28.0036 21.2506 28.197 21.4355 28.8715C21.7148 29.8905 21.7509 30.2641 21.5932 30.5051C21.4753 30.6852 21.1477 30.9181 20.9096 30.9909C20.8285 31.0157 20.7003 30.9893 20.5553 30.918C20.3197 30.802 19.5011 30.5769 19.3147 30.5769C19.254 30.5769 19.1842 30.5158 19.1522 30.4346C18.9736 29.9815 17.6517 29.9525 17.505 30.3985C17.4802 30.4738 17.395 30.5187 17.2276 30.5445C16.8179 30.6077 16.2518 30.9071 15.9 31.2465C15.4812 31.6505 15.2637 32.0609 15.2256 32.5189C15.2069 32.7425 15.1707 32.8695 15.1256 32.8695C15.0057 32.8695 14.5231 33.3146 14.3703 33.5661C14.2907 33.6971 14.1705 34.0145 14.1031 34.2714C13.9993 34.6677 13.9854 34.8448 14.0113 35.4395C14.0606 36.5657 14.3607 37.4145 15.0566 38.3947C15.4496 38.9483 15.4565 38.9917 15.4328 40.7256C15.413 42.1685 15.4459 42.3685 15.758 42.697C15.9341 42.8824 15.9777 42.8993 16.3195 42.9143C16.6054 42.927 16.6474 42.92 16.5032 42.8839C16.1876 42.805 16.0324 42.673 15.9884 42.446C15.9077 42.0312 16.1734 41.2817 16.7177 40.3889C17.094 39.7718 17.1434 39.6009 17.1114 39.0276C17.0709 38.3021 16.8422 37.7489 15.8251 35.9174C15.1203 34.6481 14.9397 33.8928 15.2362 33.4561L15.3385 33.3056L15.6162 33.6062C16.0986 34.1284 16.7806 34.388 17.7044 34.401C18.0922 34.4064 18.2334 34.4316 18.3684 34.5194C18.6093 34.676 18.991 34.6584 19.3665 34.4734C19.6706 34.3234 19.8486 34.1449 19.8488 33.9893C19.8489 33.9423 19.9941 33.8307 20.1714 33.7413C20.3489 33.6519 20.6188 33.4704 20.7715 33.338C21.0505 33.0959 21.352 32.9856 21.7422 32.9827C22.2963 32.9786 22.6132 33.7996 22.5089 34.9692C22.4339 35.8105 22.4966 36.1642 22.889 37.1136C23.1908 37.8437 23.2207 37.9569 23.2718 38.5608C23.3024 38.9211 23.3293 39.6311 23.3318 40.1385C23.3365 41.1293 23.2521 41.6389 22.8641 42.9622C22.6559 43.6721 22.5921 43.9911 22.508 44.7398L22.4402 45.3431L22.1868 45.5582C21.8086 45.8795 21.0422 46.3569 20.0593 46.8835C19.0726 47.4122 18.875 47.4817 18.0888 47.5772C17.7834 47.6143 17.4873 47.6791 17.4306 47.7211C17.3336 47.7931 17.336 47.804 17.4725 47.9086C17.5522 47.9697 17.8391 48.0997 18.11 48.1976C18.8498 48.4648 19.3615 48.4575 20.2833 48.1665C21.0647 47.9199 21.2753 47.9064 22.0788 48.0518C23.2606 48.2657 23.6385 47.9825 23.5735 46.9314C23.5445 46.4622 23.5547 46.3895 23.6897 46.1051C23.8891 45.6848 24.2443 45.37 25.2068 44.7605C25.6517 44.4788 26.3334 44.0457 26.7218 43.7981L27.4279 43.3478L27.6424 43.4195C27.8715 43.496 29.1257 43.7353 29.1461 43.7064C29.1528 43.6969 29.3113 43.4254 29.4985 43.103C29.6855 42.7806 30.0458 42.1893 30.299 41.789C30.5522 41.3887 30.811 40.973 30.8742 40.8654C30.9373 40.7578 31.1861 40.3803 31.4268 40.0267C31.6677 39.673 31.9414 39.2583 32.0352 39.1052C32.2851 38.6971 33.8132 36.5801 34.407 35.8196C34.9363 35.1417 35.5605 34.4082 36.0571 33.8807L36.3422 33.5779L36.9806 34.4957C39.2025 37.69 40.8709 40.893 41.5276 43.2248L41.6645 43.7109L42.0573 43.8038C42.2733 43.8549 42.5572 43.8868 42.6881 43.8748L42.9262 43.8529L43.3815 44.7299C44.0124 45.9457 44.0944 46.1969 44.0548 46.7925C44.0374 47.0539 43.9301 47.6559 43.8165 48.1302C43.703 48.6046 43.61 49.0776 43.61 49.1814C43.61 49.6141 44.0145 49.9994 44.4694 50C45.0138 50.0007 45.7878 49.5687 45.9617 49.1671C46.0672 48.9233 45.9654 48.5288 45.5242 47.4721C45.0728 46.3907 45.0231 46.1837 44.9186 44.9472C44.7688 43.174 44.7416 42.9483 44.8331 42.7844C44.8537 42.7476 44.8803 42.7139 44.9128 42.6665C45.0583 42.4543 45.0647 42.4215 44.9988 42.2245C44.9596 42.1075 44.4857 41.1591 43.9458 40.1171C43.4058 39.0751 42.8507 37.9554 42.7123 37.6288C42.574 37.3023 42.17 36.1419 41.8146 35.0502C41.0327 32.6478 40.2064 30.2488 39.9691 29.6926C39.6983 29.058 39.4477 28.6938 38.9447 28.2037C37.9988 27.2824 36.6086 26.5607 35.591 26.4626C34.9839 26.4041 34.4001 26.5723 32.6566 27.308C30.2341 28.3302 29.6554 28.4251 27.7465 28.1135C26.4827 27.9071 24.6111 27.3749 24.2546 27.1206C23.8489 26.8312 23.7899 26.416 23.7316 23.4477C23.6787 20.7506 23.6075 19.5176 23.4674 18.8746C23.3779 18.4637 22.7107 16.2107 22.5468 15.7662C22.424 15.4331 22.4312 15.3579 22.6218 14.9888C22.8223 14.6005 22.8913 14.3345 22.9792 13.6095C23.0428 13.0851 23.0698 13.0104 23.4502 12.3048C23.7706 11.7109 23.8398 11.5403 23.7861 11.4778C23.691 11.3672 23.6563 11.4007 23.3482 11.9004C23.1979 12.1444 22.9977 12.4253 22.9036 12.5248C22.7375 12.7003 22.7298 12.7025 22.6477 12.5969C22.5541 12.4768 22.5749 12.0233 22.7149 11.1251C22.7899 10.6436 22.7673 10.5179 22.6158 10.5741C22.5638 10.5933 22.4992 10.8182 22.4331 11.21C22.3206 11.8757 22.1734 12.3581 22.0734 12.3888C21.9716 12.42 21.9363 12.0623 21.9357 10.9925C21.9351 10.0586 21.9286 10 21.826 10C21.7278 10 21.7132 10.0647 21.6777 10.657ZM30.8518 33.7781C30.4749 34.6127 28.945 37.5833 28.4545 38.4331C28.0548 39.1253 27.5042 39.95 27.3066 40.152C27.2688 40.1907 26.8727 40.6587 26.4265 41.1921C25.9802 41.7255 25.5108 42.2812 25.3833 42.4272L25.1645 42.6779C24.9995 42.8672 24.782 43.1168 24.5836 43.3446C24.2714 43.7032 24.0037 43.9967 23.9888 43.9967C23.9739 43.9967 24.0381 43.8507 24.1315 43.6723C24.377 43.2029 24.4745 42.8255 24.5458 42.0676C24.5805 41.6985 24.6462 41.0947 24.6918 40.7256C24.7676 40.1128 24.8476 39.3044 25.0037 37.5753C25.0351 37.2266 25.0789 36.4752 25.1009 35.9056L25.1409 34.87L25.4939 34.9182C25.6881 34.9446 26.1208 34.9663 26.4554 34.9663C27.0153 34.9663 27.0876 34.9537 27.3603 34.8078C27.5233 34.7206 27.8754 34.4622 28.1427 34.2334C28.9225 33.5661 29.6854 33.2805 30.7263 33.2659L31.0853 33.2609L30.8518 33.7781Z" fill="white"/>
</svg>
