<svg width="60" height="60" viewBox="0 0 60 60" fill="none" xmlns="http://www.w3.org/2000/svg">
<rect width="60" height="60" rx="12" fill="#B02EFF"/>
<path fill-rule="evenodd" clip-rule="evenodd" d="M27.4636 14.9381C27.8425 14.1467 28.4396 13.49 29.0374 13.2068C30.2642 12.6257 31.6781 13.3016 32.428 14.8276C32.7916 15.5672 32.9038 16.0437 33.1734 17.9913C33.645 21.3984 34.1683 23.1173 35.079 24.2504C35.2613 24.4771 35.3978 24.5537 35.7625 24.6336C36.7277 24.845 37.5854 25.2927 37.839 25.7176C37.994 25.9773 38.1865 26.7194 38.4732 28.162C38.6586 29.0944 38.7768 29.3899 40.1988 32.4731C40.67 33.4947 41.0689 34.3673 41.0853 34.4123C41.1035 34.4619 41.2105 34.4403 41.3585 34.3572C41.8652 34.0725 42.5031 33.9682 43.1342 34.0669C43.4536 34.1168 43.8076 34.1349 43.9211 34.1071C44.0432 34.0771 44.2676 33.8718 44.4726 33.6024C44.7423 33.2479 44.8189 33.0782 44.8219 32.8279C44.8277 32.3569 45.0943 31.904 45.4137 31.8231C45.5802 31.7809 45.7011 31.6865 45.7499 31.5609C45.8624 31.2713 46.6299 30.1803 46.7211 30.1803C46.871 30.1803 46.7952 30.539 46.5554 30.9647C46.2728 31.4665 46.2533 31.6501 46.4767 31.7073C46.5685 31.7308 46.7061 31.8953 46.7932 32.0858L46.9474 32.4227L47.1178 32.1524C47.3884 31.7229 47.3895 31.596 47.1275 30.9557C46.9916 30.6236 46.8819 30.2687 46.8837 30.1671C46.8867 29.9984 46.9129 30.0107 47.187 30.31C47.352 30.49 47.6024 30.8462 47.7435 31.1015L48 31.5654L47.7802 32.3965C47.6593 32.8536 47.5256 33.2863 47.4832 33.3581C47.4045 33.4913 45.794 34.8444 45.4566 35.0607C45.3542 35.1264 44.7731 35.3876 44.1654 35.6412L43.0605 36.1021L43.0388 37.9765L42.6539 38.8076C41.9937 40.2337 41.3439 41.2126 40.572 41.9441C39.1419 43.2994 35.83 45.9001 35.1688 46.187C34.6788 46.3997 33.457 46.6924 32.3847 46.854C30.0539 47.2054 26.446 46.8963 24.8413 46.2077C24.3461 45.9951 23.2158 45.176 21.5964 43.856C18.8857 41.6465 18.5393 41.2573 17.5405 39.2971L16.9153 38.07L16.9003 36.0907L15.7447 35.6316C15.1091 35.3791 14.5302 35.1238 14.4582 35.0644C14.4262 35.038 14.3132 34.9453 14.1521 34.8133C13.9509 34.6483 13.6746 34.4219 13.3875 34.1869L12.4477 33.4174L12.2777 32.8476C11.9472 31.74 11.9345 31.6121 12.12 31.255C12.3654 30.7826 12.9057 30.022 12.9958 30.022C13.0386 30.022 13.0737 30.0743 13.0737 30.1383C13.0737 30.2038 13.1217 30.2364 13.1838 30.2131C13.2946 30.1715 14.206 31.4472 14.206 31.6438C14.206 31.6958 14.3474 31.7797 14.5202 31.8304C14.7957 31.9112 14.8565 31.9755 15.0121 32.3506C15.1507 32.6848 15.1704 32.8138 15.102 32.9389C15.039 33.0542 15.039 33.1142 15.1021 33.1524C15.1503 33.1816 15.3148 33.3966 15.4675 33.6301C15.8085 34.1519 16.0441 34.2342 16.7717 34.0856C17.3501 33.9675 17.9307 34.0415 18.4324 34.2974C18.8093 34.4897 18.8665 34.4919 18.9205 34.3159C18.9645 34.1721 19.8243 32.2675 20.2515 31.3676C21.0757 29.6309 21.2679 29.0982 21.5358 27.8095C21.9309 25.9091 21.9944 25.7286 22.3836 25.4026C22.7511 25.0948 23.4618 24.7911 24.1801 24.6352C24.6246 24.5387 24.6714 24.5053 25.0076 24.0442C25.7999 22.9576 26.3393 21.1948 26.7023 18.5058C27.0171 16.1746 27.134 15.6263 27.4636 14.9381ZM38.6197 35.1038C37.8834 33.8935 37.0348 32.2659 36.524 31.0841C36.3374 30.6523 36.1198 30.1032 36.0403 29.8637C36.0247 29.8165 36.0111 29.7725 35.999 29.733C35.9626 29.6146 35.9388 29.5369 35.9063 29.5333C35.8443 29.5265 35.7509 29.7911 35.4791 30.562C35.4318 30.696 35.3791 30.8454 35.3203 31.0114C35.0887 31.6644 34.8279 32.3895 34.7409 32.623C34.455 33.3894 34.0195 35.1163 33.9688 35.685C33.9103 36.3406 34.0717 37.0047 34.4103 37.5016C34.6953 37.9201 35.2585 38.5701 35.3361 38.5701C35.3699 38.5701 35.6974 38.3862 36.0639 38.1614C36.9173 37.6379 38.5818 36.6719 38.9747 36.4722C39.1415 36.3874 39.278 36.2883 39.278 36.2519C39.278 36.2155 38.9817 35.6989 38.6197 35.1038ZM24.7897 31.4863C25.4732 33.4702 25.8794 34.8983 25.9739 35.6495C26.0396 36.1718 25.8685 36.9303 25.5743 37.4205C25.3251 37.8358 24.7126 38.5701 24.6155 38.5701C24.5737 38.5701 24.0251 38.2558 23.3964 37.8716C22.7676 37.4873 21.9985 37.0374 21.6871 36.8717C21.3757 36.706 21.0055 36.5028 20.8643 36.42L20.6078 36.2695L21.1959 35.3025C22.3641 33.3821 23.2402 31.6321 23.754 30.1922C23.8978 29.7891 24.0425 29.4879 24.0754 29.523C24.1083 29.5581 24.4298 30.4415 24.7897 31.4863Z" fill="white"/>
</svg>
