<svg width="60" height="60" viewBox="0 0 60 60" fill="none" xmlns="http://www.w3.org/2000/svg">
<rect width="60" height="60" rx="12" fill="#00DA64"/>
<path d="M30.9013 11.073C30.9617 10.7922 31.5077 10.1623 31.7835 10.0552C31.986 9.97658 32.0126 9.97817 32.2756 10.0844C32.7443 10.2738 32.7833 10.3921 33.1294 12.6739C33.1771 12.9882 33.2436 13.2452 33.2775 13.2452C33.3112 13.2452 33.4678 13.0786 33.6254 12.8748C33.9034 12.5157 34.3581 12.2241 34.5051 12.3107C34.6232 12.3804 34.5928 12.4418 34.2196 12.8855C33.9401 13.218 33.8451 13.3973 33.7828 13.7107C33.7389 13.9308 33.6341 14.2668 33.5499 14.4573C33.0501 15.5877 33.0469 15.63 33.3379 17.275C33.5399 18.4168 34.0462 20.7725 34.1112 20.8728C34.128 20.8989 34.3165 20.9726 34.53 21.0367C35.9682 21.4685 36.8439 23.2598 36.3214 24.7011C36.2397 24.9261 36.173 25.1445 36.173 25.1865C36.173 25.2285 36.3771 25.3335 36.6264 25.42C37.4962 25.7212 38.0712 26.2853 38.3343 27.0956C38.5507 27.7622 38.4985 29.0125 38.1821 30.743C37.9029 32.2697 37.8612 32.8335 37.9941 33.2902C38.0931 33.6307 38.4119 33.9409 38.7258 34.0022C38.9593 34.0478 38.961 34.0506 38.7849 34.0983C38.0253 34.3045 37.3182 33.9866 36.9405 33.2692C36.5409 32.5099 36.4049 31.5755 36.315 28.9723C36.2763 27.8515 36.2149 26.7607 36.1786 26.5482C36.1123 26.1606 35.9874 25.7811 35.9261 25.7811C35.908 25.7811 35.773 25.9701 35.626 26.2011L35.3588 26.621L35.6188 27.7074C36.0113 29.3472 36.0532 29.6207 36.0552 30.5599C36.0567 31.2845 36.0238 31.5498 35.8538 32.1875C35.647 32.9622 35.2333 34.1242 34.7193 35.3734C34.2059 36.6211 34.1752 37.1915 34.5422 38.6632C34.824 39.7933 35.0705 40.2322 36.0586 41.3639C37.808 43.3675 38.2355 44.2352 37.9968 45.2978C37.8342 46.0217 37.5535 46.4141 36.7025 47.1074C36.2634 47.4651 36.2553 47.478 36.3653 47.6385C36.5679 47.9335 36.9304 48.0833 37.7673 48.2176C38.6613 48.3611 38.7679 48.4162 39.441 49.0832C39.886 49.5241 40.0489 49.7762 39.9876 49.9289C39.9404 50.0463 39.7865 50.0272 38.9828 49.8046C38.6574 49.7145 37.8978 49.6238 36.7337 49.5361C35.7669 49.4632 34.7473 49.3835 34.468 49.3589C33.9452 49.3129 31.9891 49.4312 28.9902 49.6902C26.0581 49.9435 23.6881 49.8674 22.4242 49.4796C22.1847 49.4061 21.7276 49.2913 21.4084 49.2244C20.7236 49.0811 20.4908 48.9792 20.3374 48.7558C19.9978 48.2611 19.8891 47.1661 20.1294 46.6611C20.3044 46.2931 20.9092 45.7826 21.467 45.5318C22.2222 45.1923 22.9674 44.9531 28.0833 43.4075C29.1945 43.0718 29.6493 42.9026 29.7633 42.7828C29.9749 42.5604 30.0785 42.0484 30.0785 41.2248C30.0785 40.3974 30.0141 40.1947 29.3506 38.9342C28.7513 37.7957 28.6497 37.4436 28.5659 36.2156L28.5012 35.2651L28.1289 34.534C27.7223 33.7358 27.6321 33.3967 27.749 33.1057C27.8585 32.8333 28.34 32.3568 29.0581 31.8102C29.9155 31.1575 30.8646 30.0861 31.2833 29.2984C31.4903 28.9089 31.627 28.0919 31.562 27.6315L31.5154 27.3004L30.5875 27.3471L29.6596 27.3939L29.6027 27.2282C29.5714 27.1369 29.5517 26.979 29.559 26.877C29.5662 26.7751 29.501 26.5767 29.4142 26.4361C29.2849 26.227 29.2718 26.1565 29.3422 26.049C29.4129 25.9408 29.4005 25.8816 29.2722 25.716L29.1162 25.5145L29.2709 25.3268C29.4662 25.0897 29.4646 25.0589 29.2442 24.783C29.1444 24.6581 29.0628 24.5122 29.0628 24.4586C29.0629 24.4051 29.2339 24.2696 29.4427 24.1576C30.0684 23.8222 30.1511 23.7099 30.1511 23.1963C30.1511 22.6838 30.1881 22.6234 30.9725 21.8549L31.4808 21.3571L31.4329 18.6534L31.3849 15.9497L31.1126 15.2035L30.8403 14.4573L30.8421 12.899C30.843 12.0419 30.8697 11.2202 30.9013 11.073Z" fill="white"/>
</svg>
