<svg width="60" height="60" viewBox="0 0 60 60" fill="none" xmlns="http://www.w3.org/2000/svg">
<rect width="60" height="60" rx="12" fill="#2E82FF"/>
<path fill-rule="evenodd" clip-rule="evenodd" d="M29.2922 15.1775C27.9885 15.4033 27.1467 15.5744 25.9542 15.8559C24.926 16.0986 24.2667 16.3952 23.0416 17.1663C21.6559 18.0383 21.7755 17.9037 20.1495 20.4195C18.8608 22.4132 18.9298 22.3214 17.9881 23.2927C17.554 23.7404 17.0229 24.3478 16.8081 24.6424C15.5042 26.4298 15.3338 27.3288 15.3206 32.4908C15.3126 35.5988 15.307 35.6653 14.8768 37.8052C14.7665 38.3545 14.6761 38.8724 14.6761 38.9561C14.6761 39.1583 14.4854 39.1867 13.1205 39.1881C11.7909 39.1894 11.4829 39.2383 10.6813 39.575C10.1504 39.798 9.94022 39.8515 9.44489 39.8896C8.38067 39.9714 8 40.3414 8 41.2944C8 42.1273 8.36543 43.2033 8.74863 43.4987C9.01354 43.7029 9.54989 43.8739 10.3803 44.0189C10.8001 44.0922 11.7999 44.2921 12.602 44.4632C13.4041 44.6342 14.3476 44.8071 14.6987 44.8473C15.5025 44.9394 23.3965 44.8848 24.1717 44.7818C25.2549 44.638 25.6851 44.481 26.2077 44.0393C26.566 43.7365 26.9453 43.1676 27.0565 42.7663C27.1032 42.5976 27.1467 42.4522 27.153 42.4435C27.1593 42.4347 27.5994 42.47 28.1311 42.5221C28.6628 42.5742 30.0436 42.7032 31.1995 42.8087L33.3012 43.0005L34.363 43.3528C35.0199 43.5707 35.6148 43.7261 35.9234 43.7602C36.6398 43.8394 38.6733 43.7242 40.0842 43.5243C41.4798 43.3266 43.2325 43.283 43.6715 43.435C43.8365 43.4922 44.1654 43.7579 44.6438 44.2203C45.0414 44.6046 45.433 44.944 45.5141 44.9745C45.7388 45.0589 46.2534 44.9239 46.5165 44.7114C46.6443 44.6082 46.9118 44.3116 47.1111 44.052C47.4005 43.6752 47.5485 43.5442 47.846 43.401C48.2078 43.2269 48.2448 43.2222 49.1164 43.2397L50.0141 43.2576L50.5099 42.9956C51.2127 42.6243 51.7991 42.1993 51.917 41.9758C51.9726 41.8706 52.009 41.6934 51.9981 41.5821C51.9688 41.2861 51.7849 41.2931 50.7321 41.6302C50.2352 41.7894 49.7102 41.9196 49.5656 41.9196C49.4209 41.9196 48.7962 41.8499 48.1773 41.7648C47.2676 41.6396 46.6048 41.5988 44.7186 41.5522L42.3852 41.4945L41.471 41.0085C40.4899 40.4869 40.4268 40.4683 38.9499 40.2651C38.1094 40.1494 38.017 40.1231 37.6971 39.9072C37.2252 39.5888 35.8941 38.4949 34.3943 37.1929C33.2128 36.1672 32.637 35.7412 31.201 34.8302C30.8642 34.6165 30.1348 34.0697 29.5802 33.6151C28.6469 32.85 28.5337 32.7332 28.0592 32.0468C27.1809 30.776 26.7963 30.3506 25.9989 29.7677C25.6 29.4761 25.1525 29.1593 25.0046 29.0639C24.6617 28.8427 24.5905 28.6448 24.8537 28.6448C25.068 28.6448 25.1876 28.5438 25.3065 28.2625C25.3867 28.0728 25.4069 28.0629 25.6245 28.1058C25.7524 28.131 25.9445 28.1554 26.0514 28.16L26.2459 28.1684L26.2785 27.5512C26.3156 26.8475 26.33 26.8237 26.903 26.5217C27.3662 26.2775 27.4895 26.1137 27.5963 25.6005C27.6809 25.194 27.6815 25.1933 27.7899 25.3451C27.9252 25.5344 27.9271 25.655 27.7978 25.8359C27.7101 25.9587 27.7094 25.9771 27.7931 25.9771C27.9484 25.9771 28.148 25.673 28.1951 25.3644C28.2237 25.178 28.2022 24.9324 28.1336 24.6597C28.0756 24.4295 28.0369 24.2326 28.0476 24.2221C28.0583 24.2116 28.1447 24.3203 28.2395 24.4637C28.454 24.7878 28.5199 25.1925 28.4334 25.654C28.3967 25.8491 28.3777 26.0204 28.3912 26.0346C28.4046 26.0487 28.4795 25.9201 28.5575 25.7488C28.7537 25.318 28.7939 24.5366 28.6459 24.0341C28.46 23.4029 28.1629 22.9314 27.6079 22.3868C26.6655 21.462 25.4832 21.0461 24.2354 21.2005L23.6369 21.2747L23.3141 20.9582C23.0896 20.7383 22.9389 20.6418 22.8198 20.6418C22.7256 20.6418 22.6485 20.6227 22.6485 20.5995C22.6485 20.5321 23.2241 19.6417 23.6374 19.0698C23.8456 18.7816 24.0978 18.5044 24.1977 18.4537C24.2977 18.4031 24.9088 18.2178 25.5556 18.042C26.5149 17.7813 26.9498 17.6215 27.9148 17.1753C29.7798 16.3128 30.3264 16.1254 30.7057 16.2187C30.7913 16.2398 31.0341 16.4075 31.2452 16.5915C31.7932 17.0691 33.2136 17.706 33.2136 17.4741C33.2136 17.4349 33.1082 17.2884 32.9793 17.1486C32.5587 16.6925 32.8351 16.8328 33.9335 17.6329C34.6814 18.1778 34.8989 18.3023 34.8989 18.1857C34.8989 18.0425 33.9783 16.6243 33.675 16.3002C33.3483 15.9512 32.2954 15.3691 31.5395 15.1196C31.0143 14.9462 30.5597 14.9579 29.2922 15.1775ZM21.0702 23.9837C21.0754 24.1447 21.1323 24.3904 21.1964 24.5298C21.3013 24.7577 21.3033 24.8003 21.217 24.9515C21.1642 25.0439 21.0526 25.1293 20.9689 25.1411C20.7264 25.1751 20.38 25.09 20.38 24.9963C20.38 24.8799 20.7306 24.0432 20.8611 23.8478C21.0124 23.6216 21.0592 23.6521 21.0702 23.9837ZM25.4946 32.4039C25.6939 32.5501 26.7611 33.5435 27.8663 34.6115C30.6372 37.2894 31.2571 37.7512 33.788 39.0239C35.5173 39.8935 36.8434 40.6313 36.8434 40.7239C36.8434 40.7527 36.54 40.7763 36.1692 40.7763C34.769 40.7763 33.3336 40.4063 31.1071 39.4715C29.4719 38.7849 29.3108 38.7324 26.8292 38.0785C26.0806 37.8812 25.1997 37.6339 24.8717 37.5289L24.2753 37.3381L24.0342 36.9135C23.6272 36.197 23.5004 36.0401 22.9793 35.6092C22.326 35.069 22.0949 34.7462 22.1088 34.3936C22.1274 33.9216 22.8251 32.5402 23.1273 32.3769C23.3699 32.2458 23.9623 32.149 24.5547 32.1435L25.1322 32.1382L25.4946 32.4039ZM22.5189 41.8217C24.2069 42.013 24.2106 42.0135 24.0745 42.0605C24.021 42.079 23.5196 42.2587 22.9602 42.4598C21.9791 42.8126 21.9251 42.8246 21.437 42.7968C20.9063 42.7666 20.9481 42.7814 19.1987 42.0056C18.6233 41.7504 18.5283 41.6894 18.6477 41.6514C18.9243 41.5632 21.0713 41.6577 22.5189 41.8217Z" fill="white"/>
</svg>
