<svg width="160" height="167" viewBox="0 0 160 167" fill="none" xmlns="http://www.w3.org/2000/svg">
<path d="M159.788 140.325C141.454 136.245 122.415 132.034 105.35 123.743C86.2407 114.465 72.4196 100.91 66.4962 85.6445C61.8422 73.6688 61.8422 60.7718 61.7717 48.3355L61.7717 25.1737L62.7589 25.1737L62.7589 48.3355C62.7589 60.706 62.8294 73.5372 67.3424 85.3813C73.1952 100.45 86.8047 113.807 105.773 122.953C122.768 131.179 141.666 135.39 160 139.469L159.788 140.325Z" fill="#F96E00"/>
<path d="M69.6694 92.1588C62.6179 88.4739 54.6496 84.3285 49.502 78.3406C46.6813 75.0506 44.5659 71.2342 42.5209 67.4835C41.4632 65.5753 40.4054 63.6671 39.2067 61.7589C34.9757 55.0472 30.0397 50.9675 24.61 49.7173L24.8215 48.8619C30.6038 50.1779 35.7514 54.3234 40.0528 61.2325C41.2516 63.1407 42.3094 65.0489 43.3671 66.9571C45.3415 70.642 47.3865 74.3926 50.2777 77.6168C55.3548 83.4073 63.182 87.5527 70.1631 91.1717L69.6694 92.1588Z" fill="#F96E00"/>
<path d="M45.6941 72.9449C38.149 68.1415 32.0141 66.3649 26.3729 67.4177L26.1613 66.5623C33.8475 65.1805 41.2516 69.1944 46.1877 72.2212L45.6941 72.9449Z" fill="#F96E00"/>
<path d="M63.323 67.1545L62.5474 67.6151C60.5024 64.5225 59.4447 60.9034 58.387 57.416C57.3997 54.126 56.342 50.6385 54.4381 47.6775C53.5213 46.1641 52.3931 44.8481 51.2649 43.5321C50.4187 42.4793 49.502 41.4923 48.7263 40.3736C46.3993 37.1494 44.8479 33.333 44.1428 29.5165L45.13 29.3849C45.7647 33.1355 47.2455 36.7546 49.502 39.913C50.2776 41.0316 51.1944 42.0186 51.97 43.0056C53.0983 44.3217 54.2971 45.7035 55.2843 47.2827C57.2587 50.3095 58.2459 53.8628 59.3036 57.2186C60.2909 60.6402 61.3486 64.1277 63.323 67.1545Z" fill="#F96E00"/>
<path d="M66.0027 81.7622L65.086 81.5648C66.1437 75.9718 67.4835 69.4576 70.3041 63.5355C73.3363 57.1528 77.7083 52.152 82.9264 49.1251C86.3112 47.1511 90.2601 45.9667 93.9974 44.7165C99.3566 43.0057 104.504 41.3607 108.312 37.8074C108.383 37.7416 108.524 37.61 108.594 37.5442L109.229 38.1364C105.209 42.0187 99.6386 43.7953 94.2794 45.5061C90.4716 46.6905 86.6637 47.8749 83.3495 49.7831C76.9326 53.5338 73.1247 59.4558 71.1503 63.7987C68.4002 69.7865 67.0604 76.1692 66.0027 81.7622Z" fill="#F96E00"/>
<path d="M83.7021 49.4541L82.7853 49.1251C82.9969 48.6645 83.2085 48.2039 83.3495 47.8091C84.1957 45.8351 84.9714 43.7953 86.3112 42.0187C87.933 39.9788 89.978 38.4654 92.0934 36.8862C92.587 36.5572 93.1512 36.1624 93.5743 35.7676C95.7603 34.1226 98.4398 31.8854 99.2155 28.9243L100.132 29.1217C99.2155 32.346 96.4654 34.7806 94.1384 36.4256C93.6448 36.7546 93.0807 37.1494 92.6576 37.5442C90.6832 38.9918 88.4971 40.5052 87.0868 42.4792C85.8175 44.1901 84.9714 46.1641 84.1957 48.0723C84.1252 48.5329 83.9136 48.9935 83.7021 49.4541Z" fill="#F96E00"/>
<path d="M98.0167 59.39C89.3433 56.429 78.2724 58.3372 71.0093 64.0619L70.4451 63.4039C77.9903 57.416 89.4844 55.5078 98.3693 58.5346L98.0167 59.39Z" fill="#F96E00"/>
<path d="M118.325 129.139C104.927 131.902 92.0934 132.297 80.2468 130.192C66.9193 127.889 54.8612 122.164 46.4698 114.07L47.1045 113.478C55.4958 121.44 67.2719 127.033 80.4583 129.336C92.0934 131.376 104.786 130.981 118.114 128.283L118.325 129.139Z" fill="#F96E00"/>
<path d="M65.7911 126.178C58.9511 121.111 54.3675 113.544 53.1688 105.45L54.0855 105.385C55.2137 113.281 59.6562 120.585 66.3552 125.52L65.7911 126.178Z" fill="#F96E00"/>
<path d="M56.201 121.308C52.2521 120.914 48.1622 122.361 45.5531 125.191L44.8479 124.664C47.6686 121.637 52.0405 120.058 56.2715 120.453L56.201 121.308Z" fill="#F96E00"/>
<path d="M68.8938 141.18L67.9771 140.983C69.1758 135.653 73.4773 131.113 78.907 129.205L79.2596 130.06C74.1119 131.837 70.022 136.179 68.8938 141.18Z" fill="#F96E00"/>
<path d="M125.87 61.6931L123.332 61.0351C122.768 60.9035 122.133 61.1008 121.498 61.4298L121.075 61.5615C120.088 61.9563 118.678 62.0879 117.973 61.1666C117.902 61.1008 117.832 61.035 117.832 60.9034C117.761 60.8376 117.691 60.7719 117.691 60.7719C117.691 60.7719 117.62 60.706 117.126 60.9034L109.652 64.3251C108.665 64.7199 107.466 65.3121 106.197 65.1805C105.703 65.1147 105.28 64.9831 104.857 64.8515C104.645 64.7857 104.434 64.7199 104.222 64.6541C103.658 64.5225 103.164 64.4567 102.671 64.3909C101.684 64.2593 100.555 64.1277 99.7091 63.6013C98.6514 62.8775 98.2283 61.8246 98.0873 61.035C97.8757 60.048 98.0873 59.061 98.2988 58.6004C98.2283 56.9554 99.0745 55.2446 100.485 54.3234C101.825 53.468 103.446 53.139 104.927 52.9416C107.113 52.6126 109.511 52.2178 111.767 52.8758C113.389 53.3364 114.799 54.2576 115.928 55.0472L125.87 61.6931ZM100.414 55.442C99.4976 56.2974 99.004 57.5476 99.145 58.732L99.145 58.8636L99.0039 58.9953C98.8629 59.1269 98.6514 59.9822 98.8629 60.9693C98.9334 61.5615 99.286 62.4168 100.132 62.9433C100.908 63.4039 101.754 63.5355 102.671 63.6013C103.305 63.6671 103.799 63.7329 104.363 63.8645C104.575 63.9303 104.786 63.9961 105.068 64.1277C105.491 64.2593 105.914 64.3909 106.267 64.4567C107.254 64.5883 108.312 64.1277 109.229 63.6671L116.703 60.2454C116.985 60.1138 117.55 59.8507 118.184 60.1797C118.466 60.3113 118.537 60.5087 118.678 60.6403C118.748 60.7061 118.748 60.7061 118.819 60.7719C119.171 61.2325 120.088 61.1667 120.793 60.9035L121.146 60.7061C121.428 60.5745 121.851 60.4428 122.204 60.377L115.505 55.9684C114.306 55.113 113.037 54.3234 111.556 53.8628C109.511 53.2706 107.184 53.5996 105.139 53.9286C103.799 54.126 102.248 54.3892 101.119 55.1788C100.767 55.113 100.626 55.2446 100.414 55.442Z" fill="#F96E00"/>
<path d="M100.767 28.7927C100.555 28.9901 100.344 29.1875 100.062 29.3191L99.8502 29.3849L99.6386 29.3191C97.8052 28.5295 96.0423 27.5425 94.491 26.2265C93.8563 25.6343 93.1512 24.9763 92.7281 24.1867C92.0229 22.6075 92.5165 20.8308 93.2217 19.2516C94.35 16.3564 95.8308 13.5269 97.5937 10.8291L97.7347 10.5659C98.2283 9.71051 98.7924 8.92089 99.0745 7.99968C99.145 7.53908 99.2155 7.07848 99.3566 6.55208C99.4271 5.69667 99.5681 4.77548 99.9912 3.98588L100.837 4.38064C100.485 5.36765 101.331 6.42049 102.177 7.4733L102.459 7.7365C104.645 10.4343 105.35 13.856 105.985 16.9486C106.126 17.8698 106.408 18.9226 106.197 19.9096C106.056 20.8308 105.491 21.6204 105.068 22.41L103.235 25.3053C102.6 26.5555 101.613 28.0031 100.767 28.7927ZM99.8502 28.4637C100.626 27.8715 101.754 26.1607 102.6 24.8447L104.434 21.9495C104.857 21.2915 105.28 20.5018 105.491 19.778C105.703 18.9226 105.421 18.0014 105.28 17.0802C104.645 14.1192 103.94 10.8291 101.895 8.2629L101.613 7.86811C101.19 7.34171 100.767 6.81528 100.485 6.28888C100.485 6.42048 100.414 6.48628 100.414 6.61788C100.414 7.14429 100.273 7.67071 100.132 8.19711C99.8502 9.24993 99.286 10.1711 98.7219 10.9607L98.5809 11.2239C96.8885 13.856 95.4782 16.6196 94.2794 19.449C93.7153 20.8966 93.1512 22.4758 93.7858 23.7261C94.1384 24.4499 94.773 25.0421 95.2666 25.5027C96.6064 26.7529 98.1578 27.6741 99.8502 28.4637Z" fill="#F96E00"/>
<path d="M124.39 35.307C123.473 36.1624 122.415 36.7546 121.287 37.281L116.915 39.5182C116.633 39.6498 116.28 39.8472 115.928 39.913C115.434 39.9788 114.941 39.913 114.517 39.7814L114.376 39.7814C112.402 39.3866 110.357 39.3208 108.594 39.255L108.03 39.255L108.171 38.7286C108.806 36.4256 109.581 33.991 110.851 31.7537C112.331 29.3191 114.517 27.5425 116.844 26.9503C117.761 26.7529 118.748 26.6213 119.665 26.5555C119.947 26.5555 120.159 26.4897 120.441 26.4897C123.614 26.1607 126.717 25.3711 129.608 23.9893L131.723 23.0681L130.172 24.7789C129.678 25.2395 129.678 26.0291 129.678 26.8187C129.678 27.7399 129.678 28.7927 128.973 29.4507C128.479 29.9113 127.986 30.1087 127.563 30.2403C127.14 30.3719 126.787 30.5693 126.505 30.8325C126.082 31.2273 126.011 31.8195 125.87 32.4776C125.8 32.8066 125.729 33.1355 125.659 33.4645C125.518 33.991 125.095 34.649 124.39 35.307ZM109.299 38.3338C110.921 38.3996 112.825 38.4654 114.658 38.8602L114.799 38.8602C115.152 38.926 115.505 38.9918 115.787 38.9918C115.998 38.926 116.21 38.8602 116.492 38.7286L120.864 36.4914C121.851 35.965 122.909 35.3728 123.755 34.5832C124.319 34.0568 124.672 33.5962 124.813 32.9381C124.954 32.6749 124.954 32.4118 125.024 32.0827C125.165 31.4247 125.306 30.6352 125.87 30.1087C126.294 29.7139 126.787 29.5165 127.281 29.3191C127.704 29.1875 128.056 28.9901 128.338 28.7269C128.903 28.2005 128.903 27.4109 128.903 26.6213C128.903 26.0949 128.832 25.6343 129.044 25.1737C126.435 26.2923 123.614 26.9503 120.723 27.2793C120.441 27.2793 120.229 27.3451 119.947 27.3451C119.03 27.4109 118.184 27.5425 117.268 27.7399C115.082 28.3321 113.107 29.9114 111.838 32.1486C110.639 34.0568 109.934 36.1624 109.299 38.3338Z" fill="#F96E00"/>
<path d="M65.2975 24.3841C64.6628 24.9763 63.7461 25.4369 62.8294 25.6343L62.5474 25.6343C61.2781 25.2395 60.0793 24.2525 59.3742 22.8049C58.7395 21.5546 58.3869 20.3044 58.1754 19.0542C57.6818 16.8828 57.2587 14.6456 58.387 12.8032C58.669 12.2767 59.0921 11.8819 59.4447 11.4213C59.5857 11.2897 59.7268 11.1581 59.8678 10.8949C61.0666 9.51311 61.7717 8.06552 62.0537 6.4863C62.1243 6.0257 62.1243 5.49929 62.1948 5.03868C62.3358 3.72267 62.4063 2.34085 63.3231 1.22224L64.0282 0.301025L64.0987 1.41966C64.2397 3.13048 65.509 4.70969 67.2014 5.36769C67.2719 5.4335 67.413 5.43347 67.4835 5.49927C67.7655 5.63088 68.1181 5.6967 68.4707 5.8941C69.74 6.68371 69.9515 8.1971 69.881 9.05251C69.881 9.44731 69.8105 9.77633 69.8105 10.1711C69.74 10.8949 69.6694 11.4871 69.8105 12.1452C69.881 12.4742 70.022 12.7374 70.0925 13.0664C70.1631 13.3954 70.3041 13.7902 70.3746 14.1192C70.8682 16.5538 69.0348 18.6594 67.9066 19.7122L67.2719 20.3044C66.9193 20.6334 66.5667 20.9625 66.4257 21.3573C66.3552 21.5547 66.2847 21.752 66.2142 22.081C66.1437 22.2784 66.1437 22.41 66.0732 22.6074C66.2142 23.3971 65.7911 23.9235 65.2975 24.3841ZM62.7589 24.7789C64.0282 24.5157 65.1564 23.5945 65.4385 22.5417C65.509 22.3443 65.509 22.2127 65.5795 22.0153C65.6501 21.6863 65.7206 21.4889 65.7911 21.1599C66.1437 20.436 66.7078 19.9096 67.1309 19.5148L67.413 19.2516C68.4002 18.3304 70.022 16.4222 69.5989 14.4482C69.5284 14.1192 69.3874 13.856 69.3168 13.527C69.2463 13.198 69.1053 12.8032 69.0348 12.4741C68.8938 11.6845 68.9643 10.9608 68.9643 10.3027C69.0348 9.97374 69.0348 9.57895 69.0348 9.31575C69.0348 8.78934 68.9643 7.4075 67.9771 6.88109C67.695 6.74949 67.4835 6.68369 67.2014 6.55209C67.0604 6.55209 66.9899 6.48629 66.7783 6.42049C65.1564 5.82828 63.8872 4.51226 63.3936 2.99885C63.182 3.72265 63.1115 4.44646 63.041 5.30187C63.041 5.82828 62.9704 6.28892 62.8999 6.88112C62.6179 8.59194 61.8422 10.2369 60.4319 11.6845C60.2909 11.8161 60.0793 12.0136 60.0088 12.211C59.5857 12.6058 59.3036 13.0006 58.9511 13.4612C57.9638 15.0404 58.3164 17.0802 58.8101 19.12C59.0921 20.3044 59.3742 21.6205 59.9383 22.6733C60.7845 23.5945 61.7012 24.4499 62.7589 24.7789Z" fill="#F96E00"/>
<path d="M44.7775 31.0299L44.2838 30.4377C43.5082 29.5823 42.944 28.5295 42.5209 27.4767C42.3799 27.2135 42.2389 26.8187 42.0979 26.5555C41.2517 24.8447 40.0529 23.3312 38.5721 21.9494L38.431 21.8178C38.008 21.423 37.5143 20.9624 37.2322 20.436C36.9502 19.778 36.9502 18.9884 37.3028 18.0014C37.9374 16.2248 39.2772 14.9746 40.476 13.8559L41.8158 12.6058C43.1556 11.3555 44.1428 10.3027 44.7069 8.98673C44.9184 8.52613 45.0595 8.13129 45.13 7.67069C45.4121 6.74948 45.6942 5.69667 46.3993 4.90706L47.316 3.92007L47.2455 5.30187C47.175 6.55208 48.0917 7.5391 49.1494 8.65771C49.643 9.24991 50.2071 9.77632 50.6302 10.4343C51.7585 12.2767 51.829 14.5798 50.7008 16.4222C50.5597 16.5538 50.5597 16.6854 50.4187 16.817C50.0661 17.2776 49.8546 17.7382 49.8546 18.133C49.8546 18.3962 49.9251 18.7252 50.0661 18.9884C50.1366 19.1858 50.2072 19.5148 50.2777 19.7122C50.4187 20.765 49.9251 21.752 49.2905 22.739L49.0789 23.0681C47.6686 25.4369 46.1878 27.8715 45.13 30.3061L44.7775 31.0299ZM41.1106 14.5798C39.9824 15.6326 38.7836 16.8828 38.149 18.3962C37.9374 19.12 37.8669 19.7122 38.0785 20.1728C38.2195 20.5676 38.6426 20.9624 38.9952 21.2914L39.1362 21.423C40.617 22.8048 41.8863 24.5157 42.803 26.2923C43.0145 26.6213 43.0851 26.9503 43.2966 27.2793C43.6492 28.0031 44.0018 28.7269 44.4249 29.3849C45.4826 27.0819 46.8224 24.9105 48.0917 22.8049L48.3032 22.4758C48.7968 21.6204 49.2905 20.765 49.1494 19.9754C49.0789 19.778 49.0084 19.5806 49.0084 19.3174C48.9378 18.9884 48.7968 18.5936 48.7968 18.1988C48.7968 17.5408 49.1494 16.9486 49.502 16.488C49.643 16.3564 49.643 16.2248 49.784 16.0932C50.7713 14.514 50.7007 12.4742 49.643 10.9608C49.2904 10.3685 48.7263 9.84211 48.2327 9.2499C47.457 8.39449 46.7519 7.60491 46.3993 6.6179C46.1877 7.07851 46.1172 7.53911 45.9762 7.93392C45.8352 8.46032 45.6941 8.85509 45.5531 9.3815C44.9185 11.0265 43.6492 12.211 42.5209 13.2638L41.1106 14.5798Z" fill="#F96E00"/>
<path d="M46.7519 36.952C43.1556 35.307 39.4183 34.32 36.6681 34.2542L36.7387 33.3987C39.6298 33.4645 43.5082 34.4516 47.175 36.1624L46.7519 36.952Z" fill="#F96E00"/>
<path d="M25.0331 50.1121C24.8215 50.3095 24.3984 50.4412 24.0458 50.3754C23.7638 50.3754 23.4817 50.2437 23.3407 50.1121C20.4495 51.494 17.2763 52.0862 14.0326 51.823C13.2569 51.7572 12.2697 51.6256 11.494 51.0334C11.1414 50.7044 10.8594 50.4411 10.6479 50.1121C10.5068 49.8489 10.2953 49.6516 10.0837 49.4541C9.5901 48.9935 8.88496 48.7303 8.10929 48.4013C7.05156 47.9407 5.85278 47.4801 5.42968 46.4273C5.21814 45.9667 5.21812 45.5719 5.1476 45.1113C5.1476 44.7165 5.07709 44.2559 4.93606 43.9927C4.86555 43.7953 4.72455 43.6637 4.58352 43.5321C4.44249 43.4005 4.37195 43.3347 4.30144 43.1373C3.59628 42.2161 3.52577 41.0975 3.38474 40.0446C3.38474 39.7814 3.31422 39.584 3.31422 39.3208C3.24371 38.4654 2.82059 37.0178 1.69234 36.623L0 35.965L1.76286 35.7676C2.89111 35.636 4.01936 36.0308 5.07709 36.4914C6.06431 36.8862 6.98101 37.2152 7.89772 37.1494C8.03875 37.1494 8.17981 37.1494 8.25033 37.0836C8.74394 37.0178 9.30805 36.8862 9.80166 37.0836C10.3658 37.3468 10.6479 37.7416 10.8594 38.2022C11.0004 38.4654 11.1414 38.7286 11.353 38.7944C11.5645 38.9918 11.9171 39.0576 12.3402 39.0576C12.5518 39.1234 12.6928 39.1235 12.9043 39.1893C13.821 39.3867 14.5967 39.9789 15.3019 40.5053C15.866 40.9001 16.4301 41.2948 17.0648 41.6239C17.3468 41.7555 17.8404 41.8213 18.193 41.8871C18.5456 41.9529 18.9687 42.0845 19.3918 42.2161C21.4368 42.9399 22.4945 44.7165 23.4112 46.4931C23.9048 47.3485 24.3984 48.2039 24.9625 48.9935C25.4561 49.4541 25.3151 49.8489 25.0331 50.1121ZM3.3142 36.8204C3.80781 37.4126 4.08991 38.3338 4.23094 39.255C4.23094 39.5182 4.30145 39.7156 4.30145 39.9788C4.37196 40.9658 4.44248 41.9528 5.07712 42.6767C5.14764 42.7425 5.28864 42.8741 5.28864 43.0057C5.50019 43.2031 5.57072 43.4005 5.78227 43.5979C5.99382 44.0585 6.13483 44.5849 6.06432 45.0455C6.06432 45.4403 6.13485 45.7693 6.27588 46.0325C6.55794 46.8221 7.54514 47.2169 8.46185 47.5459C9.23752 47.8749 10.0132 48.2039 10.6479 48.7961C10.9299 49.0593 11.0709 49.3226 11.2825 49.52C11.494 49.849 11.7761 50.1121 11.9876 50.3095C12.5518 50.7044 13.2569 50.836 14.0326 50.9018C17.1353 51.165 20.379 50.507 23.1291 49.1251L23.4817 48.9277L23.6932 49.2568C23.7637 49.3226 23.9048 49.4541 23.9753 49.3883C24.0458 49.4541 24.1163 49.3883 24.2574 49.3883C24.2574 49.3883 24.2574 49.3883 24.1869 49.3225C23.4817 48.5329 22.9881 47.5459 22.4945 46.6905C21.5778 45.0455 20.661 43.4005 18.9687 42.8741C18.6866 42.7425 18.334 42.6767 17.9815 42.6109C17.5584 42.4793 17.1353 42.4793 16.7122 42.3477C16.007 42.0844 15.3724 41.6238 14.7378 41.1632C14.1031 40.7026 13.4685 40.2421 12.6928 40.0447C12.5518 40.0447 12.3402 39.9788 12.1992 39.9788C11.7056 39.913 11.212 39.8472 10.7889 39.4524C10.5068 39.1892 10.2952 38.8602 10.0837 38.5312C9.87215 38.2022 9.73114 37.939 9.44908 37.8074C9.16702 37.6758 8.81444 37.7416 8.46186 37.8074C8.32083 37.8074 8.10926 37.8732 7.96823 37.8732C6.76946 38.0706 5.71174 37.61 4.65401 37.1494C4.30143 37.0836 3.80781 36.8862 3.3142 36.8204Z" fill="#F96E00"/>
<path d="M37.0207 34.0568L36.6681 34.2542C36.3861 34.3858 36.0335 34.4516 35.5399 34.5174C35.0463 34.5832 34.3411 34.7148 33.7064 34.9122L33.4244 35.0438C32.9308 35.2412 32.3667 35.3728 31.8025 35.2412C31.591 35.1754 31.3794 35.1096 31.1679 35.0438C31.0974 34.978 30.9563 34.978 30.8858 34.9122C30.1807 34.649 29.1935 34.7806 28.3473 34.9122C27.8537 34.978 27.36 35.0438 26.8664 35.1096C24.751 35.2412 22.565 34.1226 21.1547 32.2802C19.9559 30.7667 19.3212 28.8585 19.1097 26.5555C19.1097 26.2923 19.0392 25.9633 19.0392 25.7001C18.9687 24.9763 18.9687 24.3183 18.8276 23.6603C18.6161 22.6733 17.9815 21.6863 17.2058 20.9625L16.7827 20.5676L17.2763 20.2387C18.193 19.6465 19.6033 19.6464 20.4495 20.436C20.5906 20.5676 20.7316 20.6992 20.8726 20.8308C21.1547 21.0941 21.3662 21.2915 21.5778 21.3573C21.7188 21.3573 21.7188 21.3573 21.8598 21.3573C22.0009 21.3573 22.1419 21.3573 22.2124 21.2915C22.847 21.2257 23.4112 21.6205 23.7638 21.8179C25.2446 22.8049 26.7254 23.7919 28.2768 24.7131C32.1551 27.2793 35.7514 29.8455 36.8797 33.662L37.0207 34.0568ZM18.334 20.6992C19.0392 21.4889 19.5328 22.3443 19.8149 23.3971C20.0264 24.1209 20.0264 24.9105 20.0969 25.6343C20.0969 25.8975 20.097 26.1607 20.1675 26.4897C20.3085 28.5953 20.9431 30.3719 22.0009 31.7538C23.2702 33.333 25.1036 34.2542 27.0075 34.1884C27.4306 34.1884 27.9242 34.1226 28.4178 34.0568C29.405 33.9252 30.4627 33.7278 31.4499 34.1226C31.5205 34.1884 31.6615 34.1884 31.732 34.2542C31.9436 34.32 32.0141 34.3858 32.1551 34.3858C32.5077 34.4516 32.9308 34.32 33.3539 34.1884L33.636 34.0568C34.2706 33.8594 35.0463 33.7936 35.6104 33.662C35.7514 33.662 35.963 33.5962 36.104 33.5962C34.9052 30.2404 31.591 27.8057 27.9947 25.5027C26.5139 24.5157 25.033 23.5287 23.4817 22.6075C23.0586 22.3443 22.7765 22.2127 22.4945 22.2127C22.3534 22.2127 22.3534 22.2127 22.2124 22.2127C22.0714 22.2127 21.8598 22.2785 21.6483 22.2127C21.0137 22.1469 20.5906 21.752 20.3085 21.3572C20.1675 21.2256 20.097 21.1598 19.9559 21.0282C19.4623 20.6992 18.8277 20.6334 18.334 20.6992Z" fill="#F96E00"/>
<path d="M62.6179 50.0463L61.7717 49.6515C63.8872 45.7035 66.7078 42.1502 70.022 39.0576L70.0925 38.9918L70.7272 39.584L70.6567 39.6498C67.4835 42.7425 64.7333 46.2299 62.6179 50.0463Z" fill="#F96E00"/>
<path d="M23.7638 70.7736C23.1996 71.3 22.565 71.7606 22.0009 72.1554C20.0264 73.3398 16.9943 73.8004 14.7378 72.3528C14.5262 72.1553 14.2441 72.0238 13.9621 71.7606C13.539 71.3658 13.1159 71.1026 12.6223 70.9052C12.4107 70.8394 12.2697 70.8393 12.1287 70.8393C11.9171 70.7735 11.6351 70.7736 11.353 70.642C10.4363 70.313 9.94271 69.4575 9.4491 68.7337L9.30807 68.6021C7.75672 66.2333 5.64125 64.2593 3.10269 62.8116L2.18599 62.351L3.17319 62.0879C5.99381 61.2983 8.81447 61.5614 10.8594 61.8904C11.4941 61.9562 12.0582 62.0878 12.5518 62.4169C12.6928 62.5485 12.7633 62.6143 12.9044 62.7459C12.9749 62.8117 13.1159 62.9433 13.1864 63.0091C13.7506 63.4039 14.6672 63.0749 15.5839 62.7459C15.866 62.6143 16.0776 62.5485 16.2891 62.4827C17.9815 61.9563 20.097 62.2195 22.0009 63.2065C23.6227 64.0619 25.0331 65.2463 26.3729 66.4965L26.5844 66.6939L26.4434 66.9571C25.8087 68.4705 24.8215 69.7865 23.7638 70.7736ZM4.65403 62.5485C6.91053 63.9961 8.88495 65.8385 10.2248 68.0099L10.3658 68.1415C10.7889 68.7995 11.212 69.4575 11.8466 69.6549C12.0582 69.7207 12.1992 69.7207 12.4108 69.7865C12.6223 69.8523 12.7633 69.8523 12.9749 69.9181C13.6095 70.1155 14.1031 70.5761 14.6673 70.9709C14.8788 71.1683 15.0903 71.3658 15.3724 71.4974C17.2058 72.8134 19.8854 72.287 21.5073 71.2999C23.1291 70.3129 24.5394 68.8653 25.6677 66.6281C24.4689 65.5095 23.1997 64.4567 21.7188 63.7329C20.097 62.8775 18.2636 62.6143 16.7827 63.0749C16.5712 63.1407 16.2891 63.2723 16.0776 63.3381C15.0903 63.7329 13.8916 64.1935 12.9043 63.5355C12.7633 63.4039 12.6223 63.2723 12.4108 63.2065C12.3402 63.1407 12.2697 63.0749 12.1287 62.9433C11.7761 62.7459 11.353 62.6142 10.8594 62.5484C9.16705 62.4168 6.91053 62.1537 4.65403 62.5485Z" fill="#F96E00"/>
<path d="M78.625 38.268C77.0736 39.7156 74.253 40.3736 70.3746 40.3078H70.0925L69.9515 40.0446C67.9771 36.623 69.2464 33.0698 71.2208 31.2273C71.2913 31.1615 71.4324 31.0299 71.5029 30.9641L71.7144 30.7667C72.067 30.4377 72.4901 30.1745 72.5606 29.8455C72.6311 29.6481 72.7722 29.3849 72.7722 29.1217L72.8427 28.9243C73.1247 27.7399 73.8299 26.6871 74.3235 25.8317C74.8876 24.9105 75.3812 24.0551 75.9454 23.1339L77.9198 19.8438L80.4584 25.5027C80.7404 26.0291 80.952 26.6213 80.952 27.1477C80.8814 27.8715 80.5289 28.3321 80.1763 28.6611C80.0353 28.7927 79.8942 28.9243 79.6827 29.1217C79.5416 29.2533 79.4006 29.3849 79.2596 29.5165C78.907 29.8455 78.766 30.1087 78.766 30.3719C78.6954 30.7009 78.8365 31.0957 78.9775 31.4905C79.1185 31.7537 79.1186 32.0169 79.2596 32.2801C79.4712 33.0039 79.7532 33.7936 79.8942 34.5832C80.1058 35.965 79.6827 37.281 78.625 38.268ZM70.6567 39.3866C76.3685 39.4524 79.4006 37.6758 78.907 34.5832C78.8365 33.8594 78.5544 33.2014 78.3429 32.4776C78.2018 32.2144 78.2018 31.9511 78.0608 31.6879C77.9198 31.2931 77.7788 30.7667 77.8493 30.3061C77.9198 29.7139 78.3429 29.1875 78.625 28.9243C78.766 28.7927 78.907 28.6611 79.1186 28.4637C79.2596 28.3321 79.4006 28.2005 79.5416 28.0689C79.8942 27.7399 80.0353 27.4767 80.1058 27.1477C80.1058 26.7529 79.9647 26.3581 79.7532 25.8975L77.9903 21.8836L77.0031 23.5944C76.439 24.5157 75.9454 25.3711 75.3812 26.2923C74.8876 27.1477 74.253 28.1347 73.9709 29.1875L73.9004 29.3849C73.8299 29.7139 73.6889 29.9771 73.5478 30.2403C73.3363 30.7009 72.9132 31.0957 72.4196 31.4247L72.208 31.6221C70.3041 33.1356 69.0348 36.294 70.6567 39.3866Z" fill="#F96E00"/>
<path d="M56.1305 103.74C55.6369 104.2 55.0727 104.595 54.7201 104.924C54.2265 105.253 53.6624 105.648 53.1688 105.582C49.5725 105.253 46.5403 102.029 46.7519 98.5414C46.8929 96.9622 47.5981 95.5146 48.3032 94.067C48.7263 93.2774 49.0789 92.422 49.4315 91.5665C50.0661 89.7899 50.0661 87.6843 49.5725 85.9077C49.3609 85.1839 49.0789 84.3943 48.7263 83.6705L48.5148 83.0783L49.1494 83.0125C49.8546 83.0125 50.2777 83.5389 50.7008 83.9337L50.8418 84.0653C51.3354 84.6575 52.1816 85.0523 52.8867 85.4471C53.1688 85.5787 53.4508 85.7103 53.6624 85.9077C54.7201 86.4999 55.9894 87.4211 55.9894 88.8687C55.9894 89.1319 55.9189 89.4609 55.9189 89.7241C55.9189 89.9873 55.8484 90.1847 55.8484 90.4479C55.9189 91.0401 56.342 91.5666 56.7651 92.093C57.1882 92.6194 57.6818 93.2116 57.7523 93.9354C57.9638 94.6592 57.7523 95.383 57.6113 96.041C57.5407 96.5016 57.3998 96.8964 57.3292 97.357C57.3292 97.8834 57.5408 98.344 57.6818 98.8704C57.8933 99.4626 58.0344 99.989 58.0344 100.647C57.8229 101.634 57.2587 102.687 56.1305 103.74ZM50.0661 84.7891C50.2071 85.0523 50.2776 85.3813 50.3482 85.7103C50.9123 87.6843 50.9123 89.9215 50.2071 91.8955C49.9251 92.8168 49.502 93.6064 49.0084 94.4618C48.3032 95.9094 47.6686 97.1596 47.5275 98.6072C47.316 101.568 49.9956 104.463 53.0983 104.727C53.2393 104.727 53.4508 104.661 54.015 104.266C54.4381 104.003 54.9317 103.542 55.3548 103.147C56.342 102.226 56.7651 101.437 56.8356 100.581C56.8356 100.055 56.6945 99.5284 56.5535 99.002C56.4125 98.4756 56.201 97.8834 56.201 97.2254C56.201 96.699 56.342 96.1726 56.4125 95.712C56.6241 95.1198 56.6946 94.5276 56.5536 94.0012C56.4125 93.4747 56.0599 93.0141 55.7074 92.5535C55.2138 91.9613 54.7201 91.2376 54.7201 90.448C54.6496 90.1189 54.7201 89.7899 54.7907 89.5925C54.7907 89.3293 54.8612 89.1319 54.8612 88.8687C54.8612 87.8159 53.6624 87.0921 52.9573 86.6973C52.6752 86.5657 52.4636 86.4999 52.2521 86.3025C51.5469 85.9077 50.7713 85.4471 50.0661 84.7891Z" fill="#F96E00"/>
<path d="M47.457 114.334L46.6813 114.268C43.5786 114.005 40.4759 114.136 37.5143 114.794L37.3028 114.86C36.4566 114.992 35.6809 115.189 34.7642 115.123C31.8026 114.728 30.8153 111.438 30.5333 109.991C30.4627 109.662 30.4628 109.399 30.3922 109.07C30.0397 107.293 29.6871 105.516 28.4178 104.332C28.2767 104.2 28.2062 104.134 28.0652 104.003C27.8536 103.805 27.5716 103.674 27.36 103.345C27.219 103.213 27.0075 103.016 26.7959 102.818C25.9497 102.029 25.3856 101.371 25.1741 100.91C24.892 100.252 24.892 99.5942 24.751 99.0678C24.6805 98.7388 24.751 98.4099 24.6099 98.1466C24.2574 97.8176 24.0458 97.4886 23.9048 97.0938L23.4112 95.5804L24.6804 96.6332C25.033 96.9622 25.2446 97.2912 25.4561 97.6202C26.0203 98.0151 26.9369 98.2124 27.9947 98.015L28.1357 98.015C29.6166 97.8176 30.9564 97.6202 32.3667 98.4098C33.0013 98.7388 33.4949 99.331 33.918 99.8574C34.2001 100.252 34.5526 100.581 34.8347 100.844C35.6809 101.502 36.8797 101.7 38.0784 101.897C38.9951 102.095 39.9823 102.226 40.899 102.555C43.4376 103.608 44.5659 106.24 45.4826 108.806L46.2583 110.978C46.6108 111.833 46.8929 112.754 47.1749 113.676L47.457 114.334ZM25.8087 99.002C25.8087 99.5285 25.8792 100.121 26.0908 100.581C26.2318 100.976 27.0075 101.7 27.5716 102.226C27.7831 102.424 27.9947 102.621 28.1357 102.753C28.3473 102.95 28.4883 103.082 28.6998 103.279C28.8409 103.411 28.9819 103.542 29.0524 103.608C30.6037 104.924 30.9563 106.964 31.3794 108.806C31.4499 109.135 31.45 109.399 31.5205 109.728C31.732 110.715 32.5077 113.807 34.9757 114.136C35.6809 114.268 36.3861 114.136 37.1617 113.939L37.3733 113.873C40.2644 113.281 43.1555 113.083 46.1172 113.347C45.9057 112.623 45.6236 111.965 45.4121 111.241L44.6364 109.07C43.7902 106.701 42.7325 104.266 40.5465 103.279C39.7708 102.95 38.9246 102.818 38.0784 102.687C36.7386 102.489 35.3988 102.292 34.3411 101.437C33.918 101.042 33.5654 100.713 33.2833 100.318C32.9308 99.8575 32.5782 99.3969 32.0141 99.1337C30.8858 98.4756 29.8281 98.673 28.3473 98.8704L28.2062 98.8705C27.36 99.0021 26.5844 98.9362 25.9497 98.7388L26.0908 99.1336L25.8087 99.002Z" fill="#F96E00"/>
<path d="M38.2194 137.166C37.4438 137.89 36.4566 138.68 35.1168 138.614C34.8347 138.614 34.4821 138.548 34.2001 138.417C33.777 138.285 33.4244 138.219 33.0718 138.285C32.7192 138.351 32.4372 138.746 32.2257 139.075C31.9436 139.469 31.591 139.798 31.2384 139.996C30.1807 140.588 28.9819 140.259 27.9947 139.996C27.7127 139.864 27.3601 139.798 27.078 139.798C25.5972 139.469 23.9048 139.864 22.0009 140.851C21.6483 141.049 21.4367 141.246 21.0842 141.443L20.5906 140.72C20.9431 140.522 21.1547 140.325 21.5073 140.127C21.8598 139.93 22.1419 139.667 22.4945 139.338C24.1163 137.824 25.1741 135.653 26.2318 133.613C26.7959 132.56 27.2896 131.442 27.9242 130.455C29.8281 127.362 32.5077 124.993 35.5399 123.743C38.9952 122.361 42.944 122.493 45.9057 124.072L46.4698 124.335L46.0467 124.73C43.8607 126.507 42.3094 129.402 41.8158 132.495L41.8157 132.626C41.7452 132.955 41.6747 133.416 41.5337 133.811C41.3222 134.271 40.9696 134.6 40.617 134.929L38.7836 136.772C38.5015 136.903 38.3605 137.035 38.2194 137.166ZM32.0141 138.088C32.2962 137.824 32.5782 137.693 32.8603 137.561C33.4244 137.43 33.9885 137.561 34.4821 137.627C34.6937 137.693 35.0463 137.759 35.1873 137.759C36.104 137.824 36.9502 137.166 37.5848 136.574C37.7258 136.443 37.7963 136.377 37.9374 136.245L39.7708 134.403C40.0529 134.14 40.3349 133.876 40.476 133.482C40.617 133.218 40.6875 132.889 40.6875 132.626L40.6875 132.495C41.1106 129.468 42.5914 126.638 44.7069 124.664C42.0978 123.414 38.7131 123.414 35.7514 124.598C32.9308 125.783 30.3922 128.02 28.5588 130.915C27.9242 131.902 27.5011 132.955 26.937 134.008C26.0203 135.785 25.1036 137.693 23.8343 139.14C25.0331 138.811 26.0908 138.746 27.219 139.009C27.5716 139.075 27.8537 139.206 28.2063 139.272C29.1935 139.535 30.0396 139.798 30.7448 139.404C31.0269 139.272 31.2384 138.943 31.45 138.746C31.6615 138.417 31.8731 138.219 32.0141 138.088Z" fill="#F96E00"/>
<path d="M68.6822 161.381C68.3296 161.71 68.0476 161.973 67.6245 162.236C66.0732 163.289 64.0987 163.684 62.1948 164.145C59.9383 164.671 57.7523 165.132 56.2715 166.645L55.5663 166.119C57.3997 164.013 58.3164 161.184 58.0344 158.42L57.9638 158.223C57.8933 157.63 57.8228 156.907 58.1049 156.249C58.3164 155.788 58.669 155.459 59.0216 155.262C59.1626 155.13 59.3037 154.998 59.4447 154.867C60.5024 153.748 60.2909 152.103 60.0088 150.392C59.8678 149.734 59.7973 149.011 59.7268 148.287C59.6562 146.247 60.6434 144.141 62.3358 142.562C63.8166 141.18 65.65 140.391 67.6245 140.259L67.7655 140.259L67.8361 140.325C69.2464 140.983 70.0925 142.562 70.2336 144.799C70.2336 145.062 70.3041 145.391 70.3041 145.655C70.3746 146.905 70.5156 148.221 71.1503 149.208C71.2208 149.405 71.3618 149.537 71.5029 149.669C71.7849 150.063 72.067 150.458 72.208 150.985C72.4196 151.577 72.208 152.169 72.208 152.695C71.785 155.854 71.0092 159.21 68.6822 161.381ZM57.8933 164.474C59.2331 163.882 60.6435 163.487 62.0538 163.223C63.8872 162.829 65.7206 162.434 67.1309 161.513C67.4834 161.315 67.7655 161.052 68.0476 160.789C70.2336 158.749 70.9387 155.591 71.4324 152.498C71.5029 152.037 71.5734 151.577 71.5028 151.116C71.4323 150.787 71.2208 150.458 70.8682 150.129C70.7272 149.998 70.5862 149.734 70.4451 149.603C69.6695 148.353 69.5989 146.971 69.5284 145.589C69.5284 145.326 69.5284 145.062 69.4579 144.733C69.3169 143.417 68.9643 141.772 67.6245 141.049C65.9321 141.18 64.3808 141.97 63.1115 143.154C61.5602 144.602 60.714 146.444 60.7845 148.221C60.7845 148.879 60.9255 149.537 60.996 150.261C61.2781 152.103 61.5601 154.077 60.2203 155.459C60.0793 155.591 59.8678 155.788 59.7267 155.92C59.4447 156.183 59.1626 156.446 59.0921 156.643C58.9511 157.038 58.9511 157.565 59.0921 158.091L59.1626 158.288C59.3037 160.394 58.8806 162.631 57.8933 164.474Z" fill="#F96E00"/>
<path d="M105.632 122.953L104.927 123.48C99.4976 117.229 95.2666 109.464 92.8691 101.7L93.7858 101.502C96.0423 109.135 100.273 116.768 105.632 122.953Z" fill="#F96E00"/>
<path d="M93.4332 103.016L93.0807 102.687C89.8369 100.186 87.792 96.9622 87.2984 93.6064C86.8753 90.5795 88.0035 87.2895 90.1895 85.2497C90.6831 84.7891 91.2473 84.3943 91.7409 84.0653C91.9524 83.9995 92.1639 83.8021 92.3755 83.7363C92.7986 83.4731 93.2217 83.3415 93.5743 83.0125L93.6448 82.9467C93.9973 82.6177 94.2089 82.0254 94.3499 81.499C94.5615 80.7752 94.773 80.0514 95.4077 79.4592L97.0295 77.9458L96.1833 79.9198C95.7602 80.841 96.4654 81.8939 96.677 82.3545C96.959 82.7493 97.3116 83.0783 97.5937 83.4731C97.9462 83.8021 98.2988 84.2627 98.6514 84.7233C99.7796 86.3025 99.9912 88.3423 99.3566 90.1189C99.286 90.4479 99.145 90.7111 99.004 90.9743C98.7924 91.435 98.5809 91.8955 98.5104 92.3561C98.3693 92.8825 98.4398 93.4748 98.5103 94.067C98.5808 94.9224 98.7219 95.712 98.3693 96.5674C98.1578 97.1596 97.7347 97.5544 97.3821 98.015L96.959 98.5414C95.6897 99.9891 94.5615 101.437 93.5742 102.621L93.4332 103.016ZM90.8242 85.9735C88.8497 87.8159 87.792 90.7769 88.2151 93.5406C88.6382 96.5674 90.4011 99.3968 93.2922 101.831C94.2089 100.713 95.2666 99.4626 96.3949 98.1466L96.818 97.6202C97.1 97.2254 97.5231 96.8306 97.6642 96.4358C97.9462 95.7778 97.8757 95.054 97.8052 94.3302C97.7347 93.738 97.6642 93.0142 97.7347 92.422C97.8052 91.8298 98.0873 91.3033 98.2988 90.8427C98.4399 90.5795 98.5809 90.3163 98.6514 89.9873C99.2155 88.4081 98.9335 86.6973 98.0168 85.3155C97.7347 84.9207 97.4526 84.5259 97.0295 84.1311C96.6769 83.8021 96.3244 83.3415 96.0423 82.9467C95.7602 82.5519 95.5487 82.0913 95.4077 81.6965C95.3372 81.7623 95.4076 81.8281 95.3371 81.8939C95.1256 82.6177 94.914 83.3415 94.2089 83.8679C93.8563 84.1969 93.2922 84.4601 92.9396 84.6575C92.7281 84.7233 92.587 84.8549 92.3755 84.9207C91.8114 85.1839 91.2472 85.5787 90.8242 85.9735Z" fill="#F96E00"/>
<path d="M93.2217 101.766C93.1512 99.0678 93.4333 96.3042 93.5743 93.6721C92.9396 96.37 92.3755 99.1336 93.2217 101.766Z" fill="#F96E00"/>
<path d="M95.2666 84.0653C95.4782 83.3414 95.5487 82.4861 95.4077 81.6965C95.3372 82.4203 95.2666 83.2757 95.2666 84.0653Z" fill="#F96E00"/>
<path d="M94.0679 98.0808C94.1384 97.8834 94.3499 97.686 94.3499 97.5544C94.2089 97.686 94.1384 97.8834 94.0679 98.0808Z" fill="#F96E00"/>
<path d="M93.1512 92.8826C93.9974 90.2505 94.9846 87.6185 95.1961 84.7891C94.4204 87.3553 93.2922 90.6453 93.1512 92.8826Z" fill="#F96E00"/>
<path d="M93.9974 100.121C95.0551 99.002 95.7602 97.686 96.2538 96.3042C95.4077 97.4886 94.632 98.8704 93.9974 100.121Z" fill="#F96E00"/>
<path d="M91.6703 98.344C91.3178 96.4358 90.8242 94.5276 90.4716 92.6194C90.3305 94.5934 90.8242 96.6332 91.6703 98.344Z" fill="#F96E00"/>
<path d="M92.446 100.515C91.7409 99.331 91.1767 98.1466 90.4716 96.9622C90.119 96.37 89.8369 95.8436 89.6959 95.3172C89.8369 97.2912 91.2473 99.1336 92.446 100.515Z" fill="#F96E00"/>
<path d="M98.1578 87.6843C97.8052 85.9077 96.6769 84.3285 95.8307 82.7493C96.3243 84.5259 97.4526 86.1051 98.1578 87.6843Z" fill="#F96E00"/>
<path d="M94.1384 83.5389C93.2217 84.9207 92.2345 86.1051 91.1767 87.3553C90.9652 87.5527 90.6831 87.9475 90.4716 88.1449C90.6126 88.0133 90.6831 87.9475 90.8242 87.8159C92.164 86.6973 93.4332 85.3813 94.1384 83.8021C94.2794 83.4073 94.491 82.9467 94.4204 82.4861C94.491 82.9467 94.3499 83.2099 94.1384 83.5389Z" fill="#F96E00"/>
<path d="M66.1437 150.195C66.8488 148.484 67.3424 146.708 67.6245 144.865C67.836 143.615 67.9771 142.299 68.4002 140.983C66.9193 143.944 66.8488 147.168 66.1437 150.195Z" fill="#F96E00"/>
<path d="M61.7717 159.012C60.4319 160.92 59.0921 162.96 57.6113 164.737C57.3997 165.066 57.0471 165.395 56.7651 165.658C56.8356 165.592 56.9766 165.461 57.0472 165.395C59.0216 163.684 60.5729 161.71 62.1243 159.604C63.7461 157.301 65.2975 154.801 66.2847 152.169C64.9449 154.604 63.3231 156.775 61.7717 159.012Z" fill="#F96E00"/>
<path d="M60.6435 162.565C62.1948 161.776 63.5346 160.657 64.4513 159.144C63.323 160.328 61.9833 161.447 60.6435 162.565Z" fill="#F96E00"/>
<path d="M58.1754 163.552C59.3037 161.71 60.0793 159.67 60.3614 157.565C59.5857 159.473 58.7395 161.578 58.1754 163.552Z" fill="#F96E00"/>
<path d="M64.3103 148.747C64.0282 150.985 64.0987 153.156 63.4641 155.327C63.3936 155.525 63.323 155.722 63.2525 155.92C63.3935 155.656 63.4641 155.459 63.6051 155.196C64.6629 152.761 64.7334 150.063 65.0859 147.892C65.5796 145.457 66.4258 142.957 67.4835 140.654C65.8616 143.088 64.7334 145.852 64.3103 148.747Z" fill="#F96E00"/>
<path d="M35.7514 131.047C38.5015 128.612 41.3927 126.836 44.8479 124.928C41.2516 126.178 37.9374 128.218 35.7514 131.047Z" fill="#F96E00"/>
<path d="M22.4945 139.469C22.3535 139.601 22.0714 139.733 22.0008 139.798C22.2829 139.667 22.706 139.535 22.9881 139.404C24.6099 138.811 26.4434 138.153 28.0652 137.298C29.9691 136.311 31.6615 134.995 33.0718 133.547C29.8281 135.916 26.0908 137.561 22.4945 139.469Z" fill="#F96E00"/>
<path d="M31.3794 136.706C32.3667 136.443 33.3539 135.916 34.2001 135.39C33.2834 135.719 32.2256 136.179 31.3794 136.706Z" fill="#F96E00"/>
<path d="M29.8281 132.363C30.3922 131.705 30.8859 130.981 31.3089 130.192C30.8859 130.85 30.2512 131.573 29.8281 132.363Z" fill="#F96E00"/>
<path d="M27.5011 134.271C27.0075 135.39 26.7959 135.982 26.3023 136.969C27.7126 134.995 28.7704 132.824 29.4756 130.586C28.8409 131.837 28.0652 132.955 27.5011 134.271Z" fill="#F96E00"/>
<path d="M38.9952 126.309C40.7581 125.717 42.3799 124.993 44.0723 124.335C42.2389 124.598 40.5465 125.388 38.9952 126.309Z" fill="#F96E00"/>
<path d="M40.8286 131.179C39.8413 133.153 38.7131 134.469 37.1617 135.916C36.8797 136.179 36.5271 136.508 36.1745 136.706C36.4566 136.574 36.6681 136.377 36.8797 136.311C38.5015 135.324 39.9118 134.008 40.617 132.297C40.8991 131.639 41.1811 130.85 41.1811 130.192C41.1811 130.586 40.9696 130.915 40.8286 131.179Z" fill="#F96E00"/>
<path d="M39.7003 109.333C41.8158 111.175 44.2838 112.557 46.5403 114.136C44.6364 112.096 42.1684 110.715 39.7003 109.333Z" fill="#F96E00"/>
<path d="M25.8087 98.7388C27.5716 101.042 29.9691 102.753 32.2962 104.398C30.3922 102.226 28.0652 100.581 25.8087 98.7388Z" fill="#F96E00"/>
<path d="M33.9885 105.187C34.6232 106.043 35.3989 106.767 36.245 107.293C35.6104 106.569 34.8347 105.845 33.9885 105.187Z" fill="#F96E00"/>
<path d="M39.5593 111.57C38.149 110.912 36.5976 110.386 35.1168 109.793C37.3028 111.175 39.7708 112.425 42.4504 112.689C41.4632 112.425 40.617 112.031 39.5593 111.57Z" fill="#F96E00"/>
<path d="M39.9824 104.99C39.9118 104.924 39.7003 104.858 39.6298 104.792C39.7708 104.924 39.9824 105.121 40.1234 105.253C42.1684 107.03 43.8607 108.741 45.271 110.846C44.3543 108.412 42.3799 106.306 39.9824 104.99Z" fill="#F96E00"/>
<path d="M32.5782 111.504C34.4821 112.886 36.6681 113.873 38.9951 114.202C36.8797 113.412 34.6231 112.36 32.5782 111.504Z" fill="#F96E00"/>
<path d="M52.111 94.5934C52.4636 92.9484 52.6047 91.2375 52.3226 89.6583C52.3226 91.2375 52.0405 93.08 52.111 94.5934Z" fill="#F96E00"/>
<path d="M52.7457 105.056C52.5342 104.595 52.4636 104.134 52.3931 103.674C52.3931 101.831 52.2521 99.8574 52.3931 98.015C51.7585 100.055 51.688 104.069 52.7457 105.056Z" fill="#F96E00"/>
<path d="M51.7585 96.8964C51.829 96.041 51.829 95.1198 51.829 94.1986C51.6175 95.054 51.6174 95.9752 51.7585 96.8964Z" fill="#F96E00"/>
<path d="M54.297 96.8964C54.297 95.3172 54.0855 93.6722 53.5214 92.0929C53.6624 93.6722 53.8739 95.4488 54.297 96.8964Z" fill="#F96E00"/>
<path d="M16.5006 66.8913C16.007 66.8255 15.4429 66.6939 15.0903 66.6281C15.3724 66.7597 15.7955 66.8913 16.0776 67.0229C18.5456 67.8783 21.5778 68.4705 23.8343 67.0229C21.4368 67.8125 19.0392 67.2861 16.5006 66.8913Z" fill="#F96E00"/>
<path d="M3.17322 61.9562C4.86559 62.351 6.20536 63.0749 7.68618 63.9303C9.59011 64.9173 11.494 66.0359 13.539 66.7597C10.2953 64.9173 6.84003 62.2194 3.17322 61.9562Z" fill="#F96E00"/>
<path d="M12.1992 68.1415C13.0454 68.9311 14.1736 69.4575 15.3019 69.8523C14.3147 69.1943 13.1159 68.6021 12.1992 68.1415Z" fill="#F96E00"/>
<path d="M8.39136 63.1407C10.0132 63.7329 11.7056 63.9961 13.398 64.3909C11.8466 63.6013 10.1543 63.3381 8.39136 63.1407Z" fill="#F96E00"/>
<path d="M8.03878 65.7069C9.09652 67.0887 10.4363 68.3389 11.7761 69.5891C10.7184 68.0757 9.4491 66.7597 8.03878 65.7069Z" fill="#F96E00"/>
<path d="M7.33362 64.6541C8.67341 65.9043 10.2953 66.8913 11.8466 67.9441C10.5068 66.5623 8.88496 65.5753 7.33362 64.6541Z" fill="#F96E00"/>
<path d="M16.9237 46.3615C19.1097 47.6117 21.4368 48.8619 23.9048 49.5857C21.7188 48.3355 19.1097 46.9537 16.9237 46.3615Z" fill="#F96E00"/>
<path d="M2.82063 36.623C5.92332 40.8342 11.1415 42.9399 15.725 45.6377C11.5646 42.2819 6.41693 40.242 2.82063 36.623Z" fill="#F96E00"/>
<path d="M21.5073 47.2169C22.424 48.0723 23.3407 48.7961 24.3279 49.4541C23.5522 48.5987 22.4945 47.7433 21.5073 47.2169Z" fill="#F96E00"/>
<path d="M19.8149 49.4541C20.6611 49.9805 21.6483 50.2437 22.565 50.5727C21.7188 50.0463 20.7316 49.6515 19.8149 49.4541Z" fill="#F96E00"/>
<path d="M12.6223 49.4541C11.5646 48.5987 10.4363 47.8091 9.30806 47.0195C10.6479 48.5329 12.2697 49.7831 14.1736 50.6385C13.6095 50.2437 13.1864 49.8489 12.6223 49.4541Z" fill="#F96E00"/>
<path d="M31.2384 31.4247C32.7898 32.346 34.4822 33.2671 36.2451 33.5961C34.6232 32.8723 32.9308 31.9511 31.2384 31.4247Z" fill="#F96E00"/>
<path d="M28.2768 29.1875C28.9114 29.6481 29.546 30.1087 30.2512 30.3719C29.6166 29.9113 28.9114 29.5165 28.2768 29.1875Z" fill="#F96E00"/>
<path d="M17.8405 20.6334C19.3918 22.081 20.8021 23.6603 22.3535 25.1079C23.6227 26.1607 24.9625 27.2793 26.1613 28.3979C25.1741 27.0819 23.9753 25.8317 22.7765 24.7131C21.2957 23.1997 19.6034 21.752 17.8405 20.6334Z" fill="#F96E00"/>
<path d="M44.9185 19.1858C44.8479 19.3832 44.7774 19.449 44.7069 19.6464C43.9312 21.423 43.2966 23.3313 43.3671 25.2395C43.3671 26.8187 43.8607 28.3321 44.1428 29.9113C44.1428 28.3321 43.8607 26.8845 43.9312 25.3711C43.9312 24.9763 44.0017 24.5157 44.0017 24.1209C44.1428 25.8317 44.5659 27.5425 45.0595 29.1875C44.9185 27.0819 44.3544 24.8447 44.1428 22.8049C44.2838 21.8836 44.4249 20.9624 44.7069 19.9096C44.8479 19.6464 44.8479 19.3832 44.9185 19.1858Z" fill="#F96E00"/>
<path d="M46.5403 5.82829C45.9762 8.06551 46.2583 10.3027 46.1878 12.6057C46.1878 13.3953 46.0467 14.185 45.9762 14.9088C45.9762 14.7772 46.0467 14.5798 46.1172 14.514C46.3993 13.5927 46.6814 12.6715 46.6814 11.7503C46.8224 10.1711 46.6108 8.52611 46.5403 6.88109C47.0339 8.13131 47.6686 9.24991 48.1622 10.5001C48.5853 11.5529 49.2199 13.0664 49.7841 14.2508C49.4315 12.869 49.2199 11.4871 48.5148 10.1711C48.0212 9.0525 47.0339 7.73651 46.4698 6.8153C46.5403 6.48629 46.4698 6.15729 46.5403 5.82829Z" fill="#F96E00"/>
<path d="M62.9 25.1737C62.7589 24.7789 62.8294 24.3183 62.7589 23.8577C62.7589 22.5417 62.8294 21.1598 62.9705 19.8438C62.4063 21.5546 62.1243 23.5287 62.9 25.1737Z" fill="#F96E00"/>
<path d="M65.0154 11.882C64.9449 11.9478 65.0154 12.0136 64.9449 12.0794C64.9449 11.9478 65.0154 11.7503 65.0154 11.6187C64.5218 13.527 63.7461 15.3036 63.2525 17.2118C63.6051 16.6196 63.8167 16.0274 64.0987 15.3694C63.8872 16.2248 63.6756 16.9486 63.4641 17.804C63.041 20.0412 63.041 22.4101 63.5346 24.7131C63.182 20.436 64.5218 16.817 65.0154 12.4083C65.0154 12.0135 65.086 11.5529 65.1565 11.2239C65.086 11.4213 65.0859 11.6846 65.0154 11.882Z" fill="#F96E00"/>
<path d="M64.6629 9.4473C64.5218 7.73649 64.3103 6.09149 63.7461 4.51227C63.8872 6.22309 64.2398 7.86809 64.6629 9.4473Z" fill="#F96E00"/>
<path d="M67.0604 11.9477C66.7783 8.92091 64.9449 6.1573 63.6051 3.32787C64.3103 6.3547 66.1437 8.98671 67.0604 11.9477Z" fill="#F96E00"/>
<path d="M71.1503 38.7944C72.5606 37.2152 73.5478 35.3728 74.1825 33.4645C73.0542 35.1754 72.1375 36.952 71.1503 38.7944Z" fill="#F96E00"/>
<path d="M74.6761 31.4247C76.0864 28.6611 76.9326 25.5027 77.2851 22.4101C76.2274 25.3711 75.5222 28.3979 74.6761 31.4247Z" fill="#F96E00"/>
<path d="M100.696 6.22307C100.555 9.77631 100.696 13.3296 99.9912 16.6196C101.472 13.1322 101.402 9.24991 100.767 5.63087C100.767 5.49927 100.696 5.43348 100.696 5.43348C100.696 5.69668 100.696 5.95987 100.696 6.22307Z" fill="#F96E00"/>
<path d="M99.9207 28.5295C100.626 26.8187 100.696 24.9105 100.837 23.068C100.203 24.8447 100.132 26.7529 99.9207 28.5295Z" fill="#F96E00"/>
<path d="M98.863 28.2005C98.863 27.5425 98.7924 26.8187 98.5809 26.2265C98.5809 26.8845 98.7219 27.5425 98.863 28.2005Z" fill="#F96E00"/>
<path d="M97.1 27.0819C97.1 26.8187 97.1001 26.5555 96.959 26.2923C96.959 26.5555 97.0295 26.7529 97.1 27.0819Z" fill="#F96E00"/>
<path d="M102.248 23.1997C102.107 23.9893 102.107 24.6473 101.825 25.5685C102.671 23.8577 102.953 21.6204 102.741 19.8438C102.6 20.8966 102.248 22.5417 102.248 23.1997Z" fill="#F96E00"/>
<path d="M116.21 34.649C114.024 35.7676 111.838 37.0178 109.581 38.0706C114.306 36.5572 119.03 34.2542 122.697 31.2273C120.652 32.4776 118.396 33.5304 116.21 34.649Z" fill="#F96E00"/>
<path d="M124.813 28.0689C126.646 27.2793 128.409 26.1607 129.608 24.6473C128.056 25.9633 126.364 26.8845 124.813 28.0689Z" fill="#F96E00"/>
<path d="M98.2988 58.9952C103.305 59.3242 108.171 58.4688 113.107 58.6004C108.242 57.745 103.235 58.6004 98.2988 58.9952Z" fill="#F96E00"/>
<path d="M99.145 60.5744C99.9207 60.7718 100.837 60.8377 101.543 60.8377C100.767 60.6402 99.9912 60.706 99.145 60.5744Z" fill="#F96E00"/>
<path d="M99.8502 58.074C99.9912 58.074 100.273 58.074 100.414 57.9424C100.203 58.0082 99.9912 58.074 99.8502 58.074Z" fill="#F96E00"/>
<path d="M107.889 55.5736C108.947 55.771 110.075 55.9026 111.133 55.8368C110.075 55.6394 108.947 55.5078 107.889 55.5736Z" fill="#F96E00"/>
</svg>
