<svg width="159" height="169" viewBox="0 0 159 169" fill="none" xmlns="http://www.w3.org/2000/svg">
<path d="M99.8372 52.2768C99.1637 54.7352 98.089 56.9739 96.5348 58.8578L96.3394 59.1502L96.0165 59.0656C90.3133 57.5711 85.1562 53.2411 81.8175 47.3255C79.1055 42.4907 77.6057 36.5988 77.2692 29.4079C77.2099 28.3613 77.229 27.4499 77.1697 26.4033C77.0893 22.4872 76.9013 18.5429 75.4907 14.8511L74.2075 11.5363L76.4197 14.4072C81.0299 20.3122 83.936 22.334 87.3216 24.7105C88.6817 25.6397 90.0418 26.5689 91.5586 27.7683C98.7412 33.5456 102.18 43.726 99.8372 52.2768ZM95.9573 58.019C97.2377 56.2925 98.2538 54.2676 98.8688 52.023C101.124 43.7929 97.8905 34.1245 90.8939 28.5106C89.3771 27.3112 88.017 26.3819 86.7645 25.4809C83.8584 23.4592 81.1382 21.6008 77.2819 17.1535C77.9487 20.1922 78.1265 23.3319 78.226 26.3365C78.2853 27.383 78.2662 28.2945 78.3255 29.3411C78.6913 36.425 80.1421 42.0749 82.7465 46.8816C85.8502 52.3919 90.6061 56.5022 95.9573 58.019Z" fill="#F96E00"/>
<path d="M198.704 84.6008L197.932 85.3149C189.926 77.489 180.299 72.2167 170.145 70.1285C157.917 67.6115 145.241 69.6741 133.026 71.7427C127.705 72.6396 122.277 73.5083 116.937 74.0564C111.597 74.6045 107.567 74.5794 103.762 74.1551C99.2034 73.5333 94.85 72.1634 90.8488 70.7711C79.8917 66.9833 68.6405 61.7437 58.2691 55.8181L58.7479 54.9125C69.0116 60.8099 80.1553 66.0214 91.1123 69.8092C95.1136 71.2014 99.3594 72.5432 103.81 73.1367C107.478 73.6398 111.538 73.5579 116.741 73.0885C122.081 72.5405 127.509 71.6717 132.83 70.7748C145.153 68.7345 157.965 66.5931 170.301 69.1384C180.67 71.2829 190.405 76.5835 198.704 84.6008Z" fill="#F96E00"/>
<path d="M145.794 132.483C145.414 133.873 144.789 135.313 143.87 136.561C143.117 137.624 142.179 138.524 141.377 139.345C140.576 140.166 139.637 141.065 138.914 142.021C136.294 145.688 136.053 150.78 135.996 154.775L135.91 157.616L135.018 154.977C133.617 150.829 130.857 147.013 128.145 143.438C124.465 138.349 120.598 133.098 120.165 126.683C119.908 123.408 120.66 119.825 122.34 115.797C124.645 110.33 127.646 106.534 131.557 104.465L131.694 104.387C131.825 94.2254 132.516 87.0746 135.701 80.9212C139.336 73.9691 145.848 69.1456 152.792 68.2159L152.959 69.2907C146.367 70.1981 140.021 74.836 136.719 81.417C133.563 87.4635 132.931 94.4005 132.75 104.32C133.935 105.89 135.256 107.382 136.47 108.846C139.083 111.937 141.696 115.027 143.703 118.646C145.681 122.372 147.112 127.673 145.794 132.483ZM135.825 146.138C136.265 144.535 136.948 142.881 138.033 141.447C138.786 140.384 139.724 139.484 140.555 138.556C141.357 137.735 142.295 136.836 142.911 135.852C146.644 130.644 145.036 123.463 142.618 118.82C140.689 115.336 138.076 112.245 135.57 109.183C134.435 107.854 133.221 106.391 132.086 105.062C128.448 106.973 125.477 110.662 123.201 116.023C121.55 119.943 120.857 123.313 121.143 126.481C121.557 132.547 125.316 137.77 128.918 142.724C131.071 145.809 133.44 148.95 134.939 152.321C135.143 150.312 135.269 148.169 135.825 146.138Z" fill="#F96E00"/>
<path d="M59.6388 56.2916L58.7193 56.2798C50.112 56.5445 41.1103 51.0924 35.9606 42.5257C31.9368 35.7432 29.839 27.4035 29.4514 16.1896L29.4016 14.6873L30.3803 15.7457C31.7799 17.3727 33.9907 17.7228 36.4167 18.1294C37.3068 18.2482 38.3046 18.3951 39.1654 18.6207C47.4806 20.6852 51.3492 29.7181 52.8094 34.9123C53.466 37.1464 54.015 39.3524 54.4563 41.5301C55.574 46.2908 56.6331 51.2653 59.0612 55.4529L59.6388 56.2916ZM30.616 17.4113C31.1011 27.8487 33.1008 35.7046 36.8896 42.0818C41.726 50.1082 49.7885 55.1996 57.8189 55.3565C55.6061 51.2252 54.596 46.4927 53.5274 41.974C53.086 39.7962 52.5371 37.5903 51.8805 35.3562C50.4692 30.404 46.8356 21.7763 38.9802 19.7178C38.1193 19.4922 37.2292 19.3734 36.339 19.2547C34.3435 18.9609 32.2404 18.6389 30.616 17.4113Z" fill="#F96E00"/>
<path d="M127.476 64.2166C127.388 64.5373 127.114 64.6946 126.654 64.6887C126.332 64.6041 125.657 64.5418 124.903 64.3444C123.69 64.1411 122.262 63.8814 121.724 63.7404C119.513 63.3902 117.478 62.3986 115.864 60.7153C115.492 60.3887 115.257 59.9835 114.885 59.657C114.092 58.7618 113.407 57.8949 112.36 57.506L111.235 56.9821L112.408 56.4877C113.719 55.9146 115.049 55.6903 115.919 55.4602C116.164 55.4097 116.408 55.3592 116.516 55.3874C118.394 54.8484 120.36 55.2492 121.877 56.4486C122.62 57.1017 123.305 57.9686 123.805 58.6722C124.304 59.3758 124.989 60.2427 125.596 60.9746C127.28 63.2487 127.622 63.6822 127.476 64.2166ZM113.856 57.0963C114.629 57.6425 115.129 58.3461 115.765 58.971C116.029 59.2694 116.372 59.7029 116.636 60.0012C118.065 61.5213 119.885 62.4564 121.909 62.6434C122.584 62.7057 123.905 62.9372 125.196 63.2756C125.519 63.3602 125.842 63.4447 126.086 63.3943C125.744 62.9608 125.137 62.229 124.716 61.6605C124.031 60.7936 123.346 59.9267 122.846 59.223C122.347 58.5194 121.877 57.7089 121.104 57.1626C119.881 56.1547 118.238 55.8386 116.741 56.2484C116.604 56.3271 116.36 56.3776 116.115 56.4281C115.568 56.7428 114.727 56.8661 113.856 57.0963Z" fill="#F96E00"/>
<path d="M140.029 70.5993C134.952 70.1854 129.727 67.7852 126.556 64.2048L127.329 63.4907C130.343 66.801 135.245 69.1165 140.106 69.474L140.029 70.5993Z" fill="#F96E00"/>
<path d="M62.5279 63.0058L60.7286 63.6798C59.4475 64.146 57.6488 66.0805 55.577 69.4326C53.9255 72.0929 52.0785 75.0456 48.998 76.1859C45.5362 77.4553 41.8087 75.9057 38.5116 74.4689L38.2964 74.4125C35.5081 73.2235 31.5068 71.8313 28.5442 73.8044L27.4198 74.5408L27.7712 73.2581C28.7669 69.624 31.9638 66.7959 37.4695 64.8019C44.9115 62.0552 52.9317 61.4075 60.7183 62.8752L62.5279 63.0058ZM29.1204 72.1224C32.2301 70.8753 36.0162 72.2111 38.6969 73.3718L38.9121 73.4282C42.0232 74.7017 45.5062 76.3018 48.5867 75.1616C51.2857 74.1505 52.9372 71.4902 54.5595 68.9368C56.2404 66.1696 57.7652 64.3926 58.9482 63.4424C51.8563 62.3859 44.511 63.0958 37.5873 65.6347C33.2258 67.2412 30.3415 69.3493 29.1204 72.1224Z" fill="#F96E00"/>
<path d="M111.919 73.4287L111.655 74.3907C108.163 73.2463 105.511 70.7184 103.015 68.4606C100.099 65.6343 96.7814 62.5883 95.2728 58.4125L96.2801 58.1036C97.7397 62.0375 100.95 65.0553 103.788 67.7465C106.068 69.9479 108.642 72.3407 111.919 73.4287Z" fill="#F96E00"/>
<path d="M154.337 68.0481L153.858 68.9536C149.035 66.7732 144.661 63.7941 140.815 60.1514L141.48 59.409C145.326 63.0518 149.621 65.8959 154.337 68.0481Z" fill="#F96E00"/>
<path d="M158.396 67.9662L157.624 68.6803C155.451 66.5071 154.217 63.4343 154.069 60.1877L155.125 60.1208C155.332 63.1536 156.409 65.9563 158.396 67.9662Z" fill="#F96E00"/>
<path d="M142.399 94.3614L141.47 94.8053C138.611 89.2446 137.668 82.5822 138.829 76.2419L139.826 76.3888C138.724 82.5153 139.696 89.0708 142.399 94.3614Z" fill="#F96E00"/>
<path d="M119.49 91.6802L118.688 92.5012C114.934 96.0998 110.907 99.8557 106.203 102.289C100.815 105.116 95.2012 105.821 90.5543 104.26C88.8618 103.702 87.2865 102.716 85.7895 101.866C84.9872 101.426 84.2925 101.015 83.4902 100.576C80.2517 98.9251 76.2995 97.7749 72.4944 97.3505L70.6065 97.0849L72.4351 96.3039C75.8479 94.7925 78.7908 92.4706 81.626 90.1205C82.6721 89.2491 83.8551 88.2989 84.9795 87.5626C90.3667 83.4755 95.188 81.875 99.6095 82.5754C103.278 83.0784 106.37 85.2634 109.383 87.3133C112.397 89.3633 115.196 91.3568 118.57 91.6684L119.49 91.6802ZM74.2447 96.4345C77.6684 96.988 80.9457 98.076 83.8907 99.5351C84.693 99.9744 85.4953 100.414 86.1899 100.825C87.6869 101.676 89.184 102.526 90.8764 103.084C95.2005 104.561 100.57 103.906 105.684 101.237C110.006 98.9324 113.672 95.6545 117.123 92.3202C113.944 91.7161 111.253 89.7508 108.533 87.8924C105.627 85.8706 102.613 83.8207 99.2676 83.4023C95.1689 82.7864 90.5922 84.3364 85.3712 88.238C84.2175 89.0812 83.1714 89.9527 82.1252 90.8242C79.7007 92.9382 77.0609 94.9959 74.2447 96.4345Z" fill="#F96E00"/>
<path d="M139.23 77.7219C135.203 81.4778 130.803 84.9073 126.168 87.9315C123.48 89.7471 120.986 91.2704 118.444 92.5516L118.003 91.6342C120.438 90.3248 122.902 88.9085 125.591 87.0928C130.118 84.0404 134.488 80.7179 138.487 77.0688L139.23 77.7219Z" fill="#F96E00"/>
<path d="M79.5777 65.1826L79.2066 66.1164C72.7398 63.6198 65.6676 62.9121 58.8801 64.1119L58.684 63.1441C65.716 61.8937 73.0034 62.6579 79.5777 65.1826Z" fill="#F96E00"/>
<path d="M141.725 60.6189L141.079 60.4497C139.279 59.8634 137.41 58.6863 135.61 56.8397C129.679 50.7031 127.405 41.7443 129.807 34.2401L130.129 33.0644L130.755 34.145C131.382 35.2257 132.282 36.149 133.407 36.6729C134.131 36.9772 134.885 37.1747 135.746 37.4003C136.606 37.6259 137.467 37.8515 138.27 38.2908C140.491 39.4456 142.145 41.8266 142.597 44.809C143.058 47.3355 142.678 49.9854 142.435 52.5566C142.133 55.3415 141.811 57.7776 141.734 60.1632L141.725 60.6189ZM130.512 35.4559C128.716 42.4316 131.038 50.372 136.411 56.0187C137.948 57.567 139.386 58.6313 140.726 59.2116C140.852 57.068 141.115 54.8458 141.358 52.2746C141.709 49.7316 142.06 47.1886 141.569 44.7689C141.138 42.1355 139.669 39.9177 137.742 38.9544C137.047 38.5432 136.186 38.3177 135.325 38.0921C134.464 37.8665 133.604 37.6409 132.909 37.2297C131.94 36.9759 131.197 36.3228 130.512 35.4559Z" fill="#F96E00"/>
<path d="M162.565 53.5931C162.272 54.662 161.656 55.6462 160.688 56.6528C159.056 58.4016 156.944 59.7956 154.763 60.5989L154.245 60.8068L154.039 60.2946C152.658 56.4959 150.914 51.9148 151.714 47.3128C151.987 45.8951 152.505 44.4269 153.336 43.4991C154.03 42.6499 154.909 41.964 155.76 41.385C156.063 41.1207 156.474 40.8847 156.777 40.6205C157.823 39.749 158.82 38.6355 159.768 37.2801L160.912 35.6323L160.707 37.6409C160.727 37.9897 160.61 38.4173 160.63 38.7661C160.338 41.0953 160.026 44.3359 160.976 46.7616C161.133 47.0317 161.182 47.2737 161.339 47.5439C162.191 49.4856 163.043 51.4272 162.594 53.4862L162.565 53.5931ZM154.948 59.5018C156.777 58.7209 158.586 57.5911 159.945 55.9997C160.776 55.0718 161.362 54.1944 161.596 53.3393L161.655 53.1256C162.016 51.3872 161.242 49.5806 160.468 47.774C160.312 47.5038 160.263 47.2619 160.106 46.9917C159.048 44.5379 159.272 41.6179 159.593 39.1818C158.928 39.9241 158.264 40.6664 157.521 41.2736C157.218 41.5378 156.807 41.7739 156.504 42.0382C155.653 42.6172 154.91 43.2244 154.245 43.9666C153.551 44.8158 153.092 46.0702 152.849 47.381C152.166 51.5555 153.616 55.945 154.948 59.5018Z" fill="#F96E00"/>
<path d="M157.816 115.127L155.918 114.057C154.714 113.398 153.618 112.767 152.523 112.136L152.229 111.945C148.941 110.052 145.683 108.053 143.178 104.99C140.779 101.956 139.75 98.1352 140.6 95.0355C140.687 94.7148 140.775 94.3942 140.971 94.1017L141.254 93.4886L141.812 93.9785C142.849 94.8231 144.414 95.0041 145.979 95.1851C147.114 95.2533 148.219 95.4284 149.266 95.8173C151.79 96.7079 153.503 98.8751 154.893 100.958C155.941 102.607 157.066 104.391 156.999 106.321C156.951 107.34 156.795 108.33 156.531 109.292C156.2 110.923 155.79 112.42 156.631 113.557L157.816 115.127ZM141.568 95.2893C140.807 98.0683 141.679 101.619 143.921 104.383C146.24 107.282 149.528 109.175 152.708 111.039L153.001 111.231C153.696 111.642 154.391 112.053 155.085 112.464C154.84 111.254 155.162 110.079 155.484 108.903C155.719 108.048 155.875 107.058 155.894 106.146C155.903 104.43 154.963 102.809 153.886 101.267C152.682 99.3473 151.047 97.3151 148.817 96.616C147.877 96.2554 146.743 96.1871 145.745 96.0402C144.288 95.8873 142.83 95.7346 141.627 95.0755C141.597 95.1824 141.597 95.1824 141.568 95.2893Z" fill="#F96E00"/>
<path d="M171.194 75.5588L171.018 76.2C170.062 79.2715 168.851 82.8492 165.819 84.2314C163.961 85.1193 161.937 84.9323 160.019 84.7736C158.21 84.643 156.508 84.5407 154.953 85.1643L153.779 85.6587L154.317 84.5393C155.675 81.6875 157.19 80.3663 158.569 79.1237C159.478 78.3309 160.387 77.5382 161.169 76.3683C161.56 75.7834 161.814 75.2772 162.391 74.8555C163.544 74.0123 164.973 74.272 166.156 74.5822L167.125 74.836C168.416 75.1744 169.6 75.4846 170.705 75.6597L171.194 75.5588ZM155.686 83.7525C157.153 83.4495 158.61 83.6024 160.097 83.6483C162.014 83.8071 163.824 83.9376 165.408 83.2072C167.921 82.0328 169.035 79.2315 169.904 76.4807C168.906 76.3338 167.83 76.0517 166.754 75.7697L165.785 75.5159C164.817 75.2621 163.604 75.0588 162.89 75.5592C162.587 75.8234 162.254 76.1946 162 76.7008C161.16 78.0844 160.222 78.9841 159.175 79.8555C157.992 80.8057 156.809 81.7558 155.686 83.7525Z" fill="#F96E00"/>
<path d="M187.578 75.9572L187.207 76.891C186.991 76.8346 186.483 76.5867 185.866 76.3106C185.358 76.0627 184.849 75.8148 184.634 75.7584C179.987 74.197 174.842 74.4526 170.5 76.4079L170.059 75.4905C174.675 73.3778 180.172 73.0999 185.005 74.8246C185.22 74.881 185.836 75.1571 186.345 75.405C186.854 75.6529 187.363 75.9008 187.578 75.9572Z" fill="#F96E00"/>
<path d="M79.3258 69.4698C79.1889 69.5485 78.9151 69.7059 78.7782 69.7846C78.5044 69.942 78.2307 70.0993 78.1721 70.3131C78.1135 70.5269 78.1626 70.7689 78.104 70.9826C78.153 71.2246 78.1237 71.3315 78.1728 71.5735C78.0754 72.3499 77.7628 73.0698 77.1274 73.7052C76.3258 74.5262 75.2306 75.1557 74.145 75.3295C73.9005 75.38 73.656 75.4304 73.4115 75.4809C73.0594 75.5032 72.8149 75.5537 72.5704 75.6042C72.3259 75.6546 71.8076 75.8625 71.5829 76.2618L70.5667 78.2867L70.6144 76.008C70.6627 74.9897 70.4666 74.0218 70.4761 73.5661C70.2309 72.3562 71.0713 70.9726 72.3326 70.1575C73.4278 69.5281 74.7286 69.4107 75.8142 69.237C76.7629 69.1419 77.6041 69.0186 78.5038 68.6816C78.6406 68.6029 78.8851 68.5525 79.0513 68.3669L79.3258 69.4698ZM71.4745 74.9733C71.7483 74.816 71.8852 74.7372 72.2373 74.715C72.6187 74.5858 72.9708 74.5635 73.3229 74.5412C73.5674 74.4908 73.812 74.4403 74.0272 74.4967C75.0052 74.2947 75.8265 73.8226 76.462 73.1872C76.9312 72.7374 77.1852 72.2311 77.2241 71.6685C77.2533 71.5616 77.2043 71.3196 77.2336 71.2127C77.1846 70.9708 77.1648 70.6219 77.2526 70.3013C76.7636 70.4022 76.4115 70.4245 75.9225 70.5255C74.8662 70.5924 73.673 70.7379 72.8223 71.3169C71.8641 71.8677 71.3853 72.7733 71.5031 73.6061C71.337 73.7917 71.435 74.2756 71.4745 74.9733Z" fill="#F96E00"/>
<path d="M84.2744 68.2464C82.6215 68.386 80.8807 68.8463 79.2965 69.5768L78.8558 68.6594C80.5769 67.8502 82.347 67.283 84.2151 67.1998L84.2744 68.2464Z" fill="#F96E00"/>
<path d="M134.554 41.3268C136.092 44.1354 136.563 47.4666 137.308 50.6404C138.083 53.7073 139.072 56.8306 141.049 59.2962C139.326 56.3244 138.64 52.9368 137.816 49.6279C137.179 46.4823 136.434 43.3085 134.486 40.736C134.251 40.3307 133.83 39.7621 133.644 39.5989C134.065 40.1674 134.378 40.7078 134.554 41.3268Z" fill="#F96E00"/>
<path d="M156.05 53.3753C155.494 55.4061 154.908 57.5438 155.134 59.6651C155.231 57.6284 155.973 55.7608 156.608 53.8651C157.614 51.0356 157.955 47.6881 158.07 44.7399C157.387 47.6539 156.812 50.5963 156.05 53.3753Z" fill="#F96E00"/>
<path d="M162.139 80.4031C165.631 79.0268 168.554 76.3561 171.937 74.9515C168.543 75.5515 165.21 78.4583 162.139 80.4031Z" fill="#F96E00"/>
<path d="M142.938 97.023C144.583 99.8598 147.44 101.64 149.808 103.52C150.073 103.819 150.552 104.173 150.846 104.365C150.425 103.796 149.975 103.335 149.524 102.873C147.166 100.537 144.289 98.408 142.615 95.6781C142.302 95.1378 141.988 94.5975 141.919 94.0066C141.842 95.1319 142.39 96.0775 142.938 97.023Z" fill="#F96E00"/>
<path d="M49.6483 67.077C45.5313 68.6329 41.3945 69.8401 37.0718 70.8839C41.1602 70.6952 46.6857 69.05 51.0765 67.3367C54.157 66.1964 56.8656 64.7296 59.995 63.8313C56.4447 64.161 53.0026 65.7793 49.6483 67.077Z" fill="#F96E00"/>
<path d="M130.635 117.513C131.181 113.417 132.088 108.843 132.261 104.421C130.271 114.21 127.587 124.848 132.014 134.371C132.788 136.177 133.512 137.742 134.071 139.492C134.227 139.762 134.189 140.325 134.648 140.331C134.893 140.28 135.059 140.095 135.01 139.853C134.892 139.02 134.774 138.187 134.715 137.14C134.558 135.61 134.43 133.973 133.891 132.571C133.176 130.551 131.942 128.738 130.953 126.875C130.797 126.605 130.591 126.093 130.483 126.065C131.062 128.164 132.178 130.404 132.952 132.211C133.618 133.989 133.746 135.626 133.952 137.399C133.129 135.35 132.248 133.515 131.562 131.388C130.034 126.864 130.022 122.278 130.635 117.513Z" fill="#F96E00"/>
<path d="M83.7536 28.4723C84.039 31.6402 84.3734 35.0501 85.1969 38.359C86.0987 41.803 87.5187 45.0391 89.1833 48.2247C90.1722 50.0877 91.2688 51.9789 92.5315 53.6845C93.6375 55.12 94.7729 56.4486 95.6052 58.0414C94.9391 56.263 93.8623 54.7206 92.8931 53.2065C91.6106 51.152 90.3574 48.9907 89.2412 46.7506C87.6842 43.5932 86.4208 40.6273 85.5483 37.0764C84.97 34.9774 84.7337 32.0514 84.449 30.1438C84.6547 30.656 84.7234 31.2468 84.9291 31.759C85.948 34.7754 87.1529 37.9551 88.5825 40.7355C88.5334 40.4935 88.4551 40.3585 88.4061 40.1165C87.4457 36.8863 86.5052 34.0049 85.3786 30.9602C85.1532 30.0993 84.9278 29.2383 84.4578 28.4277C84.3795 28.2927 84.3012 28.1576 84.1152 27.9943C84.0076 27.9661 83.7045 28.2304 83.7536 28.4723Z" fill="#F96E00"/>
<path d="M32.2322 21.6153C33.7892 24.7727 35.7861 27.5872 37.7538 30.5086C41.5419 35.6254 45.2224 40.7141 49.3429 45.4598C49.6072 45.7582 50.1848 46.5968 50.605 45.905C50.7221 45.4775 50.4088 44.9372 50.2814 44.5601C49.0378 41.943 47.2949 38.6223 45.9048 36.5396C46.6295 38.1043 47.3834 39.562 48.0005 41.0984C48.4902 42.2578 49.3225 43.8506 49.7339 44.8749C46.308 40.5404 41.3553 34.2018 37.4398 28.7079C35.7854 26.3269 34.1604 23.839 32.6722 21.2724C31.9182 19.8146 31.0274 18.4355 30.6548 16.8486C30.8612 18.6211 31.6152 20.0788 32.2322 21.6153Z" fill="#F96E00"/>
<path d="M109.748 91.8767C105.552 92.0372 101.288 92.8673 97.4636 93.3544C93.3949 93.892 89.2281 93.9457 85.1785 93.5718C84.6112 93.5377 84.5036 93.5095 84.0438 93.5036C83.9362 93.4754 83.7993 93.5541 83.7701 93.661C83.4377 94.0321 83.9464 94.28 84.2693 94.3646C85.2085 94.7253 86.0693 94.9508 87.0378 95.2046C90.0509 95.9942 93.1225 96.57 96.1743 96.797C96.282 96.8252 96.5265 96.7747 96.3896 96.8534C94.883 96.4586 93.3472 96.1707 91.9483 95.8041C90.5494 95.4375 88.9353 95.0145 87.3211 94.5915C88.5634 94.688 89.9426 94.7057 91.1065 94.6671C96.0558 94.7039 101.19 93.6436 105.856 93.0333C109.68 92.5461 113.573 92.6498 117.387 92.6185C114.825 92.2905 112.291 91.8557 109.748 91.8767Z" fill="#F96E00"/>
</svg>
