<svg width="30" height="31" viewBox="0 0 30 31" fill="none" xmlns="http://www.w3.org/2000/svg">
<rect y="0.5" width="30" height="30" rx="15" fill="white"/>
<path d="M22.5 18.6833V21.63C22.5001 21.841 22.4202 22.0441 22.2763 22.1985C22.1325 22.3528 21.9355 22.4469 21.725 22.4617C21.3608 22.4867 21.0633 22.5 20.8333 22.5C13.4692 22.5 7.5 16.5308 7.5 9.16667C7.5 8.93667 7.5125 8.63917 7.53833 8.275C7.5531 8.06454 7.64715 7.86751 7.8015 7.72367C7.95585 7.57984 8.15902 7.4999 8.37 7.5H11.3167C11.42 7.4999 11.5197 7.53822 11.5964 7.60752C11.6731 7.67682 11.7213 7.77215 11.7317 7.875C11.7508 8.06667 11.7683 8.21917 11.785 8.335C11.9506 9.49077 12.29 10.6149 12.7917 11.6692C12.8708 11.8358 12.8192 12.035 12.6692 12.1417L10.8708 13.4267C11.9704 15.9887 14.0121 18.0305 16.5742 19.13L17.8575 17.335C17.91 17.2617 17.9865 17.2091 18.0737 17.1864C18.161 17.1637 18.2535 17.1723 18.335 17.2108C19.3892 17.7116 20.513 18.0501 21.6683 18.215C21.7842 18.2317 21.9367 18.25 22.1267 18.2683C22.2294 18.2789 22.3245 18.3271 22.3936 18.4038C22.4628 18.4805 22.501 18.5801 22.5008 18.6833H22.5Z" fill="#F96E00"/>
</svg>
