<svg width="315" height="569" viewBox="0 0 315 569" fill="none" xmlns="http://www.w3.org/2000/svg">
<g filter="url(#filter0_d_85_202)">
<rect x="30" y="10" width="255" height="509" rx="26" fill="#F96E00"/>
</g>
<mask id="mask0_85_202" style="mask-type:alpha" maskUnits="userSpaceOnUse" x="30" y="10" width="255" height="509">
<rect x="30" y="10" width="255" height="509" rx="26" fill="#F96E00"/>
</mask>
<g mask="url(#mask0_85_202)">
<g opacity="0.1">
<path fill-rule="evenodd" clip-rule="evenodd" d="M43.5908 3.96757H-9.58436L-26.0312 51.9933L-25.9562 52.0426L-9.58436 4.21433H43.5851L59.9626 52.0426L60.0319 51.9933L43.5908 3.96757ZM37.868 11.7169L37.8622 11.706H-3.86141L-3.86719 11.7169H37.868ZM17.003 45.6329L22.9338 41.5476L20.6643 34.9289H13.3417L11.0664 41.5476L17.003 45.6329ZM-35 54.7683L-15.1402 -3.28149H49.1402L69 54.7683L17.0029 90.6368L-35 54.7683Z" fill="white"/>
<path fill-rule="evenodd" clip-rule="evenodd" d="M49.3307 -2.9198H-15.3374L-35.3184 55.4125L16.9938 91.4606L69.3174 55.4125L49.3307 -2.9198ZM-44 58.0861L-20.6975 -9.92261H54.6918L78 58.0861L16.9942 100.123L-44 58.0861Z" fill="white"/>
<path fill-rule="evenodd" clip-rule="evenodd" d="M55.0769 -10.7533H-21.0709L-44.6045 57.8807L17.0001 100.305L78.6048 57.8807L55.0769 -10.7533ZM-53 60.4647L-26.248 -17.5117H60.2538L87 60.4647L17 108.661L-53 60.4647Z" fill="white"/>
<path fill-rule="evenodd" clip-rule="evenodd" d="M60.8155 -18.5825H-26.8159L-53.9092 60.3535L16.9969 109.132L87.903 60.3535L60.8155 -18.5825ZM-62 62.8442L-31.8205 -25.1008H65.8148L96 62.8442L16.9971 117.2L-62 62.8442Z" fill="white"/>
<path fill-rule="evenodd" clip-rule="evenodd" d="M65.7896 -26.4143H-32.7776L-63.2461 62.8261L16.5031 117.974L96.2524 62.8261L65.7896 -26.4143ZM-71 65.2228L-37.5714 -32.6899H70.5772L104 65.2228L16.5029 125.738L-71 65.2228Z" fill="white"/>
<path fill-rule="evenodd" clip-rule="evenodd" d="M71.5219 -34.2409H-38.528L-72.5293 65.2948L16.4998 126.804L105.529 65.2948L71.5219 -34.2409ZM-80 67.5974L-43.1346 -40.2798H76.1288L113 67.5974L16.5 134.275L-80 67.5974Z" fill="white"/>
<path fill-rule="evenodd" clip-rule="evenodd" d="M77.2645 -42.0669H-44.2646L-81.8242 67.7593L16.497 135.634L114.824 67.7593L77.2645 -42.0669ZM-89 69.9735L-48.6955 -47.8689H81.7013L122 69.9735L16.4971 142.814L-89 69.9735Z" fill="white"/>
<path fill-rule="evenodd" clip-rule="evenodd" d="M83.012 -49.898H-50.0066L-91.1201 70.234L16.4969 144.479L124.12 70.234L83.012 -49.898ZM-98 72.35L-54.2611 -55.458H87.2611L131 72.35L16.4971 151.352L-98 72.35Z" fill="white"/>
<path fill-rule="evenodd" clip-rule="evenodd" d="M88.7493 -56.7746H-55.7483L-100.416 73.6456L16.4976 154.257L133.417 73.6456L88.7493 -56.7746ZM-107 75.6788L-59.8268 -62.0991H92.821L140 75.6788L16.4971 160.838L-107 75.6788Z" fill="white"/>
<path fill-rule="evenodd" clip-rule="evenodd" d="M94.4955 -64.6105H-61.4889L-109.702 76.1228L16.5004 163.091L142.709 76.1228L94.4955 -64.6105ZM-116 78.0629L-65.3842 -69.6882H98.3842L149 78.0629L16.5 169.376L-116 78.0629Z" fill="white"/>
<path fill-rule="evenodd" clip-rule="evenodd" d="M100.235 -72.4308H-67.2342L-119 78.5925L16.5004 171.925L152.001 78.5925L100.235 -72.4308ZM-125 80.4403L-70.9462 -77.2773H103.946L158 80.4403L16.5 177.915L-125 80.4403Z" fill="white"/>
<path fill-rule="evenodd" clip-rule="evenodd" d="M105.978 -80.2607H-72.9841L-128.299 81.0555L16.4996 180.759L161.298 81.0555L105.978 -80.2607ZM-134 82.8148L-76.5061 -84.8672H109.5L167 82.8148L16.5 186.452L-134 82.8148Z" fill="white"/>
<path fill-rule="evenodd" clip-rule="evenodd" d="M111.729 -88.1012H-78.7184L-137.586 83.5255L16.4996 189.598L170.597 83.5255L111.729 -88.1012ZM-143 85.1968L-82.0624 -92.4563H115.068L176 85.1968L16.5 194.99L-143 85.1968Z" fill="white"/>
<path fill-rule="evenodd" clip-rule="evenodd" d="M117.465 -95.9208H-84.4653L-146.879 85.9953L16.4969 198.432L179.878 85.9953L117.465 -95.9208ZM-152 87.5688L-87.6313 -100.045H120.631L185 87.5688L16.4971 203.529L-152 87.5688Z" fill="white"/>
<path fill-rule="evenodd" clip-rule="evenodd" d="M123.214 -103.751H-90.209L-156.178 88.4718L16.5027 207.27L189.183 88.4718L123.214 -103.751ZM-159.794 90.777L-161 89.9467L-93.1911 -107.635H126.203L194 89.9467L16.5029 212.066L-159.794 90.777Z" fill="white"/>
<path fill-rule="evenodd" clip-rule="evenodd" d="M128.949 -111.576H-95.9548L-165.477 90.9309L16.4973 216.098L198.471 90.9309L128.949 -111.576ZM-170 92.3295L-98.759 -115.224H131.747L203 92.3295L16.4971 220.605L-170 92.3295Z" fill="white"/>
<path fill-rule="evenodd" clip-rule="evenodd" d="M134.7 -118.462H-101.7L-174.771 94.3572L16.4998 225.881L207.77 94.3572L134.7 -118.462ZM-179 95.6514L-104.32 -121.865H137.32L212 95.6514L16.5 230.092L-179 95.6514Z" fill="white"/>
<path fill-rule="evenodd" clip-rule="evenodd" d="M140.639 -126.293H-106.639L-183.068 96.8241L16.9968 234.713L217.068 96.8241L140.639 -126.293ZM-187 98.0314L-109.063 -129.455H143.063L221 98.0314L16.9971 238.629L-187 98.0314Z" fill="white"/>
<path fill-rule="evenodd" clip-rule="evenodd" d="M146.383 -134.111H-112.388L-192.372 99.289L16.9973 243.546L226.372 99.289L146.383 -134.111ZM-195.096 101.037L-196 100.409L-114.622 -137.044H148.628L230 100.409L16.9971 247.167L-195.096 101.037Z" fill="white"/>
<path fill-rule="evenodd" clip-rule="evenodd" d="M152.124 -141.946H-118.123L-201.653 101.758L17.0004 252.38L235.66 101.758L152.124 -141.946ZM-205 102.785L-120.186 -144.633H154.191L239 102.785L17 255.706L-205 102.785Z" fill="white"/>
<path fill-rule="evenodd" clip-rule="evenodd" d="M244.959 104.232L157.874 -149.77H-123.867L-210.958 104.232L17.0003 261.219L244.959 104.232ZM-213.24 105.695L-214 105.171L-126.045 -151.376L-125.751 -152.223H159.751L248 105.171L17.7604 263.724L17 264.243L-213.24 105.695Z" fill="white"/>
<path fill-rule="evenodd" clip-rule="evenodd" d="M163.618 -157.601H-129.619L-220.252 106.694L17.0025 270.045L254.251 106.694L163.618 -157.601ZM-223 107.546L-131.312 -159.812H165.312L257 107.546L17.0029 272.781L-223 107.546Z" fill="white"/>
<path fill-rule="evenodd" clip-rule="evenodd" d="M169.357 -165.43H-135.363L-229.557 109.173L16.9999 278.884L263.551 109.173L169.357 -165.43ZM-231.389 110.347L-232 109.932L-137.115 -166.718L-136.879 -167.401H170.879L265.764 109.25L266 109.932L17 281.32L-231.389 110.347Z" fill="white"/>
<path fill-rule="evenodd" clip-rule="evenodd" d="M175.108 -172.311H-141.109L-238.851 112.585L16.9966 288.661L272.85 112.585L175.108 -172.311ZM-240.464 113.616L-241 113.245L-142.647 -173.441L-142.434 -174.042H176.434L274.798 112.644L275 113.245L16.9971 290.806L-240.464 113.616Z" fill="white"/>
<path fill-rule="evenodd" clip-rule="evenodd" d="M282.133 115.056L180.851 -180.125H-146.844L-248.132 115.056L17.0005 297.493L282.133 115.056ZM-249.527 115.946L-250 115.624L-148.17 -181.107L-147.991 -181.631H181.997L283.821 115.105L284 115.624L17.4669 299.017L17 299.344L-249.527 115.946Z" fill="white"/>
<path fill-rule="evenodd" clip-rule="evenodd" d="M186.595 -187.96H-152.595L-257.438 117.525L16.9972 306.331L291.432 117.525L186.595 -187.96ZM-258.614 118.279L-259 118.006L-153.708 -188.778L-153.564 -189.22H187.558L292.856 117.575L293 118.006L16.9971 307.883L-258.614 118.279Z" fill="white"/>
<path fill-rule="evenodd" clip-rule="evenodd" d="M300.732 119.996L192.341 -195.789H-158.335L-266.731 119.996L17 315.154L300.732 119.996ZM-267.677 120.601L-268 120.377L-159.24 -196.461L-159.119 -196.81H193.125L301.879 120.028L302 120.377L17.3229 316.196L17 316.42L-267.677 120.601Z" fill="white"/>
<path fill-rule="evenodd" clip-rule="evenodd" d="M310.02 123.044L198.081 -203.623H-164.081L-276.025 123.044L16.9943 324.933L310.02 123.044ZM-276.752 123.51L-277 123.346L-164.681 -204.399H198.681L311 123.346L17.2365 325.737L16.9942 325.907L-276.752 123.51Z" fill="white"/>
<path fill-rule="evenodd" clip-rule="evenodd" d="M-170.247 -211.988L-170.31 -211.797L-286 125.72L-285.827 125.84L17 334.445L17.1673 334.325L320 125.72L319.942 125.534L204.253 -211.988H-170.247ZM-285.325 125.511L-169.82 -211.447H203.826L319.325 125.511L17 333.761L-285.325 125.511Z" fill="white"/>
</g>
</g>
<defs>
<filter id="filter0_d_85_202" x="0" y="0" width="315" height="569" filterUnits="userSpaceOnUse" color-interpolation-filters="sRGB">
<feFlood flood-opacity="0" result="BackgroundImageFix"/>
<feColorMatrix in="SourceAlpha" type="matrix" values="0 0 0 0 0 0 0 0 0 0 0 0 0 0 0 0 0 0 127 0" result="hardAlpha"/>
<feOffset dy="20"/>
<feGaussianBlur stdDeviation="15"/>
<feColorMatrix type="matrix" values="0 0 0 0 0.976471 0 0 0 0 0.431373 0 0 0 0 0 0 0 0 0.25 0"/>
<feBlend mode="normal" in2="BackgroundImageFix" result="effect1_dropShadow_85_202"/>
<feBlend mode="normal" in="SourceGraphic" in2="effect1_dropShadow_85_202" result="shape"/>
</filter>
</defs>
</svg>
