<svg width="40" height="40" viewBox="0 0 40 40" fill="none" xmlns="http://www.w3.org/2000/svg">
<rect width="40" height="40" rx="20" fill="white"/>
<path d="M11.6703 28.3332L12.797 24.1932C12.0546 22.9205 11.6646 21.4732 11.667 19.9998C11.667 15.3973 15.3978 11.6665 20.0003 11.6665C24.6028 11.6665 28.3337 15.3973 28.3337 19.9998C28.3337 24.6023 24.6028 28.3332 20.0003 28.3332C18.5277 28.3355 17.0809 27.9458 15.8087 27.204L11.6703 28.3332ZM16.9928 16.0898C16.8852 16.0965 16.7801 16.1249 16.6837 16.1732C16.5933 16.2244 16.5107 16.2884 16.4387 16.3632C16.3387 16.4573 16.282 16.539 16.2212 16.6182C15.9132 17.019 15.7475 17.511 15.7503 18.0165C15.752 18.4248 15.8587 18.8223 16.0253 19.194C16.3662 19.9457 16.927 20.7415 17.6678 21.479C17.8462 21.6565 18.0203 21.8348 18.2078 22.0007C19.1273 22.8102 20.223 23.394 21.4078 23.7057L21.882 23.7782C22.0362 23.7865 22.1903 23.7748 22.3453 23.7673C22.588 23.7548 22.825 23.6891 23.0395 23.5748C23.1778 23.5015 23.2428 23.4648 23.3587 23.3915C23.3587 23.3915 23.3945 23.3682 23.4628 23.3165C23.5753 23.2332 23.6445 23.174 23.7378 23.0765C23.807 23.0048 23.867 22.9207 23.9128 22.8248C23.9778 22.689 24.0428 22.4298 24.0695 22.214C24.0895 22.049 24.0837 21.959 24.0812 21.9032C24.0778 21.814 24.0037 21.7215 23.9228 21.6823L23.4378 21.4648C23.4378 21.4648 22.7128 21.149 22.2703 20.9473C22.2237 20.927 22.1737 20.9154 22.1228 20.9132C22.0658 20.9073 22.0082 20.9137 21.9539 20.932C21.8995 20.9502 21.8498 20.9799 21.8078 21.019V21.0173C21.8037 21.0173 21.7478 21.0648 21.1453 21.7948C21.1108 21.8413 21.0631 21.8764 21.0085 21.8957C20.9539 21.915 20.8948 21.9176 20.8387 21.9032C20.7844 21.8887 20.7312 21.8703 20.6795 21.8482C20.5762 21.8048 20.5403 21.7882 20.4695 21.7573L20.4653 21.7557C19.9886 21.5475 19.5472 21.2664 19.157 20.9223C19.052 20.8307 18.9545 20.7307 18.8545 20.634C18.5267 20.32 18.2409 19.9648 18.0045 19.5773L17.9553 19.4982C17.92 19.445 17.8915 19.3876 17.8703 19.3273C17.8387 19.2048 17.9212 19.1065 17.9212 19.1065C17.9212 19.1065 18.1237 18.8848 18.2178 18.7648C18.2962 18.6651 18.3694 18.5614 18.437 18.454C18.5353 18.2957 18.5662 18.1332 18.5145 18.0073C18.2812 17.4373 18.0395 16.8698 17.7912 16.3065C17.742 16.1948 17.5962 16.1148 17.4637 16.099C17.4187 16.094 17.3737 16.089 17.3287 16.0857C17.2168 16.0801 17.1046 16.0812 16.9928 16.089V16.0898Z" fill="#F96E00"/>
</svg>
