<svg width="30" height="30" viewBox="0 0 30 30" fill="none" xmlns="http://www.w3.org/2000/svg">
<path d="M15 0C6.716 0 0 6.716 0 15C0 23.284 6.716 30 15 30C23.284 30 30 23.284 30 15C30 6.716 23.284 0 15 0ZM24.192 24.192C22.9911 25.3925 21.5651 26.3443 19.9958 26.9929C18.4265 27.6415 16.7447 27.9742 15.0467 27.972C7.89333 27.972 2.09333 22.1733 2.09333 15.0187C2.09333 7.864 7.892 2.06533 15.0467 2.06533C22.2 2.06533 28 7.864 28 15.0187C28.002 16.7806 27.6436 18.5244 26.9467 20.1427L26.9787 20.0587C26.3244 21.6025 25.3782 23.0056 24.192 24.1907V24.192Z" fill="#F96E00"/>
<path d="M13.9615 9.30969L18.6522 14.0004L6.99219 14.0004V16.0004H18.6522L13.9615 20.691L15.3762 22.1057L22.4815 15.0004L15.3762 7.89502L13.9615 9.30969Z" fill="#F96E00"/>
</svg>
