<svg width="30" height="30" viewBox="0 0 30 30" fill="none" xmlns="http://www.w3.org/2000/svg">
<rect width="30" height="30" rx="15" fill="#F96E00"/>
<path d="M6.67034 23.3333L7.797 19.1933C7.05462 17.9207 6.66458 16.4733 6.667 15C6.667 10.3975 10.3978 6.66663 15.0003 6.66663C19.6028 6.66663 23.3337 10.3975 23.3337 15C23.3337 19.6025 19.6028 23.3333 15.0003 23.3333C13.5277 23.3357 12.0809 22.9459 10.8087 22.2041L6.67034 23.3333ZM11.9928 11.09C11.8852 11.0966 11.7801 11.125 11.6837 11.1733C11.5933 11.2245 11.5107 11.2885 11.4387 11.3633C11.3387 11.4575 11.282 11.5391 11.2212 11.6183C10.9132 12.0191 10.7475 12.5111 10.7503 13.0166C10.752 13.425 10.8587 13.8225 11.0253 14.1941C11.3662 14.9458 11.927 15.7416 12.6678 16.4791C12.8462 16.6566 13.0203 16.835 13.2078 17.0008C14.1273 17.8103 15.223 18.3942 16.4078 18.7058L16.882 18.7783C17.0362 18.7866 17.1903 18.775 17.3453 18.7675C17.588 18.7549 17.825 18.6892 18.0395 18.575C18.1778 18.5016 18.2428 18.465 18.3587 18.3916C18.3587 18.3916 18.3945 18.3683 18.4628 18.3166C18.5753 18.2333 18.6445 18.1741 18.7378 18.0766C18.807 18.005 18.867 17.9208 18.9128 17.825C18.9778 17.6891 19.0428 17.43 19.0695 17.2141C19.0895 17.0491 19.0837 16.9591 19.0812 16.9033C19.0778 16.8141 19.0037 16.7216 18.9228 16.6825L18.4378 16.465C18.4378 16.465 17.7128 16.1491 17.2703 15.9475C17.2237 15.9271 17.1737 15.9155 17.1228 15.9133C17.0658 15.9074 17.0082 15.9139 16.9539 15.9321C16.8995 15.9504 16.8498 15.98 16.8078 16.0191V16.0175C16.8037 16.0175 16.7478 16.065 16.1453 16.795C16.1108 16.8414 16.0631 16.8765 16.0085 16.8958C15.9539 16.9151 15.8948 16.9177 15.8387 16.9033C15.7844 16.8888 15.7312 16.8704 15.6795 16.8483C15.5762 16.805 15.5403 16.7883 15.4695 16.7575L15.4653 16.7558C14.9886 16.5476 14.5472 16.2665 14.157 15.9225C14.052 15.8308 13.9545 15.7308 13.8545 15.6341C13.5267 15.3202 13.2409 14.965 13.0045 14.5775L12.9553 14.4983C12.92 14.4451 12.8915 14.3877 12.8703 14.3275C12.8387 14.205 12.9212 14.1066 12.9212 14.1066C12.9212 14.1066 13.1237 13.885 13.2178 13.765C13.2962 13.6652 13.3694 13.5615 13.437 13.4541C13.5353 13.2958 13.5662 13.1333 13.5145 13.0075C13.2812 12.4375 13.0395 11.87 12.7912 11.3066C12.742 11.195 12.5962 11.115 12.4637 11.0991C12.4187 11.0941 12.3737 11.0891 12.3287 11.0858C12.2168 11.0802 12.1046 11.0813 11.9928 11.0891V11.09Z" fill="white"/>
</svg>
