<svg width="40" height="40" viewBox="0 0 40 40" fill="none" xmlns="http://www.w3.org/2000/svg">
<rect width="40" height="40" rx="20" fill="white"/>
<path d="M20.0003 11.6665C22.2645 11.6665 22.547 11.6748 23.4353 11.7165C24.3228 11.7582 24.927 11.8973 25.4587 12.104C26.0087 12.3157 26.472 12.6023 26.9353 13.0648C27.3591 13.4814 27.687 13.9853 27.8962 14.5415C28.102 15.0723 28.242 15.6773 28.2837 16.5648C28.3228 17.4532 28.3337 17.7357 28.3337 19.9998C28.3337 22.264 28.3253 22.5465 28.2837 23.4348C28.242 24.3223 28.102 24.9265 27.8962 25.4582C27.6876 26.0147 27.3596 26.5187 26.9353 26.9348C26.5186 27.3584 26.0147 27.6863 25.4587 27.8957C24.9278 28.1015 24.3228 28.2415 23.4353 28.2832C22.547 28.3223 22.2645 28.3332 20.0003 28.3332C17.7362 28.3332 17.4537 28.3248 16.5653 28.2832C15.6778 28.2415 15.0737 28.1015 14.542 27.8957C13.9856 27.6869 13.4816 27.359 13.0653 26.9348C12.6415 26.5183 12.3136 26.0144 12.1045 25.4582C11.8978 24.9273 11.7587 24.3223 11.717 23.4348C11.6778 22.5465 11.667 22.264 11.667 19.9998C11.667 17.7357 11.6753 17.4532 11.717 16.5648C11.7587 15.6765 11.8978 15.0732 12.1045 14.5415C12.313 13.985 12.641 13.4809 13.0653 13.0648C13.4817 12.6409 13.9857 12.3129 14.542 12.104C15.0737 11.8973 15.677 11.7582 16.5653 11.7165C17.4537 11.6773 17.7362 11.6665 20.0003 11.6665ZM20.0003 15.8332C18.8953 15.8332 17.8354 16.2722 17.054 17.0536C16.2726 17.835 15.8337 18.8948 15.8337 19.9998C15.8337 21.1049 16.2726 22.1647 17.054 22.9461C17.8354 23.7275 18.8953 24.1665 20.0003 24.1665C21.1054 24.1665 22.1652 23.7275 22.9466 22.9461C23.728 22.1647 24.167 21.1049 24.167 19.9998C24.167 18.8948 23.728 17.835 22.9466 17.0536C22.1652 16.2722 21.1054 15.8332 20.0003 15.8332ZM25.417 15.6248C25.417 15.3486 25.3072 15.0836 25.1119 14.8883C24.9165 14.6929 24.6516 14.5832 24.3753 14.5832C24.0991 14.5832 23.8341 14.6929 23.6388 14.8883C23.4434 15.0836 23.3337 15.3486 23.3337 15.6248C23.3337 15.9011 23.4434 16.1661 23.6388 16.3614C23.8341 16.5568 24.0991 16.6665 24.3753 16.6665C24.6516 16.6665 24.9165 16.5568 25.1119 16.3614C25.3072 16.1661 25.417 15.9011 25.417 15.6248ZM20.0003 17.4998C20.6634 17.4998 21.2993 17.7632 21.7681 18.2321C22.2369 18.7009 22.5003 19.3368 22.5003 19.9998C22.5003 20.6629 22.2369 21.2988 21.7681 21.7676C21.2993 22.2364 20.6634 22.4998 20.0003 22.4998C19.3373 22.4998 18.7014 22.2364 18.2326 21.7676C17.7637 21.2988 17.5003 20.6629 17.5003 19.9998C17.5003 19.3368 17.7637 18.7009 18.2326 18.2321C18.7014 17.7632 19.3373 17.4998 20.0003 17.4998Z" fill="#F96E00"/>
</svg>
