<svg width="161" height="138" viewBox="0 0 161 138" fill="none" xmlns="http://www.w3.org/2000/svg">
<path d="M9.16544 71.3514C9.38791 71.3318 10.0732 71.4912 10.8884 71.5952C11.611 71.6634 12.4262 71.7674 12.6113 71.839L12.7039 71.8748C14.0923 72.4118 15.5587 71.7111 17.0625 70.9193C17.5822 70.6977 18.1392 70.3849 18.6589 70.1633C22.8715 68.5174 27.2218 70.2 31.4244 71.7198C32.9979 72.3284 34.664 72.9728 36.3123 73.399C43.0904 75.1754 51.3432 73.6131 58.7713 69.0905C59.3657 68.6865 59.9227 68.3737 60.5171 67.9697C62.2629 66.8489 64.1759 65.5814 66.2724 64.9132C68.5362 64.0984 70.8909 63.8469 73.1157 63.6509C79.1599 63.0305 85.3341 62.3546 91.5975 62.7698C98.3611 63.2727 105.175 65.4855 109.798 68.8583L109.389 69.3339C104.821 66.0881 98.2295 63.8557 91.5585 63.3886C85.425 62.918 79.1583 63.5581 73.2066 64.2143C70.9818 64.4104 68.6271 64.6618 66.4932 65.4212C64.4893 66.1252 62.7062 67.3373 60.8678 68.4223C60.2734 68.8263 59.7164 69.1391 59.122 69.5431C51.564 74.1211 43.1813 75.7388 36.2181 73.8908C34.5698 73.4646 32.9037 72.8202 31.2376 72.1758C26.9425 70.6202 22.8698 69.045 18.9171 70.5801C18.3974 70.8017 17.8778 71.0233 17.3207 71.3361C15.7244 72.0921 14.0907 72.9394 12.4246 72.295C12.1095 72.2788 11.4242 72.1194 10.7016 72.0512C9.97896 71.983 9.2937 71.8236 9.07122 71.8432L9.16544 71.3514Z" fill="#F96E00"/>
<path d="M90.3252 48.8601C92.4915 49.5923 94.2518 49.7449 96.3807 50.5683C97.7691 51.1053 99.2127 51.7693 100.564 52.3975C101.582 52.7913 102.637 53.0939 103.488 53.6343C103.821 53.8687 104.617 54.2821 104.913 54.6077C104.617 54.2821 104.284 54.0477 103.989 53.7221C102.547 52.5305 100.713 52.0327 99.0667 51.0789C96.4766 49.5489 93.6981 49.0025 91.0869 48.3095C89.476 47.7921 87.8651 47.2747 86.1974 47.1579C83.8995 47.0088 81.5075 47.3514 79.1528 47.6028C83.1005 47.6506 86.9005 47.5355 90.3252 48.8601Z" fill="#F96E00"/>
<path d="M12.6432 55.7925L12.2805 65.0551C14.3724 59.9478 16.1119 54.9155 17.6468 50.121L17.7963 49.7562C18.8813 46.5837 20.0604 42.9194 22.995 40.9906L24.1464 40.2738L23.4756 41.3878C23.1589 41.8992 22.9722 42.3552 22.7854 42.8112C25.2264 38.6841 29.6647 35.9635 33.8432 33.3536C35.1619 32.4901 36.5731 31.6625 37.7619 30.8545C39.3777 29.7891 40.9757 28.5054 42.4438 27.2772C44.6736 25.4984 47.0333 23.6641 49.6885 22.1555C52.6409 20.4448 58.4319 17.8247 64.0976 19.6991L65.3383 20.0733L64.0586 20.3179C63.0014 20.5429 62.019 20.5855 61.0917 20.7551C59.3119 20.912 57.7172 21.1404 56.2881 21.7498C60.7588 20.5208 65.9082 21.5615 70.7977 22.7131L82.7252 25.5302C87.2071 26.6298 91.1515 27.7328 93.8113 30.6632L95.0487 32.0926L93.402 31.1388C91.2926 30.006 88.9786 29.111 86.663 28.7437C89.9026 29.9967 92.9181 31.7968 95.5617 33.9814C100.039 36.6638 104.101 41.4047 106.883 46.9178C108.117 49.4024 109.221 51.9424 110.232 54.4466C111.337 56.9867 112.403 59.6179 113.73 62.1383C118.796 72.0215 126.887 80.5391 136.489 86.1545L136.915 86.4247L136.58 86.7179C133.961 88.663 128.998 87.1662 125.37 85.5518C122.298 84.1522 119.859 81.7298 117.735 79.3236C116.405 77.8584 115.15 76.2107 114.062 74.4165C114.135 74.7617 114.116 75.0711 114.151 75.5075L114.223 76.3804L113.632 75.7291C110.805 72.9453 109.001 68.9725 107.906 63.2668C107.596 61.6678 107.324 59.9776 107.144 58.3231C106.689 55.5061 106.272 52.5978 105.465 49.8558C102.531 39.7409 93.7171 31.155 83.6425 28.5263L80.9387 27.7975L83.7741 27.9433C86.5169 28.0532 89.258 28.6908 91.8123 29.7844C89.4269 28.0166 86.2603 27.1088 82.7414 26.276L70.8139 23.4589C64.8688 22.0047 58.6818 20.8796 53.7059 23.6036L51.6078 24.7995L53.3552 23.151C55.6418 20.9716 58.219 20.7006 61.2785 20.2991C61.7234 20.2599 62.2057 20.1295 62.7432 20.1261C57.779 19.1569 52.9899 21.425 50.3721 22.8425C47.8468 24.2957 45.4871 26.1299 43.2574 27.9088C41.6967 29.1012 40.0987 30.3849 38.4829 31.4503C37.1642 32.3137 35.8455 33.1771 34.5268 34.0406C29.8839 36.9991 25.0184 39.9771 22.9087 44.8662L22.5351 45.7783L22.2786 44.8339C22.1325 44.1434 22.3761 43.2868 22.675 42.5572C20.6304 44.4077 19.6574 47.3065 18.7219 50.1142L18.5725 50.479C16.8134 55.8207 14.9797 61.3448 12.5337 67.0547L11.8987 68.6051L12.219 61.0166C10.9278 64.9545 9.22894 68.8403 7.53339 71.671L7.01537 71.365C9.02761 68.0229 11.1374 63.1339 12.3751 58.5414L12.6432 55.7925ZM135.525 86.4153C125.96 80.7087 117.999 72.1357 112.988 62.3795C111.661 59.8591 110.594 57.2279 109.49 54.6878C108.479 52.1836 107.375 49.6436 106.103 47.2502C104.243 43.6779 101.917 40.4543 99.2006 37.9245C102.211 41.3075 104.423 45.3324 105.67 49.618C106.439 52.4512 106.949 55.3953 107.311 58.1765C107.528 59.7398 107.801 61.43 108.074 63.1202C109.077 68.2625 110.585 71.9097 113.042 74.5503C113.006 74.1139 112.971 73.6775 112.935 73.2411L112.739 70.8409L113.512 72.6189C114.561 75.0319 116.204 77.0409 117.792 78.923C119.916 81.3292 122.17 83.68 125.242 85.0796C128.111 86.1894 132.907 87.8328 135.525 86.4153Z" fill="#F96E00"/>
<path d="M-8.34885 76.9384C-6.84837 77.2018 -5.38525 77.5564 -3.86526 77.5104C-1.36281 77.4218 0.772734 76.1347 3.07388 75.2287C6.35915 73.7524 9.44145 71.9864 12.6715 70.3832C14.1753 69.5913 15.7717 68.8353 17.2755 68.0435C17.4979 68.0239 17.6279 67.9685 17.8503 67.9489C20.6126 67.7494 23.3571 67.3318 26.1389 66.823C23.4513 66.84 20.7816 67.0752 18.2222 67.5645C20.1158 66.6064 21.8794 65.7038 23.1981 64.8404C24.6467 63.9215 26.1505 63.1297 27.4513 62.0481C28.8447 61.0023 29.7915 60.5232 31.0354 59.8422C34.3954 58.1836 39.035 56.2803 42.9504 54.8364C46.2357 53.3602 49.5761 52.0109 53.0822 51.0427C54.4366 50.6157 55.791 50.1886 56.6257 49.9832C58.0353 49.6832 59.3701 49.5656 60.6872 49.2298C62.3939 48.7278 64.0812 48.5352 65.8432 48.1601C67.2527 47.8601 68.625 47.6513 69.9598 47.5337C71.7023 47.4681 73.6299 47.4741 75.4827 47.6625C74.575 47.5227 73.6672 47.3828 72.6669 47.2073C73.2044 47.2038 74.2226 47.5976 74.7049 47.4672C73.7598 47.4186 72.334 46.9729 71.3515 47.0155C65.9228 46.3949 60.343 46.6667 54.9646 47.756C48.8082 48.6501 42.8337 50.671 37.2278 53.3627C30.0255 56.8104 24.1013 60.5411 17.3601 64.6954C15.6144 65.8163 13.1069 67.4877 11.6583 68.4065C9.59749 69.5112 7.62924 70.6516 5.60578 71.665C1.20646 73.7669 -3.00608 75.4128 -7.54985 76.2966C-7.67977 76.352 -7.90223 76.3716 -7.99479 76.3358L-8.34885 76.9384ZM-1.91319 75.6241C0.925466 74.7147 3.69106 73.4601 6.36411 72.1696C8.16509 71.1758 10.096 70.1265 11.897 69.1327C13.9026 67.9011 15.853 66.5424 17.7661 65.275C22.9839 62.2219 27.6268 59.2634 32.6027 56.5393C38.8777 53.2612 45.4109 50.4 52.069 49.0661C55.3884 48.5538 58.6346 47.6964 62.027 47.5294C63.0468 47.3955 63.9919 47.4441 64.8818 47.3657C63.1572 47.6495 61.47 47.8422 59.8006 48.253C58.5209 48.4976 57.186 48.6152 55.9989 48.8956C54.0697 49.4173 52.1031 50.0301 50.229 50.6787C47.3904 51.5881 44.6248 52.8428 41.8965 54.0062C39.5402 54.7853 37.2942 55.8183 35.0857 56.7601C33.3967 57.4804 31.1329 58.2952 29.9068 59.1944C28.6255 59.9666 27.2516 60.7031 25.9508 61.7847C25.0219 62.4819 23.4807 63.3649 22.7564 63.8243C19.8593 65.662 16.3142 67.2491 12.7869 69.0543C9.42693 70.713 6.12215 72.4986 2.6696 74.1215C0.368457 75.0275 -1.59981 76.1679 -3.82459 76.364C-4.39946 76.4586 -4.93698 76.462 -5.43714 76.3742C-4.26954 76.4032 -3.04509 76.0316 -1.91319 75.6241Z" fill="#F96E00"/>
<path d="M60.4382 57.6911C62.6596 58.5503 64.9931 59.1359 67.1399 60.1775C69.9541 61.1603 72.8982 62.0877 75.6003 63.3441C72.9177 61.7783 70.0483 60.6685 67.2163 59.4675C65.0695 58.4259 62.7733 57.7491 60.4772 57.0723C58.3661 56.4671 56.2372 55.6437 54.1262 55.0385C54.0336 55.0027 53.7559 54.8953 53.7559 54.8953C53.8111 55.0223 53.941 54.9669 54.1262 55.0385C56.2177 55.9531 58.3093 56.8677 60.4382 57.6911Z" fill="#F96E00"/>
<path d="M80.6085 62.1116C78.1646 61.2721 75.7758 60.5595 73.4813 59.3551C72.5005 58.8701 71.3151 58.6229 70.2969 58.2291C70.2969 58.2291 70.2969 58.2291 70.2595 58.3203C71.6658 59.0755 72.8691 59.5409 74.2754 60.2961C76.2743 61.1749 78.4601 61.5977 80.6085 62.1116Z" fill="#F96E00"/>
<path d="M79.9087 60.6788C81.7047 61.2678 83.2425 61.44 85.0386 62.029C83.1321 61.186 81.1689 60.7436 79.2251 59.9918C77.8367 59.4548 76.9306 58.7874 75.6169 58.068C75.5243 58.0322 75.3392 57.9606 75.2466 57.9248C75.3392 57.9606 75.4317 57.9964 75.5243 58.0322C76.8185 59.061 78.2053 60.1256 79.9087 60.6788Z" fill="#F96E00"/>
<path d="M54.2794 71.1566C52.5581 70.3852 50.7247 69.8874 49.0213 69.3342C50.5753 70.2522 52.446 70.6588 54.2794 71.1566Z" fill="#F96E00"/>
<path d="M35.9441 66.7063C38.3328 67.4189 41.5741 68.1443 44.3152 68.7818C41.631 67.7437 38.872 66.8879 36.0757 66.1233C34.1497 65.5897 31.5564 65.1149 29.5947 64.1449C31.4443 65.3885 33.7031 66.1565 35.9441 66.7063Z" fill="#F96E00"/>
<path d="M35.3837 68.0743C32.3666 66.8017 28.8866 65.3501 26.0903 64.5855C27.1263 65.1975 28.2744 65.5359 29.3104 66.1479C31.2168 66.9909 33.3652 67.5049 35.3837 68.0743Z" fill="#F96E00"/>
<path d="M32.4708 63.1443C35.2476 64.2183 38.0066 65.074 40.8776 65.6562C37.9709 64.6376 35.121 63.2185 32.0648 62.5647C31.0645 62.3891 30.0268 62.3047 29.1938 61.9825C30.2298 62.5945 31.3227 62.8059 32.4708 63.1443Z" fill="#F96E00"/>
<path d="M83.9755 52.3206C83.2026 50.5426 81.2784 49.4814 79.3898 48.8566C81.0364 49.8104 82.8681 50.8358 83.9755 52.3206Z" fill="#F96E00"/>
<path d="M83.0437 48.0512C84.5035 49.461 86.2605 50.6688 87.9623 51.7496C86.5398 50.2486 84.838 49.1678 83.0437 48.0512Z" fill="#F96E00"/>
<path d="M91.1529 56.7871C92.7248 57.9233 94.3341 58.9683 95.9059 60.1045C94.576 58.6393 92.8742 57.5585 91.1529 56.7871Z" fill="#F96E00"/>
<path d="M74.9348 33.2934C76.307 33.0846 77.4762 32.586 78.7007 32.2144C80.0177 31.8785 82.3172 31.5001 84.0223 31.5257C82.1516 31.1191 80.1866 31.2043 78.3873 31.6706C77.0329 32.0976 75.8815 32.8144 74.5272 33.2414C74.3972 33.2968 74.1748 33.3164 74.1374 33.4076C74.4525 33.4238 74.6749 33.4042 74.9348 33.2934Z" fill="#F96E00"/>
<path d="M79.3 30.2275C77.0022 30.0783 74.7206 30.675 72.512 31.6168C74.8115 31.2384 76.9632 30.6971 79.3 30.2275Z" fill="#F96E00"/>
<path d="M57.4558 45.3388C58.3474 44.7328 58.7957 43.6383 59.4842 42.7425C60.9718 41.2049 63.3672 39.807 65.2624 38.3214C62.9791 39.4456 60.2882 40.5179 58.7242 42.7655C58.2029 43.5147 57.8846 44.5537 57.308 45.176C57.1408 45.3226 56.9361 45.5604 56.6763 45.6712C56.9913 45.6874 57.2512 45.5766 57.4558 45.3388Z" fill="#F96E00"/>
<path d="M65.3629 41.741C64.4713 42.347 63.6349 43.0801 62.9837 43.8847C63.8753 43.2787 64.6191 42.5098 65.3629 41.741Z" fill="#F96E00"/>
<path d="M53.0191 47.5318C53.6135 47.1278 54.2079 46.7238 54.6545 46.157C55.1011 45.5902 55.4925 44.8964 55.6793 44.4404C56.3874 43.2351 57.2806 42.1015 58.0813 40.9321C59.478 38.8311 61.2254 37.1826 62.7699 35.2444C64.0545 33.4169 65.1914 31.4267 66.3835 29.5634C64.839 31.5017 63.4423 33.6027 61.7501 35.3782C60.0578 37.1536 58.403 38.8379 57.1362 40.8835C56.4281 42.0887 55.6648 43.167 55.0492 44.408C54.6562 45.6294 53.9675 46.5252 53.0013 47.3136C52.834 47.4602 52.6294 47.698 52.5547 47.8804C52.8519 47.6784 52.9818 47.623 53.0191 47.5318Z" fill="#F96E00"/>
<path d="M50.1286 47.2591C54.4939 44.1932 56.4932 39.0501 58.4357 34.3076C56.7775 37.047 55.5091 39.6203 53.7957 42.2328C52.8635 43.9852 51.6909 45.539 50.2033 47.0766C50.036 47.2233 49.8314 47.4611 49.794 47.5523C49.924 47.4969 50.0912 47.3503 50.1286 47.2591Z" fill="#F96E00"/>
<path d="M43.4874 37.295C44.5122 35.5783 45.1115 33.5915 45.9512 31.8032C47.1449 29.4124 49.0987 26.9985 50.7374 24.5685C48.3939 27.1485 45.6428 29.6766 44.6309 33.1943C44.1631 34.5981 44.0299 35.7087 43.4874 37.295C43.3201 37.4416 43.2828 37.5328 43.2454 37.624C43.2828 37.5328 43.45 37.3862 43.4874 37.295Z" fill="#F96E00"/>
<path d="M36.5333 44.3251C36.8322 43.5955 37.3 42.1917 37.5793 41.7715C39.5152 39.1394 41.0256 36.2372 41.6104 32.9769C40.7691 35.2928 39.707 37.1006 38.6448 38.9084C38.0114 39.9312 37.3228 40.8271 36.8745 41.9215C36.613 42.5599 36.4619 43.4523 36.2378 43.9995C36.1062 44.5825 35.7505 45.7127 35.7489 46.2404C35.9178 45.5661 36.2719 44.9635 36.5333 44.3251Z" fill="#F96E00"/>
<path d="M33.4685 52.3313C31.536 53.9081 29.566 55.5762 27.9842 57.6056C30.0093 56.0646 31.8867 54.3607 33.4685 52.3313Z" fill="#F96E00"/>
<path d="M25.7968 57.7104C26.0761 57.2902 26.0778 56.7626 26.3019 56.2154C27.1611 54.1177 28.0755 52.1471 28.8421 50.0137C27.6127 51.9681 26.3459 54.0138 25.6345 56.2742C25.3892 57.6584 24.7184 58.7724 23.8431 60.1243C24.5122 59.5379 25.3307 58.5866 25.7968 57.7104Z" fill="#F96E00"/>
<path d="M29.4323 39.1487C28.1996 42.1584 26.6875 45.5882 27.215 48.7505C27.5774 45.5098 28.9401 42.4448 29.4323 39.1487Z" fill="#F96E00"/>
<path d="M15.6957 63.5234C16.3129 61.7548 18.5281 58.7025 19.5741 56.1489C17.8802 58.4519 16.1489 60.8462 15.5284 63.67C15.4911 63.7612 15.6957 63.5234 15.6957 63.5234Z" fill="#F96E00"/>
<path d="M16.0921 61.2468C17.138 58.6931 17.4987 55.9801 18.8223 53.5338C16.9807 55.6741 16.2481 58.7715 15.6666 60.9766C15.3109 62.1068 14.7701 63.1654 14.822 64.3476C15.0478 63.2728 15.6812 62.25 16.0921 61.2468Z" fill="#F96E00"/>
<path d="M17.5697 62.8748C19.1125 61.4641 20.5628 60.0177 22.2533 58.7699C19.1906 60.2265 16.3096 62.81 15.0216 65.6926C15.8223 64.5232 16.5287 63.8456 17.5697 62.8748Z" fill="#F96E00"/>
<path d="M15.0636 70.0405C16.1386 70.0337 16.7508 69.8479 17.6959 69.8965C20.8463 70.0585 24.0357 69.6016 27.0774 68.982C24.2599 69.0544 21.7948 69.0518 18.9951 69.3425C17.6976 69.3689 16.3254 69.5777 15.0636 70.0405C14.8785 69.9689 14.656 69.9885 14.656 69.9885C14.7485 70.0243 14.8785 69.9689 15.0636 70.0405Z" fill="#F96E00"/>
</svg>
