<svg width="82" height="62" viewBox="0 0 82 62" fill="none" xmlns="http://www.w3.org/2000/svg">
<path d="M41.3927 0C33.9527 6.50132 26.9377 27.9092 40.9203 43.8839C39.4087 30.8813 43.6365 19.504 48.8328 15.6728C48.5966 11.2612 44.6994 3.01847 41.3927 0Z" fill="#F96E00"/>
<path d="M39.6209 43.8839C20.3714 41.7942 16.2382 18.2269 18.5998 8.82322C24.2688 8.82322 30.646 13.3509 32.0631 15.4406C30.5279 23.219 33.0079 38.3113 39.6209 43.8839Z" fill="#F96E00"/>
<path d="M42.4556 44C40.448 34.4802 41.8415 14.1868 63.4767 9.1715C65.3662 20.8971 62.9571 38.6132 42.4556 44Z" fill="#F96E00"/>
<path d="M0.205966 51.7273H1.92827L3.58665 54.8594H3.65767L5.31605 51.7273H7.03835L4.38565 56.429V59H2.85866V56.429L0.205966 51.7273ZM14.122 55.3636C14.122 56.1567 13.9717 56.8314 13.671 57.3878C13.3727 57.9441 12.9655 58.3691 12.4494 58.6626C11.9357 58.9538 11.358 59.0994 10.7164 59.0994C10.0701 59.0994 9.49012 58.9527 8.97638 58.6591C8.46265 58.3655 8.05664 57.9406 7.75835 57.3842C7.46005 56.8279 7.3109 56.1544 7.3109 55.3636C7.3109 54.5705 7.46005 53.8958 7.75835 53.3395C8.05664 52.7831 8.46265 52.3594 8.97638 52.0682C9.49012 51.7746 10.0701 51.6278 10.7164 51.6278C11.358 51.6278 11.9357 51.7746 12.4494 52.0682C12.9655 52.3594 13.3727 52.7831 13.671 53.3395C13.9717 53.8958 14.122 54.5705 14.122 55.3636ZM12.563 55.3636C12.563 54.8499 12.4861 54.4167 12.3322 54.0639C12.1807 53.7112 11.9664 53.4437 11.6895 53.2614C11.4125 53.0791 11.0881 52.9879 10.7164 52.9879C10.3448 52.9879 10.0204 53.0791 9.74343 53.2614C9.46644 53.4437 9.25101 53.7112 9.09712 54.0639C8.94561 54.4167 8.86985 54.8499 8.86985 55.3636C8.86985 55.8774 8.94561 56.3106 9.09712 56.6634C9.25101 57.0161 9.46644 57.2836 9.74343 57.4659C10.0204 57.6482 10.3448 57.7393 10.7164 57.7393C11.0881 57.7393 11.4125 57.6482 11.6895 57.4659C11.9664 57.2836 12.1807 57.0161 12.3322 56.6634C12.4861 56.3106 12.563 55.8774 12.563 55.3636ZM20.0835 54.0781C20.0337 53.9053 19.9639 53.7526 19.8739 53.62C19.784 53.4851 19.6739 53.3714 19.5437 53.2791C19.4158 53.1844 19.2691 53.1122 19.1033 53.0625C18.94 53.0128 18.7589 52.9879 18.56 52.9879C18.1883 52.9879 17.8616 53.0803 17.5799 53.2649C17.3005 53.4496 17.0827 53.7183 16.9265 54.071C16.7702 54.4214 16.6921 54.8499 16.6921 55.3565C16.6921 55.8632 16.7691 56.294 16.9229 56.6491C17.0768 57.0043 17.2946 57.2753 17.5763 57.4624C17.8581 57.647 18.1907 57.7393 18.5742 57.7393C18.9222 57.7393 19.2193 57.6778 19.4656 57.5547C19.7141 57.4292 19.9035 57.2528 20.0337 57.0256C20.1663 56.7983 20.2326 56.5296 20.2326 56.2195L20.5451 56.2656H18.6701V55.108H21.7134V56.0241C21.7134 56.6634 21.5785 57.2126 21.3086 57.6719C21.0387 58.1288 20.667 58.4815 20.1935 58.7301C19.7201 58.9763 19.1779 59.0994 18.5671 59.0994C17.8853 59.0994 17.2863 58.9491 16.7702 58.6484C16.2541 58.3454 15.8517 57.9157 15.5629 57.3594C15.2764 56.8007 15.1332 56.1378 15.1332 55.3707C15.1332 54.7812 15.2184 54.2557 15.3888 53.794C15.5617 53.33 15.8031 52.937 16.1133 52.6151C16.4234 52.2931 16.7844 52.0481 17.1964 51.88C17.6083 51.7119 18.0546 51.6278 18.5352 51.6278C18.9471 51.6278 19.3306 51.6882 19.6857 51.8089C20.0408 51.9273 20.3557 52.0954 20.6303 52.3132C20.9073 52.531 21.1334 52.7902 21.3086 53.0909C21.4838 53.3892 21.5962 53.7183 21.646 54.0781H20.0835ZM23.8974 59H22.2496L24.7603 51.7273H26.7418L29.2489 59H27.6012L25.7795 53.3892H25.7227L23.8974 59ZM23.7944 56.1413H27.6864V57.3416H23.7944V56.1413ZM32.4387 59V51.7273H37.2541V52.995H33.9764V54.728H36.9345V55.9957H33.9764V59H32.4387ZM44.9716 55.3636C44.9716 56.1567 44.8213 56.8314 44.5206 57.3878C44.2223 57.9441 43.8151 58.3691 43.299 58.6626C42.7853 58.9538 42.2076 59.0994 41.5661 59.0994C40.9197 59.0994 40.3397 58.9527 39.826 58.6591C39.3123 58.3655 38.9063 57.9406 38.608 57.3842C38.3097 56.8279 38.1605 56.1544 38.1605 55.3636C38.1605 54.5705 38.3097 53.8958 38.608 53.3395C38.9063 52.7831 39.3123 52.3594 39.826 52.0682C40.3397 51.7746 40.9197 51.6278 41.5661 51.6278C42.2076 51.6278 42.7853 51.7746 43.299 52.0682C43.8151 52.3594 44.2223 52.7831 44.5206 53.3395C44.8213 53.8958 44.9716 54.5705 44.9716 55.3636ZM43.4126 55.3636C43.4126 54.8499 43.3357 54.4167 43.1818 54.0639C43.0303 53.7112 42.8161 53.4437 42.5391 53.2614C42.2621 53.0791 41.9377 52.9879 41.5661 52.9879C41.1944 52.9879 40.87 53.0791 40.593 53.2614C40.3161 53.4437 40.1006 53.7112 39.9467 54.0639C39.7952 54.4167 39.7195 54.8499 39.7195 55.3636C39.7195 55.8774 39.7952 56.3106 39.9467 56.6634C40.1006 57.0161 40.3161 57.2836 40.593 57.4659C40.87 57.6482 41.1944 57.7393 41.5661 57.7393C41.9377 57.7393 42.2621 57.6482 42.5391 57.4659C42.8161 57.2836 43.0303 57.0161 43.1818 56.6634C43.3357 56.3106 43.4126 55.8774 43.4126 55.3636ZM46.1106 59V51.7273H48.9799C49.5292 51.7273 49.9979 51.8255 50.3862 52.022C50.7768 52.2161 51.0739 52.492 51.2775 52.8494C51.4835 53.2045 51.5865 53.6224 51.5865 54.103C51.5865 54.5859 51.4823 55.0014 51.274 55.3494C51.0656 55.6951 50.7638 55.9602 50.3684 56.1449C49.9754 56.3295 49.4996 56.4219 48.9409 56.4219H47.0197V55.1861H48.6923C48.9859 55.1861 49.2297 55.1458 49.4238 55.0653C49.618 54.9848 49.7624 54.8641 49.8571 54.7031C49.9541 54.5421 50.0027 54.3421 50.0027 54.103C50.0027 53.8615 49.9541 53.6579 49.8571 53.4922C49.7624 53.3265 49.6168 53.201 49.4203 53.1158C49.2261 53.0282 48.9811 52.9844 48.6852 52.9844H47.6483V59H46.1106ZM50.0382 55.6903L51.8457 59H50.1483L48.3798 55.6903H50.0382ZM58.9329 53.8189C58.9045 53.5324 58.7826 53.3099 58.5671 53.1513C58.3517 52.9927 58.0593 52.9134 57.69 52.9134C57.439 52.9134 57.2272 52.9489 57.0543 53.0199C56.8815 53.0885 56.7489 53.1844 56.6566 53.3075C56.5666 53.4306 56.5217 53.5703 56.5217 53.7266C56.5169 53.8568 56.5442 53.9704 56.6033 54.0675C56.6649 54.1645 56.7489 54.2486 56.8555 54.3196C56.962 54.3883 57.0851 54.4486 57.2248 54.5007C57.3645 54.5504 57.5136 54.593 57.6722 54.6286L58.3256 54.7848C58.6429 54.8558 58.9341 54.9505 59.1992 55.0689C59.4644 55.1873 59.694 55.3329 59.8881 55.5057C60.0823 55.6785 60.2326 55.8821 60.3391 56.1165C60.448 56.3509 60.5037 56.6196 60.506 56.9226C60.5037 57.3677 60.39 57.7536 60.1651 58.0803C59.9426 58.4046 59.6206 58.6567 59.1992 58.8366C58.7802 59.0142 58.2747 59.103 57.6829 59.103C57.0958 59.103 56.5844 59.013 56.1488 58.8331C55.7156 58.6532 55.377 58.3868 55.1332 58.0341C54.8917 57.679 54.765 57.2398 54.7532 56.7166H56.2411C56.2577 56.9605 56.3275 57.1641 56.4506 57.3274C56.5761 57.4884 56.743 57.6103 56.9513 57.6932C57.1621 57.7737 57.4 57.8139 57.6651 57.8139C57.9255 57.8139 58.1516 57.776 58.3434 57.7003C58.5375 57.6245 58.6879 57.5192 58.7944 57.3842C58.9009 57.2493 58.9542 57.0942 58.9542 56.919C58.9542 56.7557 58.9057 56.6184 58.8086 56.5071C58.7139 56.3958 58.5742 56.3011 58.3896 56.223C58.2073 56.1449 57.9835 56.0739 57.7184 56.0099L56.9265 55.8111C56.3133 55.6619 55.8292 55.4287 55.4741 55.1115C55.119 54.7943 54.9426 54.367 54.945 53.8295C54.9426 53.3892 55.0598 53.0045 55.2965 52.6754C55.5356 52.3464 55.8635 52.0895 56.2802 51.9048C56.6969 51.7202 57.1703 51.6278 57.7006 51.6278C58.2404 51.6278 58.7115 51.7202 59.114 51.9048C59.5188 52.0895 59.8337 52.3464 60.0586 52.6754C60.2835 53.0045 60.3995 53.3857 60.4066 53.8189H58.9329ZM68.2235 55.3636C68.2235 56.1567 68.0732 56.8314 67.7725 57.3878C67.4743 57.9441 67.0671 58.3691 66.551 58.6626C66.0372 58.9538 65.4596 59.0994 64.818 59.0994C64.1717 59.0994 63.5917 58.9527 63.0779 58.6591C62.5642 58.3655 62.1582 57.9406 61.8599 57.3842C61.5616 56.8279 61.4125 56.1544 61.4125 55.3636C61.4125 54.5705 61.5616 53.8958 61.8599 53.3395C62.1582 52.7831 62.5642 52.3594 63.0779 52.0682C63.5917 51.7746 64.1717 51.6278 64.818 51.6278C65.4596 51.6278 66.0372 51.7746 66.551 52.0682C67.0671 52.3594 67.4743 52.7831 67.7725 53.3395C68.0732 53.8958 68.2235 54.5705 68.2235 55.3636ZM66.6646 55.3636C66.6646 54.8499 66.5877 54.4167 66.4338 54.0639C66.2823 53.7112 66.068 53.4437 65.791 53.2614C65.514 53.0791 65.1897 52.9879 64.818 52.9879C64.4463 52.9879 64.122 53.0791 63.845 53.2614C63.568 53.4437 63.3526 53.7112 63.1987 54.0639C63.0472 54.4167 62.9714 54.8499 62.9714 55.3636C62.9714 55.8774 63.0472 56.3106 63.1987 56.6634C63.3526 57.0161 63.568 57.2836 63.845 57.4659C64.122 57.6482 64.4463 57.7393 64.818 57.7393C65.1897 57.7393 65.514 57.6482 65.791 57.4659C66.068 57.2836 66.2823 57.0161 66.4338 56.6634C66.5877 56.3106 66.6646 55.8774 66.6646 55.3636ZM73.8548 51.7273H75.3924V56.4503C75.3924 56.9806 75.2657 57.4446 75.0124 57.8423C74.7615 58.2401 74.4099 58.5502 73.9577 58.7727C73.5056 58.9929 72.9788 59.103 72.3775 59.103C71.7738 59.103 71.2459 58.9929 70.7937 58.7727C70.3415 58.5502 69.9899 58.2401 69.739 57.8423C69.488 57.4446 69.3626 56.9806 69.3626 56.4503V51.7273H70.9002V56.3189C70.9002 56.5959 70.9606 56.8421 71.0813 57.0575C71.2044 57.273 71.3772 57.4422 71.5998 57.5653C71.8223 57.6884 72.0816 57.75 72.3775 57.75C72.6758 57.75 72.935 57.6884 73.1552 57.5653C73.3777 57.4422 73.5494 57.273 73.6701 57.0575C73.7932 56.8421 73.8548 56.5959 73.8548 56.3189V51.7273ZM76.6575 59V51.7273H78.1951V57.7322H81.313V59H76.6575Z" fill="#220F00"/>
</svg>
