<svg width="30" height="31" viewBox="0 0 30 31" fill="none" xmlns="http://www.w3.org/2000/svg">
<rect y="0.5" width="30" height="30" rx="15" fill="white"/>
<path d="M7.50033 8.5H22.5003C22.7213 8.5 22.9333 8.5878 23.0896 8.74408C23.2459 8.90036 23.3337 9.11232 23.3337 9.33333V22.6667C23.3337 22.8877 23.2459 23.0996 23.0896 23.2559C22.9333 23.4122 22.7213 23.5 22.5003 23.5H7.50033C7.27931 23.5 7.06735 23.4122 6.91107 23.2559C6.75479 23.0996 6.66699 22.8877 6.66699 22.6667V9.33333C6.66699 9.11232 6.75479 8.90036 6.91107 8.74408C7.06735 8.5878 7.27931 8.5 7.50033 8.5ZM15.0503 15.7358L9.70699 11.1983L8.62783 12.4683L15.0612 17.9308L21.3787 12.4642L20.2887 11.2033L15.0512 15.7358H15.0503Z" fill="#F96E00"/>
</svg>
