<svg width="160" height="167" viewBox="0 0 160 167" fill="none" xmlns="http://www.w3.org/2000/svg">
<path d="M0.211538 26.6751C18.5456 30.7548 37.5848 34.966 54.6496 43.2569C73.7594 52.5348 87.5804 66.0897 93.5038 81.3554C98.1578 93.3311 98.1578 106.228 98.2283 118.664L98.2283 141.826L97.2411 141.826L97.2411 118.664C97.2411 106.294 97.1706 93.4627 92.6576 81.6186C86.8048 66.5503 73.1953 53.1928 54.2266 44.0465C37.2323 35.8214 18.3341 31.6102 0 27.5305L0.211538 26.6751Z" fill="#F96E00"/>
<path d="M90.3306 74.8412C97.3821 78.526 105.35 82.6714 110.498 88.6593C113.319 91.9493 115.434 95.7658 117.479 99.5164C118.537 101.425 119.595 103.333 120.793 105.241C125.024 111.953 129.96 116.032 135.39 117.283L135.179 118.138C129.396 116.822 124.249 112.677 119.947 105.767C118.748 103.859 117.691 101.951 116.633 100.043C114.658 96.358 112.613 92.6074 109.722 89.3831C104.645 83.5927 96.818 79.4472 89.8369 75.8282L90.3306 74.8412Z" fill="#F96E00"/>
<path d="M114.306 94.055C121.851 98.8584 127.986 100.635 133.627 99.5822L133.839 100.438C126.152 101.819 118.748 97.8056 113.812 94.7788L114.306 94.055Z" fill="#F96E00"/>
<path d="M96.677 99.8454L97.4526 99.3848C99.4976 102.477 100.555 106.096 101.613 109.584C102.6 112.874 103.658 116.361 105.562 119.322C106.479 120.836 107.607 122.152 108.735 123.468C109.581 124.521 110.498 125.508 111.274 126.626C113.601 129.851 115.152 133.667 115.857 137.483L114.87 137.615C114.235 133.864 112.755 130.245 110.498 127.087C109.722 125.968 108.806 124.981 108.03 123.994C106.902 122.678 105.703 121.296 104.716 119.717C102.741 116.69 101.754 113.137 100.696 109.781C99.7091 106.36 98.6514 102.872 96.677 99.8454Z" fill="#F96E00"/>
<path d="M93.9973 85.2377L94.914 85.4351C93.8563 91.0281 92.5165 97.5424 89.6959 103.464C86.6637 109.847 82.2917 114.848 77.0736 117.875C73.6888 119.849 69.7399 121.033 66.0026 122.283C60.6434 123.994 55.4958 125.639 51.688 129.193C51.6175 129.258 51.4764 129.39 51.4059 129.456L50.7713 128.864C54.7906 124.981 60.3614 123.205 65.7206 121.494C69.5284 120.309 73.3363 119.125 76.6505 117.217C83.0674 113.466 86.8753 107.544 88.8497 103.201C91.5998 97.2134 92.9396 90.8307 93.9973 85.2377Z" fill="#F96E00"/>
<path d="M76.2979 117.546L77.2147 117.875C77.0031 118.335 76.7915 118.796 76.6505 119.191C75.8043 121.165 75.0286 123.205 73.6889 124.981C72.067 127.021 70.022 128.535 67.9066 130.114C67.413 130.443 66.8488 130.838 66.4257 131.232C64.2397 132.877 61.5602 135.115 60.7845 138.076L59.8678 137.878C60.7845 134.654 63.5346 132.219 65.8616 130.574C66.3552 130.245 66.9193 129.851 67.3424 129.456C69.3169 128.008 71.5029 126.495 72.9132 124.521C74.1825 122.81 75.0286 120.836 75.8043 118.928C75.8748 118.467 76.0864 118.006 76.2979 117.546Z" fill="#F96E00"/>
<path d="M61.9833 107.61C70.6567 110.571 81.7276 108.663 88.9907 102.938L89.5549 103.596C82.0097 109.584 70.5156 111.492 61.6307 108.465L61.9833 107.61Z" fill="#F96E00"/>
<path d="M41.6748 37.8612C55.0727 35.0976 67.9066 34.7028 79.7532 36.8084C93.0807 39.1114 105.139 44.8361 113.53 52.9296L112.896 53.5218C104.504 45.5599 92.7281 39.9668 79.5417 37.6638C67.9066 35.624 55.2138 36.0188 41.8863 38.7166L41.6748 37.8612Z" fill="#F96E00"/>
<path d="M94.2089 40.8222C101.049 45.8889 105.632 53.456 106.831 61.5494L105.915 61.6153C104.786 53.7192 100.344 46.4153 93.6448 41.4803L94.2089 40.8222Z" fill="#F96E00"/>
<path d="M103.799 45.6915C107.748 46.0863 111.838 44.6387 114.447 41.8093L115.152 42.3357C112.331 45.3625 107.959 46.9417 103.729 46.5469L103.799 45.6915Z" fill="#F96E00"/>
<path d="M91.1062 25.8197L92.0229 26.0171C90.8242 31.347 86.5227 35.8872 81.093 37.7954L80.7404 36.94C85.8881 35.1634 89.978 30.8205 91.1062 25.8197Z" fill="#F96E00"/>
<path d="M34.1296 105.307L36.6682 105.965C37.2323 106.096 37.8669 105.899 38.5015 105.57L38.9246 105.438C39.9119 105.044 41.3222 104.912 42.0273 105.833C42.0978 105.899 42.1684 105.965 42.1684 106.096C42.2389 106.162 42.3094 106.228 42.3094 106.228C42.3094 106.228 42.3799 106.294 42.8735 106.096L50.3482 102.675C51.3354 102.28 52.5342 101.688 53.8035 101.819C54.2971 101.885 54.7202 102.017 55.1432 102.148C55.3548 102.214 55.5663 102.28 55.7779 102.346C56.342 102.477 56.8356 102.543 57.3292 102.609C58.3165 102.741 59.4447 102.872 60.2909 103.399C61.3486 104.122 61.7717 105.175 61.9127 105.965C62.1243 106.952 61.9127 107.939 61.7012 108.4C61.7717 110.045 60.9255 111.755 59.5152 112.677C58.1754 113.532 56.5535 113.861 55.0727 114.058C52.8867 114.387 50.4892 114.782 48.2327 114.124C46.6109 113.664 45.2006 112.742 44.0723 111.953L34.1296 105.307ZM59.5857 111.558C60.5025 110.703 60.996 109.452 60.855 108.268L60.855 108.136L60.9961 108.005C61.1371 107.873 61.3486 107.018 61.1371 106.031C61.0666 105.438 60.714 104.583 59.8678 104.057C59.0921 103.596 58.2459 103.464 57.3292 103.399C56.6946 103.333 56.201 103.267 55.6368 103.135C55.4253 103.07 55.2138 103.004 54.9317 102.872C54.5086 102.741 54.0855 102.609 53.733 102.543C52.7457 102.412 51.688 102.872 50.7713 103.333L43.2966 106.755C43.0145 106.886 42.4504 107.149 41.8158 106.82C41.5337 106.689 41.4632 106.491 41.3222 106.36C41.2517 106.294 41.2517 106.294 41.1812 106.228C40.8286 105.767 39.9119 105.833 39.2067 106.096L38.8541 106.294C38.5721 106.425 38.149 106.557 37.7964 106.623L44.4954 111.032C45.6942 111.887 46.9634 112.677 48.4442 113.137C50.4892 113.729 52.8162 113.4 54.8612 113.071C56.201 112.874 57.7523 112.611 58.8806 111.821C59.2331 111.887 59.3742 111.755 59.5857 111.558Z" fill="#F96E00"/>
<path d="M59.2332 138.207C59.4447 138.01 59.6562 137.812 59.9383 137.681L60.1498 137.615L60.3614 137.681C62.1948 138.47 63.9577 139.457 65.509 140.773C66.1437 141.366 66.8488 142.024 67.2719 142.813C67.9771 144.392 67.4835 146.169 66.7783 147.748C65.6501 150.644 64.1692 153.473 62.4063 156.171L62.2653 156.434C61.7717 157.289 61.2076 158.079 60.9255 159C60.855 159.461 60.7845 159.921 60.6435 160.448C60.5729 161.303 60.4319 162.224 60.0088 163.014L59.1626 162.619C59.5152 161.632 58.669 160.579 57.8228 159.527L57.5408 159.263C55.3548 156.566 54.6496 153.144 54.015 150.051C53.874 149.13 53.5919 148.077 53.8034 147.09C53.9445 146.169 54.5086 145.38 54.9317 144.59L56.7651 141.695C57.3997 140.444 58.387 138.997 59.2332 138.207ZM60.1498 138.536C59.3742 139.128 58.2459 140.839 57.3997 142.155L55.5663 145.05C55.1432 145.708 54.7201 146.498 54.5086 147.222C54.2971 148.077 54.5791 148.999 54.7201 149.92C55.3548 152.881 56.0599 156.171 58.1049 158.737L58.387 159.132C58.8101 159.658 59.2331 160.185 59.5152 160.711C59.5152 160.579 59.5857 160.514 59.5857 160.382C59.5857 159.856 59.7267 159.329 59.8678 158.803C60.1498 157.75 60.714 156.829 61.2781 156.039L61.4192 155.776C63.1115 153.144 64.5218 150.38 65.7206 147.551C66.2847 146.103 66.8488 144.524 66.2142 143.274C65.8616 142.55 65.227 141.958 64.7334 141.497C63.3936 140.247 61.8422 139.326 60.1498 138.536Z" fill="#F96E00"/>
<path d="M35.6104 131.693C36.5271 130.838 37.5848 130.245 38.7131 129.719L43.0851 127.482C43.3671 127.35 43.7197 127.153 44.0723 127.087C44.5659 127.021 45.0595 127.087 45.4826 127.219L45.6236 127.219C47.5981 127.613 49.643 127.679 51.4059 127.745L51.97 127.745L51.829 128.271C51.1944 130.574 50.4187 133.009 49.1494 135.246C47.6686 137.681 45.4826 139.457 43.1556 140.05C42.2389 140.247 41.2516 140.379 40.3349 140.444C40.0529 140.444 39.8413 140.51 39.5593 140.51C36.3861 140.839 33.2834 141.629 30.3922 143.011L28.2768 143.932L29.8281 142.221C30.3217 141.76 30.3217 140.971 30.3217 140.181C30.3217 139.26 30.3217 138.207 31.0269 137.549C31.5205 137.089 32.0141 136.891 32.4372 136.76C32.8603 136.628 33.2129 136.431 33.4949 136.167C33.918 135.773 33.9886 135.18 34.1296 134.522C34.2001 134.193 34.2706 133.864 34.3411 133.535C34.4821 133.009 34.9053 132.351 35.6104 131.693ZM50.7008 128.666C49.0789 128.6 47.175 128.535 45.3416 128.14L45.2006 128.14C44.848 128.074 44.4954 128.008 44.2133 128.008C44.0017 128.074 43.7902 128.14 43.5081 128.271L39.1362 130.509C38.149 131.035 37.0912 131.627 36.245 132.417C35.6809 132.943 35.3283 133.404 35.1873 134.062C35.0463 134.325 35.0463 134.588 34.9758 134.917C34.8347 135.575 34.6937 136.365 34.1296 136.891C33.7065 137.286 33.2129 137.483 32.7193 137.681C32.2962 137.812 31.9436 138.01 31.6615 138.273C31.0974 138.799 31.0974 139.589 31.0974 140.379C31.0974 140.905 31.1679 141.366 30.9564 141.826C33.5655 140.708 36.3861 140.05 39.2772 139.721C39.5593 139.721 39.7708 139.655 40.0529 139.655C40.9696 139.589 41.8158 139.457 42.7325 139.26C44.9185 138.668 46.8929 137.089 48.1622 134.851C49.361 132.943 50.0661 130.838 50.7008 128.666Z" fill="#F96E00"/>
<path d="M94.7025 142.616C95.3372 142.024 96.2539 141.563 97.1706 141.366L97.4527 141.366C98.7219 141.76 99.9207 142.747 100.626 144.195C101.26 145.445 101.613 146.696 101.825 147.946C102.318 150.117 102.741 152.354 101.613 154.197C101.331 154.723 100.908 155.118 100.555 155.579C100.414 155.71 100.273 155.842 100.132 156.105C98.9334 157.487 98.2283 158.934 97.9463 160.514C97.8757 160.974 97.8757 161.501 97.8052 161.961C97.6642 163.277 97.5937 164.659 96.677 165.778L95.9718 166.699L95.9013 165.58C95.7603 163.869 94.491 162.29 92.7986 161.632C92.7281 161.566 92.587 161.566 92.5165 161.501C92.2345 161.369 91.8819 161.303 91.5293 161.106C90.26 160.316 90.0485 158.803 90.119 157.947C90.119 157.553 90.1895 157.224 90.1895 156.829C90.26 156.105 90.3306 155.513 90.1895 154.855C90.119 154.526 89.978 154.263 89.9075 153.934C89.8369 153.605 89.6959 153.21 89.6254 152.881C89.1318 150.446 90.9652 148.341 92.0934 147.288L92.7281 146.695C93.0807 146.366 93.4333 146.037 93.5743 145.643C93.6448 145.445 93.7153 145.248 93.7858 144.919C93.8563 144.721 93.8563 144.59 93.9268 144.392C93.7858 143.603 94.2089 143.076 94.7025 142.616ZM97.2411 142.221C95.9718 142.484 94.8436 143.405 94.5615 144.458C94.491 144.656 94.491 144.787 94.4205 144.985C94.3499 145.314 94.2794 145.511 94.2089 145.84C93.8564 146.564 93.2922 147.09 92.8691 147.485L92.587 147.748C91.5998 148.67 89.978 150.578 90.4011 152.552C90.4716 152.881 90.6126 153.144 90.6832 153.473C90.7537 153.802 90.8947 154.197 90.9652 154.526C91.1062 155.315 91.0357 156.039 91.0357 156.697C90.9652 157.026 90.9652 157.421 90.9652 157.684C90.9652 158.211 91.0357 159.592 92.0229 160.119C92.305 160.25 92.5165 160.316 92.7986 160.448C92.9396 160.448 93.0101 160.514 93.2217 160.579C94.8436 161.172 96.1128 162.488 96.6064 164.001C96.818 163.277 96.8885 162.553 96.959 161.698C96.959 161.172 97.0296 160.711 97.1001 160.119C97.3821 158.408 98.1578 156.763 99.5681 155.315C99.7091 155.184 99.9207 154.986 99.9912 154.789C100.414 154.394 100.696 153.999 101.049 153.539C102.036 151.96 101.684 149.92 101.19 147.88C100.908 146.696 100.626 145.379 100.062 144.327C99.2155 143.405 98.2988 142.55 97.2411 142.221Z" fill="#F96E00"/>
<path d="M115.223 135.97L115.716 136.562C116.492 137.418 117.056 138.47 117.479 139.523C117.62 139.786 117.761 140.181 117.902 140.444C118.748 142.155 119.947 143.669 121.428 145.051L121.569 145.182C121.992 145.577 122.486 146.037 122.768 146.564C123.05 147.222 123.05 148.012 122.697 148.999C122.063 150.775 120.723 152.025 119.524 153.144L118.184 154.394C116.844 155.644 115.857 156.697 115.293 158.013C115.082 158.474 114.94 158.869 114.87 159.329C114.588 160.25 114.306 161.303 113.601 162.093L112.684 163.08L112.755 161.698C112.825 160.448 111.908 159.461 110.851 158.342C110.357 157.75 109.793 157.224 109.37 156.566C108.242 154.723 108.171 152.42 109.299 150.578C109.44 150.446 109.44 150.315 109.581 150.183C109.934 149.722 110.145 149.262 110.145 148.867C110.145 148.604 110.075 148.275 109.934 148.012C109.863 147.814 109.793 147.485 109.722 147.288C109.581 146.235 110.075 145.248 110.71 144.261L110.921 143.932C112.331 141.563 113.812 139.128 114.87 136.694L115.223 135.97ZM118.889 152.42C120.018 151.367 121.216 150.117 121.851 148.604C122.063 147.88 122.133 147.288 121.922 146.827C121.781 146.432 121.357 146.038 121.005 145.708L120.864 145.577C119.383 144.195 118.114 142.484 117.197 140.708C116.985 140.379 116.915 140.05 116.703 139.721C116.351 138.997 115.998 138.273 115.575 137.615C114.517 139.918 113.178 142.089 111.908 144.195L111.697 144.524C111.203 145.38 110.71 146.235 110.851 147.025C110.921 147.222 110.992 147.419 110.992 147.683C111.062 148.012 111.203 148.406 111.203 148.801C111.203 149.459 110.851 150.051 110.498 150.512C110.357 150.644 110.357 150.775 110.216 150.907C109.229 152.486 109.299 154.526 110.357 156.039C110.71 156.631 111.274 157.158 111.767 157.75C112.543 158.605 113.248 159.395 113.601 160.382C113.812 159.921 113.883 159.461 114.024 159.066C114.165 158.54 114.306 158.145 114.447 157.618C115.082 155.973 116.351 154.789 117.479 153.736L118.889 152.42Z" fill="#F96E00"/>
<path d="M113.248 130.048C116.844 131.693 120.582 132.68 123.332 132.746L123.261 133.601C120.37 133.535 116.492 132.548 112.825 130.838L113.248 130.048Z" fill="#F96E00"/>
<path d="M134.967 116.888C135.178 116.69 135.602 116.559 135.954 116.625C136.236 116.625 136.518 116.756 136.659 116.888C139.55 115.506 142.724 114.914 145.967 115.177C146.743 115.243 147.73 115.374 148.506 115.967C148.859 116.296 149.141 116.559 149.352 116.888C149.493 117.151 149.705 117.348 149.916 117.546C150.41 118.006 151.115 118.27 151.891 118.599C152.948 119.059 154.147 119.52 154.57 120.573C154.782 121.033 154.782 121.428 154.852 121.889C154.852 122.283 154.923 122.744 155.064 123.007C155.134 123.205 155.275 123.336 155.416 123.468C155.558 123.599 155.628 123.665 155.699 123.863C156.404 124.784 156.474 125.902 156.615 126.955C156.615 127.218 156.686 127.416 156.686 127.679C156.756 128.535 157.179 129.982 158.308 130.377L160 131.035L158.237 131.232C157.109 131.364 155.981 130.969 154.923 130.509C153.936 130.114 153.019 129.785 152.102 129.851C151.961 129.851 151.82 129.851 151.75 129.916C151.256 129.982 150.692 130.114 150.198 129.916C149.634 129.653 149.352 129.258 149.141 128.798C149 128.535 148.859 128.271 148.647 128.206C148.435 128.008 148.083 127.942 147.66 127.942C147.448 127.877 147.307 127.876 147.096 127.811C146.179 127.613 145.403 127.021 144.698 126.495C144.134 126.1 143.57 125.705 142.935 125.376C142.653 125.244 142.16 125.179 141.807 125.113C141.454 125.047 141.031 124.915 140.608 124.784C138.563 124.06 137.506 122.283 136.589 120.507C136.095 119.651 135.602 118.796 135.037 118.006C134.544 117.546 134.685 117.151 134.967 116.888ZM156.686 130.18C156.192 129.587 155.91 128.666 155.769 127.745C155.769 127.482 155.699 127.284 155.699 127.021C155.628 126.034 155.558 125.047 154.923 124.323C154.852 124.257 154.711 124.126 154.711 123.994C154.5 123.797 154.429 123.599 154.218 123.402C154.006 122.941 153.865 122.415 153.936 121.954C153.936 121.56 153.865 121.231 153.724 120.967C153.442 120.178 152.455 119.783 151.538 119.454C150.762 119.125 149.987 118.796 149.352 118.204C149.07 117.941 148.929 117.677 148.718 117.48C148.506 117.151 148.224 116.888 148.012 116.69C147.448 116.296 146.743 116.164 145.967 116.098C142.865 115.835 139.621 116.493 136.871 117.875L136.518 118.072L136.307 117.743C136.236 117.677 136.095 117.546 136.025 117.612C135.954 117.546 135.884 117.612 135.743 117.612C135.743 117.612 135.743 117.612 135.813 117.677C136.518 118.467 137.012 119.454 137.506 120.309C138.422 121.954 139.339 123.599 141.031 124.126C141.313 124.257 141.666 124.323 142.019 124.389C142.442 124.521 142.865 124.521 143.288 124.652C143.993 124.915 144.628 125.376 145.262 125.837C145.897 126.297 146.532 126.758 147.307 126.955C147.448 126.955 147.66 127.021 147.801 127.021C148.294 127.087 148.788 127.153 149.211 127.548C149.493 127.811 149.705 128.14 149.916 128.469C150.128 128.798 150.269 129.061 150.551 129.193C150.833 129.324 151.186 129.258 151.538 129.193C151.679 129.193 151.891 129.127 152.032 129.127C153.231 128.929 154.288 129.39 155.346 129.851C155.699 129.916 156.192 130.114 156.686 130.18Z" fill="#F96E00"/>
<path d="M122.979 132.943L123.332 132.746C123.614 132.614 123.967 132.548 124.46 132.483C124.954 132.417 125.659 132.285 126.294 132.088L126.576 131.956C127.069 131.759 127.633 131.627 128.197 131.759C128.409 131.825 128.621 131.89 128.832 131.956C128.903 132.022 129.044 132.022 129.114 132.088C129.819 132.351 130.807 132.219 131.653 132.088C132.146 132.022 132.64 131.956 133.134 131.89C135.249 131.759 137.435 132.877 138.845 134.72C140.044 136.233 140.679 138.141 140.89 140.444C140.89 140.708 140.961 141.037 140.961 141.3C141.031 142.024 141.031 142.682 141.172 143.34C141.384 144.327 142.019 145.314 142.794 146.037L143.217 146.432L142.724 146.761C141.807 147.353 140.397 147.354 139.55 146.564C139.409 146.432 139.268 146.301 139.127 146.169C138.845 145.906 138.634 145.708 138.422 145.643C138.281 145.643 138.281 145.643 138.14 145.643C137.999 145.643 137.858 145.643 137.788 145.708C137.153 145.774 136.589 145.379 136.236 145.182C134.755 144.195 133.275 143.208 131.723 142.287C127.845 139.721 124.249 137.154 123.12 133.338L122.979 132.943ZM141.666 146.301C140.961 145.511 140.467 144.656 140.185 143.603C139.974 142.879 139.974 142.089 139.903 141.366C139.903 141.102 139.903 140.839 139.833 140.51C139.692 138.405 139.057 136.628 137.999 135.246C136.73 133.667 134.896 132.746 132.993 132.812C132.569 132.812 132.076 132.877 131.582 132.943C130.595 133.075 129.537 133.272 128.55 132.877C128.48 132.812 128.338 132.812 128.268 132.746C128.056 132.68 127.986 132.614 127.845 132.614C127.492 132.548 127.069 132.68 126.646 132.812L126.364 132.943C125.729 133.141 124.954 133.206 124.39 133.338C124.249 133.338 124.037 133.404 123.896 133.404C125.095 136.76 128.409 139.194 132.005 141.497C133.486 142.484 134.967 143.471 136.518 144.392C136.941 144.656 137.223 144.787 137.506 144.787C137.647 144.787 137.647 144.787 137.788 144.787C137.929 144.787 138.14 144.721 138.352 144.787C138.986 144.853 139.409 145.248 139.691 145.643C139.833 145.774 139.903 145.84 140.044 145.972C140.538 146.301 141.172 146.366 141.666 146.301Z" fill="#F96E00"/>
<path d="M97.3821 116.954L98.2283 117.348C96.1128 121.296 93.2922 124.85 89.978 127.942L89.9075 128.008L89.2728 127.416L89.3433 127.35C92.5165 124.257 95.2667 120.77 97.3821 116.954Z" fill="#F96E00"/>
<path d="M136.236 96.2264C136.8 95.7 137.435 95.2394 137.999 94.8446C139.974 93.6602 143.006 93.1996 145.262 94.6472C145.474 94.8446 145.756 94.9762 146.038 95.2394C146.461 95.6342 146.884 95.8974 147.378 96.0948C147.589 96.1606 147.73 96.1606 147.871 96.1606C148.083 96.2264 148.365 96.2264 148.647 96.358C149.564 96.687 150.057 97.5424 150.551 98.2662L150.692 98.3978C152.243 100.767 154.359 102.741 156.897 104.188L157.814 104.649L156.827 104.912C154.006 105.702 151.186 105.439 149.141 105.11C148.506 105.044 147.942 104.912 147.448 104.583C147.307 104.451 147.237 104.386 147.096 104.254C147.025 104.188 146.884 104.057 146.814 103.991C146.249 103.596 145.333 103.925 144.416 104.254C144.134 104.386 143.922 104.451 143.711 104.517C142.019 105.044 139.903 104.78 137.999 103.793C136.377 102.938 134.967 101.754 133.627 100.503L133.416 100.306L133.557 100.043C134.191 98.5294 135.178 97.2134 136.236 96.2264ZM155.346 104.451C153.089 103.004 151.115 101.161 149.775 98.99L149.634 98.8584C149.211 98.2004 148.788 97.5424 148.153 97.345C147.942 97.2792 147.801 97.2792 147.589 97.2134C147.378 97.1476 147.237 97.1476 147.025 97.0818C146.391 96.8844 145.897 96.4238 145.333 96.029C145.121 95.8316 144.91 95.6342 144.628 95.5026C142.794 94.1866 140.115 94.713 138.493 95.7C136.871 96.687 135.461 98.1346 134.332 100.372C135.531 101.49 136.8 102.543 138.281 103.267C139.903 104.122 141.736 104.386 143.217 103.925C143.429 103.859 143.711 103.728 143.922 103.662C144.91 103.267 146.108 102.806 147.096 103.464C147.237 103.596 147.378 103.728 147.589 103.793C147.66 103.859 147.73 103.925 147.871 104.057C148.224 104.254 148.647 104.386 149.141 104.451C150.833 104.583 153.089 104.846 155.346 104.451Z" fill="#F96E00"/>
<path d="M81.375 128.732C82.9264 127.284 85.747 126.626 89.6254 126.692H89.9075L90.0485 126.955C92.0229 130.377 90.7536 133.93 88.7792 135.773C88.7087 135.838 88.5676 135.97 88.4971 136.036L88.2856 136.233C87.933 136.562 87.5099 136.825 87.4394 137.154C87.3689 137.352 87.2278 137.615 87.2278 137.878L87.1573 138.076C86.8753 139.26 86.1701 140.313 85.6765 141.168C85.1124 142.089 84.6188 142.945 84.0547 143.866L82.0802 147.156L79.5416 141.497C79.2596 140.971 79.048 140.379 79.048 139.852C79.1186 139.128 79.4711 138.668 79.8237 138.339C79.9648 138.207 80.1058 138.076 80.3173 137.878C80.4584 137.747 80.5994 137.615 80.7404 137.483C81.093 137.154 81.234 136.891 81.234 136.628C81.3046 136.299 81.1635 135.904 81.0225 135.509C80.8815 135.246 80.8814 134.983 80.7404 134.72C80.5288 133.996 80.2468 133.206 80.1058 132.417C79.8943 131.035 80.3173 129.719 81.375 128.732ZM89.3433 127.613C83.6315 127.548 80.5994 129.324 81.093 132.417C81.1635 133.141 81.4456 133.799 81.6571 134.522C81.7982 134.786 81.7982 135.049 81.9392 135.312C82.0802 135.707 82.2212 136.233 82.1507 136.694C82.0802 137.286 81.6571 137.812 81.375 138.076C81.234 138.207 81.093 138.339 80.8814 138.536C80.7404 138.668 80.5994 138.799 80.4584 138.931C80.1058 139.26 79.9647 139.523 79.8942 139.852C79.8942 140.247 80.0353 140.642 80.2468 141.102L82.0097 145.116L82.9969 143.406C83.561 142.484 84.0546 141.629 84.6188 140.708C85.1124 139.852 85.747 138.865 86.0291 137.812L86.0996 137.615C86.1701 137.286 86.3111 137.023 86.4522 136.76C86.6637 136.299 87.0868 135.904 87.5804 135.575L87.792 135.378C89.6959 133.864 90.9652 130.706 89.3433 127.613Z" fill="#F96E00"/>
<path d="M103.87 63.2603C104.363 62.7997 104.927 62.4049 105.28 62.0758C105.773 61.7468 106.338 61.3521 106.831 61.4179C110.427 61.7469 113.46 64.9711 113.248 68.4585C113.107 70.0377 112.402 71.4853 111.697 72.933C111.274 73.7226 110.921 74.578 110.569 75.4334C109.934 77.21 109.934 79.3156 110.428 81.0922C110.639 81.816 110.921 82.6057 111.274 83.3295L111.485 83.9217L110.851 83.9875C110.145 83.9875 109.722 83.4611 109.299 83.0663L109.158 82.9347C108.665 82.3425 107.818 81.9476 107.113 81.5528C106.831 81.4212 106.549 81.2897 106.338 81.0923C105.28 80.5001 104.011 79.5788 104.011 78.1312C104.011 77.868 104.081 77.539 104.081 77.2758C104.081 77.0126 104.152 76.8152 104.152 76.552C104.081 75.9598 103.658 75.4334 103.235 74.907C102.812 74.3806 102.318 73.7884 102.248 73.0646C102.036 72.3408 102.248 71.617 102.389 70.9589C102.459 70.4983 102.6 70.1036 102.671 69.6429C102.671 69.1165 102.459 68.6559 102.318 68.1295C102.107 67.5373 101.966 67.0109 101.966 66.3529C102.177 65.3659 102.741 64.3131 103.87 63.2603ZM109.934 82.2109C109.793 81.9477 109.722 81.6187 109.652 81.2896C109.088 79.3156 109.088 77.0784 109.793 75.1044C110.075 74.1832 110.498 73.3936 110.992 72.5382C111.697 71.0906 112.331 69.8403 112.472 68.3927C112.684 65.4317 110.004 62.5364 106.902 62.2732C106.761 62.2732 106.549 62.3391 105.985 62.7339C105.562 62.9971 105.068 63.4577 104.645 63.8525C103.658 64.7737 103.235 65.5633 103.164 66.4187C103.164 66.9451 103.305 67.4715 103.446 67.9979C103.588 68.5243 103.799 69.1165 103.799 69.7745C103.799 70.3009 103.658 70.8273 103.587 71.2879C103.376 71.8801 103.305 72.4724 103.446 72.9988C103.587 73.5252 103.94 73.9858 104.293 74.4464C104.786 75.0386 105.28 75.7624 105.28 76.552C105.35 76.881 105.28 77.21 105.209 77.4074C105.209 77.6706 105.139 77.868 105.139 78.1312C105.139 79.184 106.338 79.9079 107.043 80.3027C107.325 80.4343 107.536 80.5 107.748 80.6974C108.453 81.0922 109.229 81.5528 109.934 82.2109Z" fill="#F96E00"/>
<path d="M112.543 52.6663L113.319 52.7322C116.421 52.9954 119.524 52.8637 122.486 52.2057L122.697 52.1399C123.543 52.0083 124.319 51.811 125.236 51.8768C128.197 52.2716 129.185 55.5616 129.467 57.0092C129.537 57.3382 129.537 57.6014 129.608 57.9304C129.96 59.707 130.313 61.4836 131.582 62.668C131.723 62.7996 131.794 62.8654 131.935 62.997C132.146 63.1944 132.428 63.326 132.64 63.655C132.781 63.7866 132.993 63.984 133.204 64.1814C134.05 64.9711 134.614 65.6291 134.826 66.0897C135.108 66.7477 135.108 67.4057 135.249 67.9321C135.32 68.2611 135.249 68.5901 135.39 68.8533C135.743 69.1823 135.954 69.5113 136.095 69.9061L136.589 71.4195L135.32 70.3667C134.967 70.0377 134.755 69.7087 134.544 69.3797C133.98 68.9849 133.063 68.7875 132.005 68.9849L131.864 68.9849C130.383 69.1823 129.044 69.3797 127.633 68.5901C126.999 68.2611 126.505 67.6689 126.082 67.1425C125.8 66.7477 125.447 66.4187 125.165 66.1555C124.319 65.4975 123.12 65.3001 121.922 65.1027C121.005 64.9053 120.018 64.7737 119.101 64.4447C116.562 63.3918 115.434 60.7598 114.517 58.1936L113.742 56.0222C113.389 55.1668 113.107 54.2456 112.825 53.3244L112.543 52.6663ZM134.191 67.9979C134.191 67.4715 134.121 66.8793 133.909 66.4187C133.768 66.0239 132.993 65.3001 132.428 64.7737C132.217 64.5762 132.005 64.3789 131.864 64.2472C131.653 64.0499 131.512 63.9183 131.3 63.7208C131.159 63.5892 131.018 63.4576 130.948 63.3918C129.396 62.0758 129.044 60.036 128.621 58.1936C128.55 57.8646 128.55 57.6014 128.48 57.2724C128.268 56.2854 127.492 53.1927 125.024 52.8637C124.319 52.7321 123.614 52.8638 122.838 53.0612L122.627 53.127C119.736 53.7192 116.844 53.9166 113.883 53.6534C114.094 54.3772 114.376 55.0352 114.588 55.759L115.364 57.9304C116.21 60.2992 117.268 62.7338 119.454 63.7209C120.229 64.0499 121.075 64.1815 121.922 64.3131C123.261 64.5105 124.601 64.7079 125.659 65.5633C126.082 65.9581 126.435 66.2871 126.717 66.6819C127.069 67.1425 127.422 67.6031 127.986 67.8663C129.114 68.5243 130.172 68.3269 131.653 68.1295L131.794 68.1295C132.64 67.9979 133.416 68.0637 134.05 68.2611L133.909 67.8663L134.191 67.9979Z" fill="#F96E00"/>
<path d="M121.781 29.8335C122.556 29.1097 123.543 28.3201 124.883 28.3859C125.165 28.3859 125.518 28.4517 125.8 28.5833C126.223 28.7149 126.576 28.7807 126.928 28.7149C127.281 28.6491 127.563 28.2543 127.774 27.9253C128.056 27.5305 128.409 27.2015 128.762 27.0041C129.819 26.4119 131.018 26.7409 132.005 27.0041C132.287 27.1357 132.64 27.2015 132.922 27.2015C134.403 27.5305 136.095 27.1357 137.999 26.1487C138.352 25.9513 138.563 25.7539 138.916 25.5565L139.409 26.2803C139.057 26.4777 138.845 26.6751 138.493 26.8725C138.14 27.0699 137.858 27.3331 137.506 27.6621C135.884 29.1755 134.826 31.3469 133.768 33.3868C133.204 34.4396 132.71 35.5582 132.076 36.5452C130.172 39.6379 127.492 42.0067 124.46 43.2569C121.005 44.6387 117.056 44.5071 114.094 42.9279L113.53 42.6647L113.953 42.2699C116.139 40.4932 117.691 37.598 118.184 34.5054L118.184 34.3738C118.255 34.0448 118.325 33.5842 118.466 33.1894C118.678 32.7288 119.03 32.3998 119.383 32.0708L121.216 30.2283C121.498 30.0967 121.64 29.9651 121.781 29.8335ZM127.986 28.9123C127.704 29.1755 127.422 29.3071 127.14 29.4387C126.576 29.5703 126.011 29.4387 125.518 29.3729C125.306 29.3071 124.954 29.2413 124.813 29.2413C123.896 29.1755 123.05 29.8335 122.415 30.4257C122.274 30.5573 122.204 30.6231 122.063 30.7547L120.229 32.5972C119.947 32.8604 119.665 33.1236 119.524 33.5184C119.383 33.7816 119.312 34.1106 119.312 34.3738L119.312 34.5054C118.889 37.5322 117.409 40.3617 115.293 42.3357C117.902 43.5859 121.287 43.5859 124.249 42.4015C127.069 41.2171 129.608 38.9798 131.441 36.0846C132.076 35.0976 132.499 34.0448 133.063 32.992C133.98 31.2154 134.896 29.3071 136.166 27.8595C134.967 28.1885 133.909 28.2543 132.781 27.9911C132.428 27.9253 132.146 27.7937 131.794 27.7279C130.807 27.4647 129.96 27.2015 129.255 27.5963C128.973 27.7279 128.762 28.0569 128.55 28.2543C128.339 28.5833 128.127 28.7807 127.986 28.9123Z" fill="#F96E00"/>
<path d="M91.3178 5.61888C91.6704 5.28988 91.9524 5.02668 92.3755 4.76348C93.9268 3.71067 95.9013 3.31585 97.8052 2.85525C100.062 2.32884 102.248 1.86824 103.729 0.354828L104.434 0.881245C102.6 2.98687 101.684 5.81628 101.966 8.57991L102.036 8.77731C102.107 9.36951 102.177 10.0933 101.895 10.7513C101.684 11.2119 101.331 11.5409 100.978 11.7383C100.837 11.8699 100.696 12.0016 100.555 12.1332C99.4976 13.2518 99.7091 14.8968 99.9912 16.6076C100.132 17.2656 100.203 17.9894 100.273 18.7132C100.344 20.7531 99.3566 22.8586 97.6642 24.4379C96.1834 25.8197 94.35 26.6093 92.3755 26.7409L92.2345 26.7409L92.1639 26.6751C90.7536 26.0171 89.9075 24.4379 89.7664 22.2007C89.7664 21.9375 89.6959 21.6085 89.6959 21.3453C89.6254 20.095 89.4844 18.779 88.8497 17.792C88.7792 17.5946 88.6382 17.463 88.4971 17.3314C88.2151 16.9366 87.933 16.5418 87.792 16.0154C87.5804 15.4232 87.792 14.831 87.792 14.3046C88.2151 11.1461 88.9908 7.7903 91.3178 5.61888ZM102.107 2.52624C100.767 3.11845 99.3566 3.51327 97.9462 3.77647C96.1128 4.17127 94.2794 4.56606 92.8691 5.48727C92.5166 5.68467 92.2345 5.94788 91.9524 6.21108C89.7664 8.2509 89.0613 11.4093 88.5677 14.502C88.4971 14.9626 88.4266 15.4232 88.4972 15.8838C88.5677 16.2128 88.7792 16.5418 89.1318 16.8708C89.2728 17.0024 89.4138 17.2656 89.5549 17.3972C90.3305 18.6474 90.4011 20.0292 90.4716 21.4111C90.4716 21.6743 90.4716 21.9374 90.5421 22.2664C90.6831 23.5825 91.0357 25.2275 92.3755 25.9513C94.0679 25.8197 95.6192 25.0301 96.8885 23.8457C98.4398 22.3981 99.286 20.5556 99.2155 18.779C99.2155 18.121 99.0745 17.463 99.004 16.7392C98.7219 14.8968 98.4399 12.9228 99.7797 11.5409C99.9207 11.4093 100.132 11.2119 100.273 11.0803C100.555 10.8171 100.837 10.5539 100.908 10.3565C101.049 9.96171 101.049 9.43532 100.908 8.90891L100.837 8.71152C100.696 6.6059 101.119 4.36866 102.107 2.52624Z" fill="#F96E00"/>
<path d="M54.3676 44.0465L55.0727 43.5201C60.5024 49.7711 64.7334 57.5356 67.1309 65.3001L66.2142 65.4975C63.9577 57.8646 59.7268 50.2318 54.3676 44.0465Z" fill="#F96E00"/>
<path d="M66.5668 63.9841L66.9193 64.3131C70.1631 66.8135 72.208 70.0377 72.7016 73.3936C73.1247 76.4204 71.9965 79.7104 69.8105 81.7503C69.3169 82.2109 68.7527 82.6057 68.2591 82.9347C68.0476 83.0005 67.8361 83.1979 67.6245 83.2636C67.2014 83.5269 66.7783 83.6585 66.4258 83.9875L66.3552 84.0533C66.0027 84.3823 65.7911 84.9745 65.6501 85.5009C65.4385 86.2247 65.227 86.9485 64.5923 87.5407L62.9705 89.0541L63.8167 87.0801C64.2398 86.1589 63.5346 85.1061 63.323 84.6455C63.041 84.2507 62.6884 83.9217 62.4063 83.5269C62.0538 83.1979 61.7012 82.7373 61.3486 82.2767C60.2204 80.6974 60.0088 78.6576 60.6435 76.881C60.714 76.552 60.855 76.2888 60.9961 76.0256C61.2076 75.565 61.4191 75.1044 61.4896 74.6438C61.6307 74.1174 61.5602 73.5252 61.4897 72.933C61.4192 72.0775 61.2781 71.2879 61.6307 70.4325C61.8422 69.8403 62.2653 69.4455 62.6179 68.9849L63.041 68.4585C64.3103 67.0109 65.4386 65.5633 66.4258 64.3789L66.5668 63.9841ZM69.1759 81.0264C71.1503 79.184 72.208 76.223 71.7849 73.4594C71.3618 70.4325 69.5989 67.6031 66.7078 65.1685C65.7911 66.2871 64.7334 67.5373 63.6051 68.8533L63.182 69.3797C62.9 69.7745 62.4769 70.1693 62.3358 70.5641C62.0538 71.2222 62.1243 71.946 62.1948 72.6698C62.2653 73.262 62.3358 73.9858 62.2653 74.578C62.1948 75.1702 61.9127 75.6966 61.7012 76.1572C61.5601 76.4204 61.4192 76.6836 61.3486 77.0126C60.7845 78.5918 61.0665 80.3027 61.9832 81.6845C62.2653 82.0793 62.5474 82.474 62.9705 82.8688C63.3231 83.1978 63.6756 83.6585 63.9577 84.0533C64.2398 84.4481 64.4513 84.9087 64.5923 85.3035C64.6628 85.2377 64.5924 85.1719 64.6629 85.1061C64.8744 84.3823 65.086 83.6585 65.7911 83.1321C66.1437 82.8031 66.7078 82.5398 67.0604 82.3424C67.2719 82.2766 67.4129 82.1451 67.6245 82.0793C68.1886 81.8161 68.7528 81.4212 69.1759 81.0264Z" fill="#F96E00"/>
<path d="M66.7783 65.2343C66.8488 67.9321 66.5668 70.6958 66.4257 73.3278C67.0604 70.63 67.6245 67.8663 66.7783 65.2343Z" fill="#F96E00"/>
<path d="M64.7334 82.9347C64.5218 83.6585 64.4513 84.5139 64.5923 85.3035C64.6628 84.5797 64.7334 83.7243 64.7334 82.9347Z" fill="#F96E00"/>
<path d="M65.9321 68.9191C65.8616 69.1165 65.6501 69.3139 65.6501 69.4455C65.7911 69.3139 65.8616 69.1165 65.9321 68.9191Z" fill="#F96E00"/>
<path d="M66.8488 74.1174C66.0026 76.7494 65.0154 79.3814 64.8039 82.2109C65.5796 79.6446 66.7078 76.3546 66.8488 74.1174Z" fill="#F96E00"/>
<path d="M66.0026 66.8793C64.9449 67.9979 64.2398 69.3139 63.7462 70.6957C64.5924 69.5113 65.368 68.1295 66.0026 66.8793Z" fill="#F96E00"/>
<path d="M68.3297 68.6559C68.6822 70.5641 69.1759 72.4724 69.5284 74.3806C69.6695 72.4066 69.1758 70.3667 68.3297 68.6559Z" fill="#F96E00"/>
<path d="M67.554 66.4845C68.2591 67.6689 68.8233 68.8533 69.5284 70.0378C69.881 70.63 70.1631 71.1564 70.3041 71.6828C70.1631 69.7087 68.7527 67.8663 67.554 66.4845Z" fill="#F96E00"/>
<path d="M61.8422 79.3156C62.1948 81.0922 63.3231 82.6715 64.1693 84.2507C63.6757 82.4741 62.5474 80.8948 61.8422 79.3156Z" fill="#F96E00"/>
<path d="M65.8616 83.4611C66.7783 82.0792 67.7655 80.8948 68.8233 79.6446C69.0348 79.4472 69.3169 79.0524 69.5284 78.855C69.3874 78.9866 69.3169 79.0524 69.1758 79.184C67.836 80.3027 66.5668 81.6187 65.8616 83.1979C65.7206 83.5927 65.509 84.0533 65.5796 84.5139C65.509 84.0533 65.6501 83.7901 65.8616 83.4611Z" fill="#F96E00"/>
<path d="M93.8563 16.805C93.1512 18.5158 92.6576 20.2924 92.3755 22.1348C92.164 23.385 92.0229 24.7011 91.5998 26.0171C93.0807 23.056 93.1512 19.8318 93.8563 16.805Z" fill="#F96E00"/>
<path d="M98.2283 7.98771C99.5681 6.07949 100.908 4.03968 102.389 2.26306C102.6 1.93406 102.953 1.60502 103.235 1.34182C103.164 1.40762 103.023 1.53924 102.953 1.60504C100.978 3.31585 99.4271 5.28989 97.8757 7.39551C96.2539 9.69853 94.7025 12.1989 93.7153 14.831C95.0551 12.3963 96.6769 10.2249 98.2283 7.98771Z" fill="#F96E00"/>
<path d="M99.3565 4.43448C97.8052 5.22409 96.4654 6.34268 95.5487 7.8561C96.677 6.67169 98.0167 5.55309 99.3565 4.43448Z" fill="#F96E00"/>
<path d="M101.825 3.44747C100.696 5.28989 99.9207 7.32969 99.6386 9.43531C100.414 7.52709 101.26 5.42149 101.825 3.44747Z" fill="#F96E00"/>
<path d="M95.6897 18.2526C95.9718 16.0154 95.9013 13.844 96.5359 11.6726C96.6064 11.4751 96.677 11.2777 96.7475 11.0803C96.6065 11.3435 96.5359 11.541 96.3949 11.8042C95.3371 14.2388 95.2666 16.9366 94.9141 19.108C94.4205 21.5426 93.5743 24.0431 92.5165 26.3461C94.1384 23.9115 95.2666 21.1478 95.6897 18.2526Z" fill="#F96E00"/>
<path d="M124.249 35.953C121.498 38.3876 118.607 40.1642 115.152 42.0724C118.748 40.8222 122.063 38.7824 124.249 35.953Z" fill="#F96E00"/>
<path d="M137.506 27.5305C137.647 27.3989 137.929 27.2673 137.999 27.2015C137.717 27.3331 137.294 27.4647 137.012 27.5963C135.39 28.1885 133.557 28.8465 131.935 29.7019C130.031 30.6889 128.338 32.005 126.928 33.4526C130.172 31.0837 133.909 29.4387 137.506 27.5305Z" fill="#F96E00"/>
<path d="M128.621 30.2941C127.633 30.5573 126.646 31.0837 125.8 31.6101C126.717 31.2811 127.774 30.8205 128.621 30.2941Z" fill="#F96E00"/>
<path d="M130.172 34.637C129.608 35.295 129.114 36.0188 128.691 36.8084C129.114 36.1504 129.749 35.4266 130.172 34.637Z" fill="#F96E00"/>
<path d="M132.499 32.7288C132.993 31.6101 133.204 31.0179 133.698 30.0309C132.287 32.0049 131.23 34.1764 130.524 36.4136C131.159 35.1634 131.935 34.0448 132.499 32.7288Z" fill="#F96E00"/>
<path d="M121.005 40.6907C119.242 41.2829 117.62 42.0066 115.928 42.6646C117.761 42.4014 119.453 41.6119 121.005 40.6907Z" fill="#F96E00"/>
<path d="M119.171 35.8214C120.159 33.8474 121.287 32.5313 122.838 31.0837C123.12 30.8205 123.473 30.4915 123.825 30.2941C123.543 30.4257 123.332 30.6231 123.12 30.6889C121.498 31.6759 120.088 32.992 119.383 34.7028C119.101 35.3608 118.819 36.1504 118.819 36.8084C118.819 36.4136 119.03 36.0846 119.171 35.8214Z" fill="#F96E00"/>
<path d="M120.3 57.6672C118.184 55.8248 115.716 54.443 113.46 52.8638C115.364 54.9036 117.832 56.2854 120.3 57.6672Z" fill="#F96E00"/>
<path d="M134.191 68.2611C132.428 65.9581 130.031 64.2473 127.704 62.6022C129.608 64.7737 131.935 66.4187 134.191 68.2611Z" fill="#F96E00"/>
<path d="M126.011 61.8127C125.377 60.9572 124.601 60.2334 123.755 59.707C124.39 60.4308 125.165 61.1546 126.011 61.8127Z" fill="#F96E00"/>
<path d="M120.441 55.43C121.851 56.088 123.402 56.6144 124.883 57.2066C122.697 55.8248 120.229 54.5746 117.55 54.3114C118.537 54.5746 119.383 54.9694 120.441 55.43Z" fill="#F96E00"/>
<path d="M120.018 62.01C120.088 62.0758 120.3 62.1417 120.37 62.2075C120.229 62.0759 120.018 61.8785 119.877 61.7469C117.832 59.9702 116.139 58.2594 114.729 56.1538C115.646 58.5884 117.62 60.694 120.018 62.01Z" fill="#F96E00"/>
<path d="M127.422 55.4958C125.518 54.114 123.332 53.1269 121.005 52.7979C123.12 53.5876 125.377 54.6404 127.422 55.4958Z" fill="#F96E00"/>
<path d="M107.889 72.4066C107.536 74.0516 107.395 75.7624 107.677 77.3416C107.677 75.7624 107.959 73.92 107.889 72.4066Z" fill="#F96E00"/>
<path d="M107.254 61.9442C107.466 62.4048 107.536 62.8654 107.607 63.326C107.607 65.1685 107.748 67.1425 107.607 68.9849C108.242 66.9451 108.312 62.9312 107.254 61.9442Z" fill="#F96E00"/>
<path d="M108.242 70.1035C108.171 70.9589 108.171 71.8802 108.171 72.8014C108.383 71.946 108.383 71.0247 108.242 70.1035Z" fill="#F96E00"/>
<path d="M105.703 70.1035C105.703 71.6827 105.915 73.3278 106.479 74.907C106.338 73.3278 106.126 71.5511 105.703 70.1035Z" fill="#F96E00"/>
<path d="M143.499 100.109C143.993 100.174 144.557 100.306 144.91 100.372C144.628 100.24 144.204 100.109 143.922 99.977C141.454 99.1216 138.422 98.5294 136.166 99.977C138.563 99.1874 140.961 99.7138 143.499 100.109Z" fill="#F96E00"/>
<path d="M156.827 105.044C155.134 104.649 153.795 103.925 152.314 103.07C150.41 102.083 148.506 100.964 146.461 100.24C149.705 102.083 153.16 104.781 156.827 105.044Z" fill="#F96E00"/>
<path d="M147.801 98.8584C146.955 98.0688 145.826 97.5424 144.698 97.1476C145.685 97.8056 146.884 98.3978 147.801 98.8584Z" fill="#F96E00"/>
<path d="M151.609 103.859C149.987 103.267 148.294 103.004 146.602 102.609C148.153 103.399 149.846 103.662 151.609 103.859Z" fill="#F96E00"/>
<path d="M151.961 101.293C150.903 99.9112 149.564 98.661 148.224 97.4108C149.282 98.9242 150.551 100.24 151.961 101.293Z" fill="#F96E00"/>
<path d="M152.666 102.346C151.327 101.096 149.705 100.109 148.153 99.0558C149.493 100.438 151.115 101.425 152.666 102.346Z" fill="#F96E00"/>
<path d="M143.076 120.638C140.89 119.388 138.563 118.138 136.095 117.414C138.281 118.664 140.89 120.046 143.076 120.638Z" fill="#F96E00"/>
<path d="M157.179 130.377C154.077 126.166 148.859 124.06 144.275 121.362C148.435 124.718 153.583 126.758 157.179 130.377Z" fill="#F96E00"/>
<path d="M138.493 119.783C137.576 118.928 136.659 118.204 135.672 117.546C136.448 118.401 137.506 119.257 138.493 119.783Z" fill="#F96E00"/>
<path d="M140.185 117.546C139.339 117.019 138.352 116.756 137.435 116.427C138.281 116.954 139.268 117.348 140.185 117.546Z" fill="#F96E00"/>
<path d="M147.378 117.546C148.435 118.401 149.564 119.191 150.692 119.98C149.352 118.467 147.73 117.217 145.826 116.361C146.39 116.756 146.814 117.151 147.378 117.546Z" fill="#F96E00"/>
<path d="M128.762 135.575C127.21 134.654 125.518 133.733 123.755 133.404C125.377 134.128 127.069 135.049 128.762 135.575Z" fill="#F96E00"/>
<path d="M131.723 137.812C131.089 137.352 130.454 136.891 129.749 136.628C130.383 137.089 131.089 137.483 131.723 137.812Z" fill="#F96E00"/>
<path d="M142.16 146.367C140.608 144.919 139.198 143.34 137.647 141.892C136.377 140.839 135.037 139.721 133.839 138.602C134.826 139.918 136.025 141.168 137.223 142.287C138.704 143.8 140.397 145.248 142.16 146.367Z" fill="#F96E00"/>
<path d="M115.082 147.814C115.152 147.617 115.223 147.551 115.293 147.354C116.069 145.577 116.703 143.669 116.633 141.76C116.633 140.181 116.139 138.668 115.857 137.089C115.857 138.668 116.139 140.115 116.069 141.629C116.069 142.024 115.998 142.484 115.998 142.879C115.857 141.168 115.434 139.457 114.94 137.812C115.082 139.918 115.646 142.155 115.857 144.195C115.716 145.116 115.575 146.037 115.293 147.09C115.152 147.354 115.152 147.617 115.082 147.814Z" fill="#F96E00"/>
<path d="M113.46 161.172C114.024 158.934 113.742 156.697 113.812 154.394C113.812 153.605 113.953 152.815 114.024 152.091C114.024 152.223 113.953 152.42 113.883 152.486C113.601 153.407 113.319 154.328 113.319 155.25C113.178 156.829 113.389 158.474 113.46 160.119C112.966 158.869 112.331 157.75 111.838 156.5C111.415 155.447 110.78 153.934 110.216 152.749C110.569 154.131 110.78 155.513 111.485 156.829C111.979 157.947 112.966 159.263 113.53 160.185C113.46 160.514 113.53 160.843 113.46 161.172Z" fill="#F96E00"/>
<path d="M97.1 141.826C97.2411 142.221 97.1706 142.682 97.2411 143.142C97.2411 144.458 97.1706 145.84 97.0295 147.156C97.5937 145.445 97.8757 143.471 97.1 141.826Z" fill="#F96E00"/>
<path d="M94.9846 155.118C95.0551 155.052 94.9846 154.986 95.0551 154.921C95.0551 155.052 94.9846 155.25 94.9846 155.381C95.4782 153.473 96.2539 151.696 96.7475 149.788C96.3949 150.38 96.1833 150.973 95.9013 151.631C96.1128 150.775 96.3244 150.051 96.5359 149.196C96.959 146.959 96.959 144.59 96.4654 142.287C96.818 146.564 95.4782 150.183 94.9846 154.592C94.9846 154.986 94.914 155.447 94.8435 155.776C94.914 155.579 94.9141 155.315 94.9846 155.118Z" fill="#F96E00"/>
<path d="M95.3371 157.553C95.4782 159.263 95.6897 160.908 96.2539 162.488C96.1128 160.777 95.7602 159.132 95.3371 157.553Z" fill="#F96E00"/>
<path d="M92.9396 155.052C93.2217 158.079 95.0551 160.843 96.3949 163.672C95.6897 160.645 93.8563 158.013 92.9396 155.052Z" fill="#F96E00"/>
<path d="M88.8497 128.206C87.4394 129.785 86.4522 131.627 85.8175 133.535C86.9458 131.825 87.8625 130.048 88.8497 128.206Z" fill="#F96E00"/>
<path d="M85.324 135.575C83.9136 138.339 83.0674 141.497 82.7149 144.59C83.7726 141.629 84.4778 138.602 85.324 135.575Z" fill="#F96E00"/>
<path d="M59.3036 160.777C59.4447 157.224 59.3037 153.67 60.0088 150.38C58.528 153.868 58.5985 157.75 59.2331 161.369C59.2331 161.501 59.3037 161.566 59.3037 161.566C59.3037 161.303 59.3036 161.04 59.3036 160.777Z" fill="#F96E00"/>
<path d="M60.0793 138.47C59.3742 140.181 59.3037 142.089 59.1626 143.932C59.7973 142.155 59.8678 140.247 60.0793 138.47Z" fill="#F96E00"/>
<path d="M61.1371 138.799C61.1371 139.457 61.2076 140.181 61.4191 140.773C61.4191 140.115 61.2781 139.457 61.1371 138.799Z" fill="#F96E00"/>
<path d="M62.9 139.918C62.9 140.181 62.9 140.444 63.041 140.708C63.041 140.444 62.9705 140.247 62.9 139.918Z" fill="#F96E00"/>
<path d="M57.7523 143.8C57.8934 143.011 57.8933 142.353 58.1754 141.431C57.3292 143.142 57.0472 145.38 57.2587 147.156C57.3997 146.103 57.7523 144.458 57.7523 143.8Z" fill="#F96E00"/>
<path d="M43.7902 132.351C45.9762 131.232 48.1622 129.982 50.4187 128.929C45.6941 130.443 40.9696 132.746 37.3028 135.773C39.3477 134.522 41.6042 133.47 43.7902 132.351Z" fill="#F96E00"/>
<path d="M35.1873 138.931C33.3539 139.721 31.591 140.839 30.3922 142.353C31.9436 141.037 33.636 140.115 35.1873 138.931Z" fill="#F96E00"/>
<path d="M61.7012 108.005C56.6946 107.676 51.829 108.531 46.8929 108.4C51.7585 109.255 56.7651 108.4 61.7012 108.005Z" fill="#F96E00"/>
<path d="M60.855 106.426C60.0793 106.228 59.1626 106.162 58.4575 106.162C59.2331 106.36 60.0088 106.294 60.855 106.426Z" fill="#F96E00"/>
<path d="M60.1498 108.926C60.0088 108.926 59.7267 108.926 59.5857 109.058C59.7972 108.992 60.0088 108.926 60.1498 108.926Z" fill="#F96E00"/>
<path d="M52.1111 111.426C51.0533 111.229 49.9251 111.097 48.8674 111.163C49.9251 111.361 51.0533 111.492 52.1111 111.426Z" fill="#F96E00"/>
</svg>
